<?xml version="1.0" encoding="UTF-8"?>
<svg width="49px" height="46px" viewBox="0 0 49 46" version="1.1" xmlns="http://www.w3.org/2000/svg" xmlns:xlink="http://www.w3.org/1999/xlink">
    <!-- Generator: Sketch 46.2 (44496) - http://www.bohemiancoding.com/sketch -->
    <title>Group 23</title>
    <desc>Created with Sketch.</desc>
    <defs></defs>
    <g id="Page-1" stroke="none" stroke-width="1" fill="none" fill-rule="evenodd">
        <g id="webinar-registration" transform="translate(-1276.000000, -1483.000000)">
            <g id="Group-2" transform="translate(1133.000000, 1484.000000)">
                <g id="Group-23" transform="translate(144.000000, 0.000000)">
                    <circle id="Oval-4" fill="#404F54" opacity="0.0900000036" cx="25.2495117" cy="22.2495117" r="22.2495117"></circle>
                    <g id="Group-6">
                        <circle id="Oval-3" fill="#FFA37A" cx="20.4718403" cy="20.6969492" r="20.1471671"></circle>
                        <circle id="Oval-3-Copy-2" fill="#FF7F45" cx="23.9924889" cy="23.4427068" r="16.0767364"></circle>
                        <path d="M4.46788729,7.74544326 C3.8437174,8.52853616 3.27559892,9.35828376 2.76960459,10.2286133 M0.863060505,14.625088 C0.301645938,16.4965582 0,18.4803588 0,20.5346127 C0,31.8755661 9.19365924,41.0692253 20.5346127,41.0692253 C31.8755661,41.0692253 41.0692253,31.8755661 41.0692253,20.5346127 C41.0692253,9.19365924 31.8755661,0 20.5346127,0 C16.8588907,0 13.408737,0.965771896 10.4240591,2.65740788" id="Oval-2" stroke="#404F54" stroke-width="1.5" stroke-linecap="round"></path>
                    </g>
                    <path d="M18,26.5820312 L21.2109375,26.5820312 L21.2109375,30.203125 L18,30.203125 L18,26.5820312 Z M17,13 L22.2109375,13 L21.2109375,24.7539062 L18,24.7539062 L17,13 Z" id="!" fill="#FFFFFF"></path>
                </g>
            </g>
        </g>
    </g>
</svg>