<?xml version="1.0" encoding="UTF-8" standalone="no"?>
<svg width="142px" height="139px" viewBox="0 0 142 139" version="1.1" xmlns="http://www.w3.org/2000/svg" xmlns:xlink="http://www.w3.org/1999/xlink">
    <!-- Generator: Sketch 41.2 (35397) - http://www.bohemiancoding.com/sketch -->
    <title>Make money</title>
    <desc>Created with Sketch.</desc>
    <defs>
        <path d="M18.892952,31.8465121 L0.689814367,31.7871001 C0.689814367,31.7871001 4.33124943,23.6222793 4.93863596,13.922553 C5.54602248,4.22282676 6.82309158,0.0541824994 10.5556635,0.0541824994 C14.2882354,0.0541824994 15.7164301,2.98844199 15.7164301,4.2505139 C15.7164301,5.5125858 14.3839867,19.8147215 14.3839867,19.8147215 C14.3839867,19.8147215 14.4601263,23.9977861 18.7233683,23.2940714 C22.9866103,22.5903567 30.2954371,19.4172957 30.2954371,19.4172957 C30.2954371,19.4172957 33.3208334,18.1315744 33.3208334,21.6830263 C33.3208334,25.2344781 24.6622587,25.6705505 24.6622587,25.6705505 L19.4651528,26.1544986 C19.4651528,26.1544986 16.7639267,27.0687508 16.7639267,28.4992528 C16.7639267,29.9297548 18.892952,31.8465121 18.892952,31.8465121 Z" id="path-1"></path>
        <path d="M0.767190268,48.2862159 L22.2782991,48.6323546 C22.2782991,48.6323546 17.4963022,43.8841838 18.1260244,37.6189338 C18.7557467,31.3536838 22.2690317,12.5861993 22.2690317,12.5861993 C22.2690317,12.5861993 25.8495055,5.63145208 21.0665818,1.99861721 C16.2836582,-1.63421766 11.4506904,3.84330032 11.4506904,3.84330032 C11.4506904,3.84330032 9.77791819,5.75656246 9.20750751,10.634014 C8.63709683,15.5114655 6.57926269,39.2050555 6.57926269,39.2050555 L0.767190268,48.2862159 Z" id="path-3"></path>
        <path d="M0.27460496,0.548255759 C0.27460496,0.548255759 -1.13712455,9.94087295 6.89800292,10.9124452 L37.3550195,10.9124452 C37.3550195,10.9124452 30.6748178,11.0563077 30.6748178,0.596394378 L0.27460496,0.548255759 Z" id="path-5"></path>
    </defs>
    <g id="Page-1" stroke="none" stroke-width="1" fill="none" fill-rule="evenodd">
        <g id="teachable-brandguide-illustrations--marketing-site" transform="translate(-405.000000, -4262.000000)">
            <g id="Make-money" transform="translate(395.000000, 4249.000000)">
                <rect id="Rectangle" x="0" y="0" width="160" height="160"></rect>
                <g id="bg" transform="translate(11.000000, 13.800000)">
                    <g transform="translate(9.811873, 4.535471)" fill="#DDECEA">
                        <circle id="Oval-2" opacity="0.382925725" cx="56.192448" cy="66.7493349" r="56.192448"></circle>
                        <ellipse id="Oval-2-Copy" opacity="0.3359375" cx="71.7786744" cy="56.4881047" rx="56.192448" ry="56.192448"></ellipse>
                    </g>
                    <g id="spread" transform="translate(0.379139, 0.323002)" stroke="#C5D7E0" stroke-width="1.2" stroke-linecap="round">
                        <path d="M24.47101,5.89591118 L21.9967849,3.42168605" id="Path-67" fill="#DAE2E6"></path>
                        <path d="M130.629566,115.021948 L128.155341,112.547723" id="Path-67-Copy" fill="#DAE2E6"></path>
                        <path d="M2.80700135,35.6678352 L5.83729589,33.9182939" id="Path-67-Copy-2" fill="#DAE2E6"></path>
                        <path d="M9.38964896,68.5810733 L12.4199435,66.8315319" id="Path-67-Copy-3" fill="#DAE2E6"></path>
                        <path d="M136.240121,28.134933 C136.240121,29.1207355 137.039271,29.9198862 138.025074,29.9198862 L138.025074,29.9198862 C139.010876,29.9198862 139.810027,29.1207355 139.810027,28.134933 C139.810027,27.1491306 139.010876,26.3499798 138.025074,26.3499798" id="Oval-22-Copy-4" stroke-linejoin="round"></path>
                        <path d="M83.5789396,1.80434257 C83.5789396,2.79014501 84.3780904,3.58929579 85.3638929,3.58929579 L85.3638929,3.58929579 C86.3496953,3.58929579 87.1488461,2.79014501 87.1488461,1.80434257 C87.1488461,0.818540124 86.3496953,0.0193893453 85.3638929,0.0193893453" id="Oval-22-Copy-5" stroke-linejoin="round"></path>
                        <ellipse id="Oval-22-Copy-7" stroke-linejoin="round" cx="134.61006" cy="81.5573796" rx="1.24123473" ry="1.24123473"></ellipse>
                        <circle id="Oval-22-Copy-9" stroke-linejoin="round" cx="53.9027269" cy="135.362269" r="1.24123473"></circle>
                        <ellipse id="Oval-22-Copy-11" stroke-linejoin="round" cx="1.24154601" cy="89.2837353" rx="1.24123473" ry="1.24123473"></ellipse>
                        <ellipse id="Oval-22-Copy-10" stroke-linejoin="round" cx="89.7726529" cy="126.394787" rx="1.24123473" ry="1.24123473"></ellipse>
                        <ellipse id="Oval-22-Copy-8" stroke-linejoin="round" cx="67.3539492" cy="45.6874536" rx="1.24123473" ry="1.24123473"></ellipse>
                    </g>
                </g>
                <polygon id="Path-12" fill="#FFFFFF" points="52.9995161 108.287317 55.7580153 79.4972819 57.4454489 75.4469173 61.0579565 73.1663184 64.1925637 72.797321 91.9529604 72.797321 89.1373155 76.2279495 87.8649105 79.3277526 84.2988083 110.61245 84.0866161 112.930472 82.5773192 116.590508 80.2843705 118.646565 77.4255758 119.282767 74.8119062 119.472131 71.9489949 118.614006 70.3742066 116.369334 69.1242558 112.158796 69.1242558 108.864015"></polygon>
                <g id="bills" transform="translate(34.000000, 72.000000)">
                    <g id="Group-4" transform="translate(69.000000, 17.000000)">
                        <mask id="mask-2" fill="white">
                            <use xlink:href="#path-1"></use>
                        </mask>
                        <use id="Path-26" fill="#E0EAEF" xlink:href="#path-1"></use>
                        <path d="M5.16073815,33.2358425 L10.3861475,8.7051496 C10.3861475,8.7051496 11.6062092,3.36993234 16.0851512,8.7051496 C20.5640931,14.0403669 10.8221213,-3.90722041 10.8221213,-3.90722041 L1.32330693,2.21208476 L-1.57226184,25.4948893 L-3.2192739,31.8701747 L5.16073815,33.2358425 Z" id="Path-29" fill="#BACED7" mask="url(#mask-2)"></path>
                        <path d="M3.89823646,23.2891736 C3.89823646,23.2891736 15.3655163,24.8820623 19.5625914,23.6454694 C23.7596664,22.4088764 32.4031602,14.0609245 32.4031602,14.0609245 L39.194296,23.5904112 L37.4178802,34.184988 L9.36164854,38.220053 L-1.34431024,35.9936793 L3.89823646,23.2891736 Z" id="Path-30" fill="#BACED7" mask="url(#mask-2)"></path>
                        <path d="M3.89823646,23.2891736 C3.89823646,23.2891736 15.3655163,24.8820623 19.5625914,23.6454694 C23.7596664,22.4088764 32.4031602,14.0609245 32.4031602,14.0609245 L39.194296,23.5904112 L37.4178802,34.184988 L22.7533369,26.1404887 L3.89823646,26.1404887 L3.89823646,23.2891736 Z" id="Path-30-Copy" fill="#849FAA" mask="url(#mask-2)"></path>
                    </g>
                    <g id="Group-3" transform="translate(41.000000, 0.000000)">
                        <mask id="mask-4" fill="white">
                            <use xlink:href="#path-3"></use>
                        </mask>
                        <use id="Path-25" fill="#E0EAEF" xlink:href="#path-3"></use>
                        <path d="M9.41539316,49.5203821 L13.0053886,15.1034784 C13.0053886,15.1034784 13.9504255,6.32124092 22.7557292,12.9733571 C31.561033,19.6254732 14.5110365,-8.1453316 14.5110365,-8.1453316 L5.16116782,0.115407247 L1.47056214,46.3031367 L-1.50398581,48.6187912 L-0.0598357589,52.2873335 L9.41539316,49.5203821 Z" id="Path-27" fill="#BACED7" mask="url(#mask-4)"></path>
                    </g>
                    <path d="M0.269213477,37.2776695 C0.269213477,37.2776695 -0.967744117,47.6223404 6.47252856,47.6223404 C13.9128012,47.6223404 15.7251893,40.8773796 15.7251893,37.5414085 C15.7251893,34.2054374 18.6110604,8.02117029 18.6110604,8.02117029 C18.6110604,8.02117029 19.5284451,0.898038279 27.09975,0.898038279 C34.6710549,0.898038279 47.1977852,0.898038279 57.3949509,0.898038279" id="Path-22" stroke="#404F54" stroke-width="1.5" stroke-linecap="round"></path>
                    <g id="Group-2" transform="translate(1.000000, 37.000000)">
                        <mask id="mask-6" fill="white">
                            <use xlink:href="#path-5"></use>
                        </mask>
                        <use id="Path-24" fill="#E0EAEF" xlink:href="#path-5"></use>
                        <rect id="Rectangle-4" fill="#BACED8" mask="url(#mask-6)" x="-3" y="6.43458791" width="50" height="10"></rect>
                    </g>
                    <path d="M85.4569331,39.75 L73.3308057,39.75" id="Path-31" stroke="#404F54" stroke-width="1.5" stroke-linecap="round"></path>
                    <path d="M87.4569331,42.75 L72.3308057,42.75" id="Path-31-Copy" stroke="#404F54" stroke-width="1.5" stroke-linecap="round"></path>
                    <path d="M24.5046456,10.1591364 L37.7176602,10.1591364" id="Path-33" stroke="#CDDDE1" stroke-width="2" stroke-linecap="round"></path>
                    <path d="M45.06,9.132 C44.9719996,9.07599972 44.8760005,9.02400024 44.772,8.976 C44.6839996,8.93199978 44.5850005,8.89100019 44.475,8.853 C44.3649994,8.81499981 44.2540006,8.7860001 44.142,8.766 L44.142,9.306 C44.1780002,9.31400004 44.2159998,9.32499993 44.256,9.339 C44.2960002,9.35300007 44.3379998,9.36599994 44.382,9.378 C44.578001,9.4380003 44.7549992,9.50399964 44.913,9.576 C45.0710008,9.64800036 45.2059994,9.73299951 45.318,9.831 C45.4300006,9.92900049 45.5159997,10.0479993 45.576,10.188 C45.6360003,10.3280007 45.666,10.497999 45.666,10.698 C45.666,10.9340012 45.6250004,11.1349992 45.543,11.301 C45.4609996,11.4670008 45.3530007,11.6029995 45.219,11.709 C45.0849993,11.8150005 44.9320009,11.8949997 44.76,11.949 C44.5879991,12.0030003 44.4100009,12.0359999 44.226,12.048 L44.226,12.774 L43.746,12.774 L43.746,12.036 C43.4699986,12.0119999 43.1960014,11.9580004 42.924,11.874 C42.6519986,11.7899996 42.4080011,11.6840006 42.192,11.556 L42.696,10.53 C42.8040005,10.5980003 42.9199994,10.6619997 43.044,10.722 C43.1480005,10.7740003 43.2689993,10.8249998 43.407,10.875 C43.5450007,10.9250003 43.6859993,10.9599999 43.83,10.98 L43.83,10.452 C43.7059994,10.4199998 43.5820006,10.3820002 43.458,10.338 C43.2699991,10.2739997 43.1080007,10.2050004 42.972,10.131 C42.8359993,10.0569996 42.7240004,9.97300047 42.636,9.879 C42.5479996,9.78499953 42.4830002,9.6780006 42.441,9.558 C42.3989998,9.4379994 42.378,9.30000078 42.378,9.144 C42.378,8.92799892 42.4139996,8.73700083 42.486,8.571 C42.5580004,8.40499917 42.6559994,8.2620006 42.78,8.142 C42.9040006,8.0219994 43.0489992,7.92600036 43.215,7.854 C43.3810008,7.78199964 43.5579991,7.7360001 43.746,7.716 L43.746,7.11 L44.226,7.11 L44.226,7.722 C44.3580007,7.73800008 44.4859994,7.76199984 44.61,7.794 C44.7340006,7.82600016 44.8529994,7.86299979 44.967,7.905 C45.0810006,7.94700021 45.1879995,7.99099977 45.288,8.037 C45.3880005,8.08300023 45.4799996,8.1259998 45.564,8.166 L45.06,9.132 Z M44.406,10.812 C44.406,10.7559997 44.3820002,10.7070002 44.334,10.665 C44.2859998,10.6229998 44.2220004,10.5860002 44.142,10.554 L44.142,10.998 C44.2380005,10.99 44.3059998,10.9700002 44.346,10.938 C44.3860002,10.9059998 44.406,10.8640003 44.406,10.812 L44.406,10.812 Z M43.59,8.952 C43.59,9.0120003 43.6099998,9.06099981 43.65,9.099 C43.6900002,9.13700019 43.7499996,9.17199984 43.83,9.204 L43.83,8.748 C43.6699992,8.7680001 43.59,8.83599942 43.59,8.952 L43.59,8.952 Z" id="$" fill="#2FC3B6"></path>
                    <path d="M43.06,21.132 C42.9719996,21.0759997 42.8760005,21.0240002 42.772,20.976 C42.6839996,20.9319998 42.5850005,20.8910002 42.475,20.853 C42.3649994,20.8149998 42.2540006,20.7860001 42.142,20.766 L42.142,21.306 C42.1780002,21.314 42.2159998,21.3249999 42.256,21.339 C42.2960002,21.3530001 42.3379998,21.3659999 42.382,21.378 C42.578001,21.4380003 42.7549992,21.5039996 42.913,21.576 C43.0710008,21.6480004 43.2059994,21.7329995 43.318,21.831 C43.4300006,21.9290005 43.5159997,22.0479993 43.576,22.188 C43.6360003,22.3280007 43.666,22.497999 43.666,22.698 C43.666,22.9340012 43.6250004,23.1349992 43.543,23.301 C43.4609996,23.4670008 43.3530007,23.6029995 43.219,23.709 C43.0849993,23.8150005 42.9320009,23.8949997 42.76,23.949 C42.5879991,24.0030003 42.4100009,24.0359999 42.226,24.048 L42.226,24.774 L41.746,24.774 L41.746,24.036 C41.4699986,24.0119999 41.1960014,23.9580004 40.924,23.874 C40.6519986,23.7899996 40.4080011,23.6840006 40.192,23.556 L40.696,22.53 C40.8040005,22.5980003 40.9199994,22.6619997 41.044,22.722 C41.1480005,22.7740003 41.2689993,22.8249998 41.407,22.875 C41.5450007,22.9250003 41.6859993,22.9599999 41.83,22.98 L41.83,22.452 C41.7059994,22.4199998 41.5820006,22.3820002 41.458,22.338 C41.2699991,22.2739997 41.1080007,22.2050004 40.972,22.131 C40.8359993,22.0569996 40.7240004,21.9730005 40.636,21.879 C40.5479996,21.7849995 40.4830002,21.6780006 40.441,21.558 C40.3989998,21.4379994 40.378,21.3000008 40.378,21.144 C40.378,20.9279989 40.4139996,20.7370008 40.486,20.571 C40.5580004,20.4049992 40.6559994,20.2620006 40.78,20.142 C40.9040006,20.0219994 41.0489992,19.9260004 41.215,19.854 C41.3810008,19.7819996 41.5579991,19.7360001 41.746,19.716 L41.746,19.11 L42.226,19.11 L42.226,19.722 C42.3580007,19.7380001 42.4859994,19.7619998 42.61,19.794 C42.7340006,19.8260002 42.8529994,19.8629998 42.967,19.905 C43.0810006,19.9470002 43.1879995,19.9909998 43.288,20.037 C43.3880005,20.0830002 43.4799996,20.1259998 43.564,20.166 L43.06,21.132 Z M42.406,22.812 C42.406,22.7559997 42.3820002,22.7070002 42.334,22.665 C42.2859998,22.6229998 42.2220004,22.5860002 42.142,22.554 L42.142,22.998 C42.2380005,22.99 42.3059998,22.9700002 42.346,22.938 C42.3860002,22.9059998 42.406,22.8640003 42.406,22.812 L42.406,22.812 Z M41.59,20.952 C41.59,21.0120003 41.6099998,21.0609998 41.65,21.099 C41.6900002,21.1370002 41.7499996,21.1719998 41.83,21.204 L41.83,20.748 C41.6699992,20.7680001 41.59,20.8359994 41.59,20.952 L41.59,20.952 Z" id="$-copy" fill="#2FC3B6"></path>
                    <path d="M42.06,30.132 C41.9719996,30.0759997 41.8760005,30.0240002 41.772,29.976 C41.6839996,29.9319998 41.5850005,29.8910002 41.475,29.853 C41.3649994,29.8149998 41.2540006,29.7860001 41.142,29.766 L41.142,30.306 C41.1780002,30.314 41.2159998,30.3249999 41.256,30.339 C41.2960002,30.3530001 41.3379998,30.3659999 41.382,30.378 C41.578001,30.4380003 41.7549992,30.5039996 41.913,30.576 C42.0710008,30.6480004 42.2059994,30.7329995 42.318,30.831 C42.4300006,30.9290005 42.5159997,31.0479993 42.576,31.188 C42.6360003,31.3280007 42.666,31.497999 42.666,31.698 C42.666,31.9340012 42.6250004,32.1349992 42.543,32.301 C42.4609996,32.4670008 42.3530007,32.6029995 42.219,32.709 C42.0849993,32.8150005 41.9320009,32.8949997 41.76,32.949 C41.5879991,33.0030003 41.4100009,33.0359999 41.226,33.048 L41.226,33.774 L40.746,33.774 L40.746,33.036 C40.4699986,33.0119999 40.1960014,32.9580004 39.924,32.874 C39.6519986,32.7899996 39.4080011,32.6840006 39.192,32.556 L39.696,31.53 C39.8040005,31.5980003 39.9199994,31.6619997 40.044,31.722 C40.1480005,31.7740003 40.2689993,31.8249998 40.407,31.875 C40.5450007,31.9250003 40.6859993,31.9599999 40.83,31.98 L40.83,31.452 C40.7059994,31.4199998 40.5820006,31.3820002 40.458,31.338 C40.2699991,31.2739997 40.1080007,31.2050004 39.972,31.131 C39.8359993,31.0569996 39.7240004,30.9730005 39.636,30.879 C39.5479996,30.7849995 39.4830002,30.6780006 39.441,30.558 C39.3989998,30.4379994 39.378,30.3000008 39.378,30.144 C39.378,29.9279989 39.4139996,29.7370008 39.486,29.571 C39.5580004,29.4049992 39.6559994,29.2620006 39.78,29.142 C39.9040006,29.0219994 40.0489992,28.9260004 40.215,28.854 C40.3810008,28.7819996 40.5579991,28.7360001 40.746,28.716 L40.746,28.11 L41.226,28.11 L41.226,28.722 C41.3580007,28.7380001 41.4859994,28.7619998 41.61,28.794 C41.7340006,28.8260002 41.8529994,28.8629998 41.967,28.905 C42.0810006,28.9470002 42.1879995,28.9909998 42.288,29.037 C42.3880005,29.0830002 42.4799996,29.1259998 42.564,29.166 L42.06,30.132 Z M41.406,31.812 C41.406,31.7559997 41.3820002,31.7070002 41.334,31.665 C41.2859998,31.6229998 41.2220004,31.5860002 41.142,31.554 L41.142,31.998 C41.2380005,31.99 41.3059998,31.9700002 41.346,31.938 C41.3860002,31.9059998 41.406,31.8640003 41.406,31.812 L41.406,31.812 Z M40.59,29.952 C40.59,30.0120003 40.6099998,30.0609998 40.65,30.099 C40.6900002,30.1370002 40.7499996,30.1719998 40.83,30.204 L40.83,29.748 C40.6699992,29.7680001 40.59,29.8359994 40.59,29.952 L40.59,29.952 Z" id="$-copy-2" fill="#2FC3B6"></path>
                    <path d="M23.1882736,22.1591364 L26.4012883,22.1591364" id="Path-33-Copy-2" stroke="#CDDDE1" stroke-width="2" stroke-linecap="round"></path>
                    <path d="M31.1882736,22.1591364 L33.4012883,22.1591364" id="Path-33-Copy-4" stroke="#CDDDE1" stroke-width="2" stroke-linecap="round"></path>
                    <path d="M21.994128,30.477118 L31.2071426,30.477118" id="Path-33-Copy-3" stroke="#CDDDE1" stroke-width="2" stroke-linecap="round"></path>
                    <polygon id="Path-14" fill="#FFFFFF" points="62.6520758 17.2455323 77.5942931 17.2455323 75.2239696 20.9133541 73.7680963 32.4767979 72.209106 41.4843365 70.3463572 47.2228891 68.4329238 47.9135987 63.9845581 48.2537102 61.082599 46.1371886 59.6190356 41.7307688 60.2786353 33.2174931"></polygon>
                    <path d="M62.6520758,17.2455323 L68.4329238,17.3948204 C68.4329238,17.3948204 61.8563241,43.181264 65.3408934,48.4830464 L61.082599,46.1371886 L59.6190356,41.7307688 L60.2786353,33.2174931 L62.6520758,17.2455323 Z" id="Path-14-Copy" fill="#EBF2F4"></path>
                    <path d="M32.2692135,37.2776695 C32.2692135,37.2776695 31.0322559,47.6223404 38.4725286,47.6223404 C45.9128012,47.6223404 47.7251893,40.8773796 47.7251893,37.5414085 C47.7251893,34.2054374 50.6110604,8.02117029 50.6110604,8.02117029 C50.6110604,8.02117029 52.4445004,-0.660202144 59.4717274,1.18706052 C66.4989543,3.03432318 63.5004855,11.6219702 63.5004855,11.6219702 C63.5004855,11.6219702 57.5769725,41.6869328 60.4781012,45.453387 C63.37923,49.2198411 66.907262,48.4566542 68.2519583,48.0394973 C69.5966547,47.6223404 72.9769301,47.6223404 75.0409198,22.1709685 C75.0409198,22.1709685 75.2792119,17.1209316 80.2023397,17.1209316 C85.1254675,17.1209316 84.7096377,22.4970169 84.7096377,22.4970169 L83.5127769,33.5792861 C83.5127769,33.5792861 82.2061404,40.7390732 87.1420942,40.1481993 C92.0780479,39.5573253 96.7505006,37.2776695 96.7505006,37.2776695 C96.7505006,37.2776695 102.295851,35.1779632 102.295851,38.0218182 C102.295851,40.8656733 98.6045514,41.750031 98.6045514,41.750031 C95.0788933,43.1293772 88.875964,42.2809109 87.1420942,43.4558001 C84.7870449,45.0516073 85.966318,47.0192986 87.7350335,47.6223404 C89.5037489,48.2253822 97.2461531,45.4525647 100.810783,46.5374526" id="Path-22-Copy" stroke="#404F54" stroke-width="1.5" stroke-linecap="round"></path>
                    <path d="M0.569460342,36.75 L31.9071897,36.75" id="Path-23" stroke="#404F54" stroke-width="1.5" stroke-linecap="round" fill="#404F54"></path>
                    <path d="M79.8938694,17 L63.3388037,17" id="Path-28" stroke="#404F54" stroke-width="1.5" stroke-linecap="round"></path>
                </g>
                <g id="cash-copy" transform="translate(110.000000, 90.325622)">
                    <path d="M15.1370977,8.12570918 C15.1370977,8.12570918 16.4652315,1.49405217 20.8408301,0.508048812 C25.2164286,-0.47795455 23.2040338,3.20103294 23.2040338,3.20103294 C23.2040338,3.20103294 25.9457507,2.47538253 25.9457507,7.64872922 C25.9457507,12.8220759 22.9940825,10.2822995 22.9940825,10.2822995 L15.1370977,8.12570918 Z" id="Path-57" stroke="#404F54" stroke-width="1.5" stroke-linecap="round" stroke-linejoin="round" fill="#85DAD2"></path>
                    <path d="M15.1370977,8.75579539 C15.1370977,8.75579539 16.1642072,3.62721747 19.5480671,2.86469386 C22.9319269,2.10217025 21.3756457,4.94730744 21.3756457,4.94730744 C21.3756457,4.94730744 23.4959466,4.38612723 23.4959466,8.38692394 C23.4959466,12.3877207 21.2132803,10.4235899 21.2132803,10.4235899 L15.1370977,8.75579539 Z" id="Path-57-Copy" fill="#2FC3B6"></path>
                    <rect id="Rectangle-5" stroke="#404F54" stroke-width="1.5" stroke-linecap="round" fill="#FF8F5C" x="13.1966897" y="5.47196393" width="6.68544141" height="5.11239638" rx="2.55619819"></rect>
                    <rect id="Rectangle-5-Copy" stroke="#404F54" stroke-width="2" stroke-linecap="round" fill="#FF8F5C" x="13.1966897" y="8.65174771" width="6.68544141" height="5.11239638" rx="2.55619819"></rect>
                    <path d="M11.0164894,30.6743783 C4.93225033,30.6743783 0,25.7421279 0,19.6578888 C0,13.5736497 4.93225033,8.64139938 11.0164894,8.64139938 C12.9157172,8.64139938 14.702694,9.12200256 16.2624368,9.96822579 C17.8221796,9.12200256 19.6091564,8.64139938 21.5083841,8.64139938 C27.5926233,8.64139938 32.5248736,13.5736497 32.5248736,19.6578888 C32.5248736,25.7421279 27.5926233,30.6743783 21.5083841,30.6743783 L11.0164894,30.6743783 Z" id="Combined-Shape" stroke="#404F54" stroke-width="1.5" stroke-linecap="round" fill="#2FC3B6"></path>
                    <path d="M10.8156583,26.2196839 C6.32291018,26.2196839 2.68081818,22.5775919 2.68081818,18.0848438 C2.68081818,13.5920956 6.32291018,9.95000361 10.8156583,9.95000361 C12.2180937,9.95000361 13.5376402,10.3048925 14.6893918,10.9297641 C15.8411433,10.3048925 17.1606898,9.95000361 18.5631252,9.95000361 C23.0558733,9.95000361 26.6979653,13.5920956 26.6979653,18.0848438 C26.6979653,22.5775919 23.0558733,26.2196839 18.5631252,26.2196839 L10.8156583,26.2196839 Z" id="Combined-Shape-Copy-4" fill="#85DAD2"></path>
                    <path d="M16.0942171,18.362548 C16.0580368,18.3203377 15.9901999,18.2690832 15.8907044,18.2087828 C15.7912088,18.1484825 15.6736248,18.0866755 15.537949,18.0233602 C15.4022732,17.9600448 15.253032,17.9027603 15.0902211,17.851505 C14.9274101,17.8002497 14.7585716,17.7655775 14.5837006,17.7474874 L14.5837006,19.3122739 L14.8098258,19.366544 C15.1233877,19.4509645 15.4083026,19.5414137 15.6645791,19.6378943 C15.9208557,19.7343748 16.1379337,19.8549738 16.3158198,19.9996946 C16.4937058,20.1444155 16.6308871,20.3177764 16.7273677,20.5197826 C16.8238483,20.7217888 16.8720878,20.9705241 16.8720878,21.2659959 C16.8720878,21.5976479 16.8132959,21.8810553 16.6957101,22.1162267 C16.5781244,22.3513981 16.4183309,22.5443564 16.2163247,22.6951073 C16.0143185,22.8458582 15.7791506,22.9589197 15.510814,23.0342951 C15.2424774,23.1096706 14.9605774,23.1533877 14.6651056,23.1654478 L14.6651056,24.1603987 L14.1224051,24.1603987 L14.1224051,23.1564028 C13.7003026,23.1262526 13.2887588,23.0403258 12.8877614,22.89862 C12.486764,22.7569141 12.1234597,22.5714933 11.7978378,22.3423519 L12.3495833,21.2659959 C12.3978236,21.3142362 12.4807354,21.3775506 12.5983211,21.4559411 C12.7159068,21.5343315 12.8576105,21.6112133 13.0234365,21.6865888 C13.1892625,21.7619642 13.3731758,21.8328161 13.5751821,21.8991465 C13.7771883,21.9654769 13.9867289,22.0107015 14.2038102,22.0348216 L14.2038102,20.4790801 C14.1495399,20.46702 14.0952703,20.4534526 14.041,20.4383776 C13.9867297,20.4233025 13.9324602,20.4067201 13.8781899,20.38863 C13.570658,20.3042095 13.3038329,20.2122528 13.0777066,20.1127572 C12.8515802,20.0132616 12.6631444,19.8956777 12.5123935,19.7600019 C12.3616426,19.6243261 12.2485811,19.4675475 12.1732057,19.2896614 C12.0978302,19.1117754 12.0601431,18.8992198 12.0601431,18.6519883 C12.0601431,18.3504865 12.1129051,18.0806464 12.2184307,17.84246 C12.3239563,17.6042736 12.468675,17.4007629 12.6525911,17.2319219 C12.8365072,17.0630809 13.0550928,16.9304221 13.3083543,16.8339415 C13.5616158,16.7374609 13.8329634,16.6771614 14.1224051,16.6530413 L14.1224051,15.7304504 L14.6651056,15.7304504 L14.6651056,16.6439963 C15.063088,16.6741465 15.4294072,16.7555507 15.7640742,16.8882115 C16.0987412,17.0208723 16.3927011,17.1746359 16.6459626,17.349507 L16.0942171,18.362548 Z M15.5424715,21.392626 C15.5424715,21.1876048 15.4580523,21.0278112 15.2892113,20.9132405 C15.1203702,20.7986698 14.8852024,20.6931458 14.5837006,20.5966652 L14.5837006,22.0529117 C15.2228844,22.0348216 15.5424715,21.8147285 15.5424715,21.392626 L15.5424715,21.392626 Z M13.3445343,18.4529981 C13.3445343,18.6580193 13.4153862,18.8132904 13.557092,18.918816 C13.6987979,19.0243417 13.9143684,19.1193133 14.2038102,19.2037338 L14.2038102,17.7384424 C13.6309567,17.7746226 13.3445343,18.0128054 13.3445343,18.4529981 L13.3445343,18.4529981 Z" id="$" fill="#FFFFFF"></path>
                    <path d="M14.5086926,12.093531 C14.5086926,12.093531 15.1896714,10.7301965 16.5394104,9.90069992" id="Path-56" stroke="#404F54" stroke-width="1.5" stroke-linecap="round"></path>
                    <path d="M23.3658475,3.08838482 C23.3658475,3.08838482 21.450987,3.50275921 19.5664712,5.53597636" id="Path-58" stroke="#404F54" stroke-width="1.5" stroke-linecap="round" fill="#85DAD2"></path>
                </g>
                <g id="Group-6" transform="translate(31.000000, 60.000000)">
                    <circle id="Oval-3" fill="#FFAF8B" cx="18.9290642" cy="18.2763378" r="16.9708851"></circle>
                    <ellipse id="Oval-3-Copy-2" fill="#FF8F5C" cx="21.0523224" cy="19.7468697" rx="13.5421742" ry="13.5421742"></ellipse>
                    <path d="M3.76350687,6.52434295 C3.23773988,7.1839781 2.75918756,7.88291265 2.33296528,8.61603125 M0.726995542,12.319384 C0.254090241,13.8958094 0,15.5668559 0,17.2972483 C0,26.8502548 7.74424185,34.5944966 17.2972483,34.5944966 L17.2972483,34.5944966 C26.8502548,34.5944966 34.5944966,26.8502548 34.5944966,17.2972483 C34.5944966,7.74424185 26.8502548,0 17.2972483,0 C14.2010188,0 11.2947956,0.813514069 8.7806642,2.23845683" id="Oval-2" stroke="#404F54" stroke-width="1.5" stroke-linecap="round"></path>
                    <path d="M20.8382888,15.4650454 C20.7782376,15.3949858 20.6656435,15.3099146 20.5005029,15.2098294 C20.3353623,15.1097442 20.1401991,15.0071584 19.9150073,14.902069 C19.6898156,14.7969795 19.4421084,14.7019 19.1718784,14.6168275 C18.9016483,14.5317551 18.6214139,14.474207 18.3311668,14.4441814 L18.3311668,17.0413796 L18.7064845,17.1314558 C19.2269276,17.2715751 19.6998231,17.4217007 20.1251852,17.581837 C20.5505474,17.7419733 20.9108487,17.9421407 21.2061001,18.1823452 C21.5013514,18.4225497 21.7290419,18.7102904 21.8891782,19.0455758 C22.0493145,19.3808613 22.1293815,19.7937066 22.1293815,20.2841241 C22.1293815,20.8345927 22.0317999,21.3049861 21.8366337,21.6953185 C21.6414676,22.0856508 21.3762457,22.4059186 21.0409603,22.6561316 C20.7056748,22.9063447 20.3153484,23.0940016 19.8699692,23.2191081 C19.42459,23.3442146 18.9566987,23.4167753 18.4662812,23.4367924 L18.4662812,25.08819 L17.5655188,25.08819 L17.5655188,23.4217797 C16.8649224,23.3717371 16.1818511,23.2291178 15.5162845,22.9939175 C14.8507178,22.7587173 14.2477135,22.4509599 13.7072534,22.0706361 L14.6230284,20.2841241 C14.7030966,20.3641923 14.8407117,20.4692801 15.0358779,20.5993909 C15.231044,20.7295017 15.4662407,20.8571084 15.741475,20.9822149 C16.0167094,21.1073214 16.3219647,21.2249198 16.6572501,21.3350135 C16.9925356,21.4451072 17.3403264,21.52017 17.7006332,21.5602041 L17.7006332,18.9780187 C17.6105565,18.9580016 17.5204812,18.9354828 17.4304045,18.9104615 C17.3403278,18.8854402 17.2502525,18.8579172 17.1601758,18.8278916 C16.6497412,18.6877723 16.2068708,18.5351447 15.8315513,18.3700041 C15.4562318,18.2048635 15.1434702,18.0097002 14.8932572,17.7845085 C14.6430441,17.5593168 14.4553872,17.2990992 14.3302807,17.0038478 C14.2051742,16.7085964 14.1426218,16.3558014 14.1426218,15.945452 C14.1426218,15.445026 14.2301951,14.9971514 14.4053442,14.6018148 C14.5804933,14.2064783 14.8206942,13.8686958 15.1259541,13.5884572 C15.431214,13.3082186 15.7940174,13.0880344 16.2143753,12.9278981 C16.6347332,12.7677618 17.0851098,12.6676781 17.5655188,12.627644 L17.5655188,11.096348 L18.4662812,11.096348 L18.4662812,12.6126313 C19.1268436,12.6626739 19.7348521,12.7977869 20.290325,13.0179743 C20.8457979,13.2381618 21.333706,13.4933753 21.7540638,13.7836224 L20.8382888,15.4650454 Z M19.9225137,20.494302 C19.9225137,20.1540123 19.7823965,19.8887904 19.5021579,19.6986285 C19.2219193,19.5084667 18.8315929,19.3333202 18.3311668,19.1731838 L18.3311668,21.5902295 C19.39207,21.560204 19.9225137,21.1948984 19.9225137,20.494302 L19.9225137,20.494302 Z M16.2744261,15.6151725 C16.2744261,15.9554622 16.3920245,16.2131777 16.6272247,16.3883269 C16.8624249,16.563476 17.2202242,16.7211078 17.7006332,16.8612271 L17.7006332,14.4291687 C16.7498237,14.4892198 16.2744261,14.8845505 16.2744261,15.6151725 L16.2744261,15.6151725 Z" id="$" fill="#FFFFFF"></path>
                    <path d="M29.4439997,36.0586671 C32.1114561,34.4590545 34.3120671,32.1608591 35.7929182,29.4169955" id="Oval-2-Copy" stroke="#404F54" stroke-width="1.5" stroke-linecap="round"></path>
                </g>
                <g id="Group-5" transform="translate(87.057808, 25.167950)">
                    <ellipse id="Oval-3" fill="#FFB08B" cx="22.6117666" cy="21.8320505" rx="20.2726183" ry="20.2726183"></ellipse>
                    <circle id="Oval-3-Copy" fill="#FF8F5C" cx="26.1146065" cy="24.5551744" r="14.647692"></circle>
                    <path d="M4.49570767,7.79367212 C3.86765123,8.58164114 3.29599522,9.41655536 2.7868502,10.2923042 M0.868434559,14.7161546 C0.303524209,16.599278 0,18.5954312 0,20.6624764 C0,32.0740469 9.25090577,41.3249527 20.6624764,41.3249527 L20.6624764,41.3249527 C32.0740469,41.3249527 41.3249527,32.0740469 41.3249527,20.6624764 C41.3249527,9.25090577 32.0740469,0 20.6624764,0 C16.9638667,0 13.4922297,0.971785507 10.488967,2.67395487" id="Oval-2" stroke="#404F54" stroke-width="1.5" stroke-linecap="round"></path>
                    <path d="M15.7730379,20.9254448 L18.2620379,20.9254448 C18.4140379,21.2484448 18.5090379,21.6094448 18.5090379,21.9894448 C18.5090379,23.0344448 17.6160379,23.9654448 16.2480379,24.5924448 L17.0080379,26.1504448 C17.7870379,25.7324448 18.5660379,25.4094448 19.2310379,25.4094448 C20.5040379,25.4094448 20.9790379,26.2644448 22.6510379,26.2644448 C23.9620379,26.2644448 24.8360379,25.8654448 25.3490379,25.3334448 L24.4560379,23.5664448 C24.1900379,23.9084448 23.5630379,24.2884448 22.7460379,24.2884448 C21.7390379,24.2884448 21.2830379,23.6044448 20.1240379,23.6044448 C19.8200379,23.6044448 19.4400379,23.6614448 19.1550379,23.7564448 C19.8960379,23.2814448 20.4850379,22.4834448 20.4850379,21.4764448 C20.4850379,21.2864448 20.4660379,21.0964448 20.4280379,20.9254448 L22.6320379,20.9254448 L22.6320379,19.5954448 L19.8390379,19.5954448 C19.3070379,18.8354448 18.6610379,18.1894448 18.6610379,17.0494448 C18.6610379,15.7764448 19.7060379,14.9784448 20.9600379,14.9784448 C21.9670379,14.9784448 22.7840379,15.6244448 23.1070379,16.4224448 L24.8740379,15.3774448 C24.1140379,13.9144448 22.6510379,13.1544448 20.7130379,13.1544448 C18.4330379,13.1544448 16.2480379,14.7314448 16.2480379,17.0114448 C16.2480379,18.1324448 16.7990379,18.8924448 17.3500379,19.5954448 L15.7730379,19.5954448 L15.7730379,20.9254448 Z" id="£" fill="#FFFFFF"></path>
                    <path d="M35.1724123,43.0739817 C38.3588298,41.1631599 40.9875758,38.4178442 42.7565305,35.1401542" id="Oval-2-Copy" stroke="#404F54" stroke-width="1.5" stroke-linecap="round"></path>
                </g>
                <path d="M30.6389641,120.75 L142.013112,120.75" id="Path-8" stroke="#404F54" stroke-width="1.5" stroke-linecap="round"></path>
            </g>
        </g>
    </g>
</svg>