<?xml version="1.0" encoding="UTF-8" standalone="no"?>
<svg width="142px" height="139px" viewBox="0 0 142 139" version="1.1" xmlns="http://www.w3.org/2000/svg" xmlns:xlink="http://www.w3.org/1999/xlink">
    <!-- Generator: Sketch 41.2 (35397) - http://www.bohemiancoding.com/sketch -->
    <title>students</title>
    <desc>Created with Sketch.</desc>
    <defs></defs>
    <g id="Page-1" stroke="none" stroke-width="1" fill="none" fill-rule="evenodd">
        <g id="teachable-brandguide-illustrations--marketing-site" transform="translate(-405.000000, -5714.000000)">
            <g id="students" transform="translate(395.000000, 5704.000000)">
                <rect id="Rectangle" x="0" y="4" width="160" height="160"></rect>
                <g id="bg" transform="translate(11.000000, 10.800000)">
                    <g transform="translate(9.811873, 4.535471)" fill="#DDECEA">
                        <circle id="Oval-2" opacity="0.382925725" cx="56.192448" cy="66.7493349" r="56.192448"></circle>
                        <ellipse id="Oval-2-Copy" opacity="0.3359375" cx="71.7786744" cy="56.4881047" rx="56.192448" ry="56.192448"></ellipse>
                    </g>
                    <g id="spread" transform="translate(0.379139, 0.323002)" stroke="#C5D7E0" stroke-width="1.2" stroke-linecap="round">
                        <path d="M24.47101,5.89591118 L21.9967849,3.42168605" id="Path-67" fill="#DAE2E6"></path>
                        <path d="M130.629566,115.021948 L128.155341,112.547723" id="Path-67-Copy" fill="#DAE2E6"></path>
                        <path d="M2.80700135,35.6678352 L5.83729589,33.9182939" id="Path-67-Copy-2" fill="#DAE2E6"></path>
                        <path d="M9.38964896,68.5810733 L12.4199435,66.8315319" id="Path-67-Copy-3" fill="#DAE2E6"></path>
                        <path d="M136.240121,28.134933 C136.240121,29.1207355 137.039271,29.9198862 138.025074,29.9198862 L138.025074,29.9198862 C139.010876,29.9198862 139.810027,29.1207355 139.810027,28.134933 C139.810027,27.1491306 139.010876,26.3499798 138.025074,26.3499798" id="Oval-22-Copy-4" stroke-linejoin="round"></path>
                        <path d="M83.5789396,1.80434257 C83.5789396,2.79014501 84.3780904,3.58929579 85.3638929,3.58929579 L85.3638929,3.58929579 C86.3496953,3.58929579 87.1488461,2.79014501 87.1488461,1.80434257 C87.1488461,0.818540124 86.3496953,0.0193893453 85.3638929,0.0193893453" id="Oval-22-Copy-5" stroke-linejoin="round"></path>
                        <ellipse id="Oval-22-Copy-7" stroke-linejoin="round" cx="134.61006" cy="81.5573796" rx="1.24123473" ry="1.24123473"></ellipse>
                        <circle id="Oval-22-Copy-9" stroke-linejoin="round" cx="53.9027269" cy="135.362269" r="1.24123473"></circle>
                        <ellipse id="Oval-22-Copy-11" stroke-linejoin="round" cx="1.24154601" cy="89.2837353" rx="1.24123473" ry="1.24123473"></ellipse>
                        <ellipse id="Oval-22-Copy-10" stroke-linejoin="round" cx="89.7726529" cy="126.394787" rx="1.24123473" ry="1.24123473"></ellipse>
                        <ellipse id="Oval-22-Copy-8" stroke-linejoin="round" cx="67.3539492" cy="45.6874536" rx="1.24123473" ry="1.24123473"></ellipse>
                    </g>
                </g>
                <g id="Group-5" transform="translate(8.959393, 0.000000)">
                    <g id="Group-3-Copy" transform="translate(64.120016, 71.415081) rotate(-27.000000) translate(-64.120016, -71.415081) translate(22.620016, 13.415081)">
                        <rect id="Rectangle-2" stroke="#404F54" stroke-width="1.5" stroke-linecap="round" fill="#FFFFFF" x="6.60804744e-13" y="19.7911647" width="82.5657363" height="95.4393387" rx="3"></rect>
                        <g id="Group-4" transform="translate(19.079917, 0.402967)">
                            <ellipse id="Oval-10-Copy-5" fill="#E0EAEF" cx="26.7882425" cy="27.0528962" rx="22.2149564" ry="22.2149564"></ellipse>
                            <circle id="Oval-10-Copy" fill="#FFFFFF" cx="22.4892105" cy="22.9455212" r="22.2149564"></circle>
                            <circle id="Oval-10-Copy-4" stroke="#404F54" stroke-width="1.5" stroke-linecap="round" cx="22.4892105" cy="22.9455212" r="22.2149564"></circle>
                            <g id="Group-6" transform="translate(11.041906, 5.993359)">
                                <ellipse id="Oval-5" stroke="#404F54" stroke-width="1.3" stroke-linecap="round" fill="#F5F6F7" cx="2.41366517" cy="19.9010696" rx="2.14570147" ry="2.13452871"></ellipse>
                                <ellipse id="Oval-5-Copy" stroke="#404F54" stroke-width="1.3" stroke-linecap="round" fill="#F5F6F7" cx="21.1022139" cy="19.9010696" rx="2.14570147" ry="2.13452871"></ellipse>
                                <rect id="Rectangle-31-Copy-8" stroke="#404F54" stroke-width="1.3" stroke-linecap="round" fill="#FF8F5C" x="3.12178596" y="23.7071968" width="17.2509681" height="7.37014343" rx="3.68507172"></rect>
                                <ellipse id="Oval-3" stroke="#404F54" stroke-width="1.3" fill="#FFA47B" cx="11.9524419" cy="4.84558455" rx="4.3222207" ry="4.3222207"></ellipse>
                                <path d="M16.0634486,3.50718682 C16.2005527,3.92859965 16.2746626,4.37843745 16.2746626,4.84558455 C16.2746626,7.23268113 14.3395385,9.16780525 11.9524419,9.16780525 C10.8754063,9.16780525 9.89038008,8.77386627 9.13359105,8.1222161 C8.99648697,7.70080328 8.92237708,7.25096547 8.92237708,6.78381837 C8.92237708,4.3967218 10.8575012,2.46159768 13.2445978,2.46159768 C14.3216334,2.46159768 15.3066596,2.85553666 16.0634486,3.50718682 Z" id="Combined-Shape" fill="#FF8F5C"></path>
                                <ellipse id="Oval-3-Copy" stroke="#404F54" stroke-width="1.3" cx="11.9524419" cy="4.84558455" rx="4.3222207" ry="4.3222207"></ellipse>
                                <rect id="Rectangle-31-Copy-10" stroke="#404F54" stroke-width="1.3" stroke-linecap="round" fill="#F5F6F7" x="9.68136351" y="26.2299594" width="4.13181301" height="7.37014343" rx="2.0659065"></rect>
                                <rect id="Rectangle-31" stroke="#404F54" stroke-width="1.3" stroke-linecap="round" fill="#FFFFFF" x="3.12178596" y="6.85577879" width="17.2509681" height="22.9294056" rx="8.62548405"></rect>
                                <polyline id="Path-35" stroke="#404F54" stroke-width="0.975" stroke-linecap="round" stroke-linejoin="round" points="10.9737014 20.7732693 10.9737014 23.2196982 11.6883823 23.2196982"></polyline>
                                <path d="M10.1572696,25.0285032 C10.1572696,25.819549 10.7985389,26.4608184 11.5895847,26.4608184 C12.3806305,26.4608184 13.0218999,25.819549 13.0218999,25.0285032" id="Oval-5-Copy-2" stroke="#FF8F5C" stroke-width="1.3" stroke-linecap="round" fill="#F5F6F7"></path>
                                <path d="M9.05835008,7.28407858 C5.61576998,8.41433014 3.12178596,11.6545423 3.12178596,15.4754023 L3.12178596,18.2870354 C3.80230499,18.1371004 6.70596226,17.4979922 10.4951329,16.673135 C14.8397547,15.7273627 16.5544796,14.2824416 16.5544796,14.2824416 C16.5544796,14.2824416 17.3645331,16.3887951 17.9627276,17.455495 C18.475417,18.3697222 19.7438585,19.7201591 19.7438585,19.7201591 L19.7438585,17.0604505 C19.7438585,17.0604505 20.0182074,17.1590064 20.3727541,17.1893385 L20.3727541,15.4754023 C20.3727541,11.8101631 18.0791088,8.67481025 14.8466127,7.42952872 C13.2768546,7.21961093 11.4611707,7.27945197 9.36970174,7.27945197 C9.26476899,7.27945197 9.16098978,7.28100541 9.05835008,7.28407858 Z" id="Combined-Shape" fill="#DAE2E6"></path>
                                <path d="M14.426039,19.994292 C14.426039,20.5444191 14.8743394,20.9903853 15.4273461,20.9903853 C15.9803528,20.9903853 16.4286532,20.5444191 16.4286532,19.994292" id="Oval-5-Copy-7" stroke="#404F54" stroke-width="0.975" stroke-linecap="round" fill="#F5F6F7" transform="translate(15.427346, 20.494292) rotate(-180.000000) translate(-15.427346, -20.494292) "></path>
                                <path d="M7.08347888,19.994292 C7.08347888,20.5444191 7.53177936,20.9903853 8.08478602,20.9903853 C8.63779267,20.9903853 9.08609315,20.5444191 9.08609315,19.994292" id="Oval-5-Copy-8" stroke="#404F54" stroke-width="0.975" stroke-linecap="round" fill="#F5F6F7" transform="translate(8.084786, 20.494292) rotate(-180.000000) translate(-8.084786, -20.494292) "></path>
                                <path d="M6.43740094,16.7711732 C6.43740094,17.6762613 7.17496036,18.4099802 8.08478602,18.4099802 C8.99461167,18.4099802 9.73217109,17.6762613 9.73217109,16.7711732" id="Oval-5-Copy-12" stroke="#404F54" stroke-width="0.975" stroke-linecap="round" transform="translate(8.084786, 17.590577) rotate(-180.000000) translate(-8.084786, -17.590577) "></path>
                                <path d="M13.5442583,16.7711732 C13.5442583,17.6762613 14.2818177,18.4099802 15.1916434,18.4099802 C16.101469,18.4099802 16.8390284,17.6762613 16.8390284,16.7711732" id="Oval-5-Copy-13" stroke="#404F54" stroke-width="0.975" stroke-linecap="round" transform="translate(15.191643, 17.590577) rotate(-180.000000) translate(-15.191643, -17.590577) "></path>
                                <path d="M17.0257884,12.1651009 C17.0257884,12.1651009 14.8907027,13.9399225 10.546081,14.8856948 C6.20145918,15.8314671 3.22628289,16.2999367 3.22628289,16.2999367 L3.02217526,18.3042778 L1.16616901,18.3042778 C1.16616901,18.3042778 0.330288995,12.5203176 1.76535176,9.98648068 C3.20041453,7.45264376 5.50112079,5.34121815 9.36970174,5.34121815 C13.2382827,5.34121815 16.1632996,5.13647958 18.3337177,6.81287518 C20.5041358,8.48927077 21.9350975,11.5288025 21.9350975,13.719095 C21.9350975,15.9093876 21.9350975,18.1078823 21.9350975,18.1078823 L20.35844,18.1078823 C20.35844,18.1078823 18.8464071,16.4699755 18.3337177,15.5557482 C17.7355232,14.4890483 17.0257884,12.1651009 17.0257884,12.1651009 Z" id="Path-54" stroke="#404F54" stroke-width="1.3" fill="#FFA47B"></path>
                                <path d="M3.35296435,16.2795322 C3.9628533,16.1801605 6.7247566,15.7175515 10.546081,14.8856948 C14.8907027,13.9399225 17.0257884,12.1651009 17.0257884,12.1651009 C17.0257884,12.1651009 17.7355232,14.4890483 18.3337177,15.5557482 C18.5839536,16.0019687 19.07226,16.6205891 19.5066268,17.1370161 C19.5066268,15.8982724 19.5066268,14.6295342 19.5066268,13.925897 C19.5066268,12.2419176 18.4064496,9.90501122 16.7377504,8.61613518 C15.0690513,7.32725915 12.8201882,7.48466987 9.84587757,7.48466987 C6.87156692,7.48466987 5.10269734,9.10801335 3.99936707,11.0561226 C3.47476294,11.9823965 3.34488248,14.2039004 3.35296435,16.2795322 Z" id="Combined-Shape" fill="#FF8F5C"></path>
                                <path d="M17.0257884,12.1651009 C17.0257884,12.1651009 14.8907027,13.9399225 10.546081,14.8856948 C6.20145918,15.8314671 3.22628289,16.2999367 3.22628289,16.2999367 L3.07091502,18.3042778 L1.16616901,18.3042778 C1.16616901,18.3042778 0.330288995,12.5203176 1.76535176,9.98648068 C3.20041453,7.45264376 5.50112079,5.34121815 9.36970174,5.34121815 C13.2382827,5.34121815 16.1632996,5.13647958 18.3337177,6.81287518 C20.5041358,8.48927077 21.9350975,11.5288025 21.9350975,13.719095 C21.9350975,15.9093876 21.9350975,18.1078823 21.9350975,18.1078823 L20.35844,18.1078823 C20.35844,18.1078823 18.8464071,16.4699755 18.3337177,15.5557482 C17.7355232,14.4890483 17.0257884,12.1651009 17.0257884,12.1651009 Z" id="Path-54-Copy-3" stroke="#404F54" stroke-width="1.3"></path>
                                <path d="M17.0257884,14.1033347 C17.0257884,14.1033347 14.8907027,15.8781563 10.546081,16.8239286 C6.20145918,17.7697009 3.22628289,18.2381705 3.22628289,18.2381705 L3.07091502,20.2425116 L1.16616901,20.2425116 C1.16616901,20.2425116 0.330288995,14.4585514 1.76535176,11.9247145 C3.20041453,9.39087758 5.50112079,7.27945197 9.36970174,7.27945197 C13.2382827,7.27945197 16.1632996,7.0747134 18.3337177,8.751109 C20.5041358,10.4275046 21.9350975,13.4670363 21.9350975,15.6573289 C21.9350975,17.8476214 21.9350975,20.0461161 21.9350975,20.0461161 L20.35844,20.0461161 C20.35844,20.0461161 18.8464071,18.4082093 18.3337177,17.4939821 C17.7355232,16.4272822 17.0257884,14.1033347 17.0257884,14.1033347 Z" id="Path-54-Copy-6"></path>
                            </g>
                        </g>
                        <path d="M27.4877287,53.601071 L56.6595685,53.601071" id="Path-93" stroke="#1EA69A" stroke-width="1.5" stroke-linecap="round" stroke-linejoin="round" fill="#F5F6F7"></path>
                        <path d="M21.990183,61.297635 L62.1571142,61.297635" id="Path-93-Copy" stroke="#C3D2DA" stroke-width="1.5" stroke-linecap="round" stroke-linejoin="round" fill="#F5F6F7"></path>
                        <rect id="Rectangle-7" fill="#E2FFFD" x="8.79607319" y="73.6671129" width="63.7715306" height="32.9852744"></rect>
                        <path d="M8.79607319,103.923555 C8.79607319,103.923555 13.5829612,103.782829 15.72069,102.768582 C18.5115718,101.444447 24.009579,88.1803029 27.4182224,86.4855346 C33.2105813,83.6055895 41.3474906,94.9558911 47.2813406,93.1584218 C52.6385061,91.5356405 60.7689888,80.5743786 64.7563129,77.3291132 C71.5584664,71.7928707 73.0645515,77.4348138 73.0645515,77.4348138 L72.5676038,106.652387 L8.79607319,106.652387 L8.79607319,103.923555 Z" id="Rectangle-7-Copy" fill="#9BE8E2"></path>
                        <path d="M11.0432123,103.331758 C21.1376691,103.331758 22.4144223,86.4405205 29.5074956,86.4405205 C36.600569,86.4405205 41.8697092,96.031992 49.607239,92.494413 C57.3447687,88.9568341 61.0453265,75.6347611 71.1154641,75.6347611" id="Path-94" stroke="#1EA69A" stroke-width="1.5" stroke-linecap="round" stroke-linejoin="round"></path>
                    </g>
                    <g id="Group-3-Copy-3" transform="translate(75.017034, 71.366026) rotate(-11.000000) translate(-75.017034, -71.366026) translate(33.517034, 13.366026)">
                        <rect id="Rectangle-2" stroke="#404F54" stroke-width="1.5" stroke-linecap="round" fill="#FFFFFF" x="-3.41060513e-13" y="19.7911647" width="82.5657363" height="95.4393387" rx="3"></rect>
                        <g id="Group-4" transform="translate(19.079917, 0.402967)">
                            <ellipse id="Oval-10-Copy-5" fill="#E0EAEF" cx="26.7882425" cy="27.0528962" rx="22.2149564" ry="22.2149564"></ellipse>
                            <circle id="Oval-10-Copy" fill="#FFFFFF" cx="22.4892105" cy="22.9455212" r="22.2149564"></circle>
                            <circle id="Oval-10-Copy-4" stroke="#404F54" stroke-width="1.5" stroke-linecap="round" cx="22.4892105" cy="22.9455212" r="22.2149564"></circle>
                            <g id="Group-6" transform="translate(11.041906, 5.993359)">
                                <ellipse id="Oval-5" stroke="#404F54" stroke-width="1.3" stroke-linecap="round" fill="#F5F6F7" cx="2.41366517" cy="19.9010696" rx="2.14570147" ry="2.13452871"></ellipse>
                                <ellipse id="Oval-5-Copy" stroke="#404F54" stroke-width="1.3" stroke-linecap="round" fill="#F5F6F7" cx="21.1022139" cy="19.9010696" rx="2.14570147" ry="2.13452871"></ellipse>
                                <rect id="Rectangle-31-Copy-8" stroke="#404F54" stroke-width="1.3" stroke-linecap="round" fill="#FF8F5C" x="3.12178596" y="23.7071968" width="17.2509681" height="7.37014343" rx="3.68507172"></rect>
                                <ellipse id="Oval-3" stroke="#404F54" stroke-width="1.3" fill="#FFA47B" cx="11.9524419" cy="4.84558455" rx="4.3222207" ry="4.3222207"></ellipse>
                                <path d="M16.0634486,3.50718682 C16.2005527,3.92859965 16.2746626,4.37843745 16.2746626,4.84558455 C16.2746626,7.23268113 14.3395385,9.16780525 11.9524419,9.16780525 C10.8754063,9.16780525 9.89038008,8.77386627 9.13359105,8.1222161 C8.99648697,7.70080328 8.92237708,7.25096547 8.92237708,6.78381837 C8.92237708,4.3967218 10.8575012,2.46159768 13.2445978,2.46159768 C14.3216334,2.46159768 15.3066596,2.85553666 16.0634486,3.50718682 Z" id="Combined-Shape" fill="#FF8F5C"></path>
                                <ellipse id="Oval-3-Copy" stroke="#404F54" stroke-width="1.3" cx="11.9524419" cy="4.84558455" rx="4.3222207" ry="4.3222207"></ellipse>
                                <rect id="Rectangle-31-Copy-10" stroke="#404F54" stroke-width="1.3" stroke-linecap="round" fill="#F5F6F7" x="9.68136351" y="26.2299594" width="4.13181301" height="7.37014343" rx="2.0659065"></rect>
                                <rect id="Rectangle-31" stroke="#404F54" stroke-width="1.3" stroke-linecap="round" fill="#FFFFFF" x="3.12178596" y="6.85577879" width="17.2509681" height="22.9294056" rx="8.62548405"></rect>
                                <polyline id="Path-35" stroke="#404F54" stroke-width="0.975" stroke-linecap="round" stroke-linejoin="round" points="10.9737014 20.7732693 10.9737014 23.2196982 11.6883823 23.2196982"></polyline>
                                <path d="M10.1572696,25.0285032 C10.1572696,25.819549 10.7985389,26.4608184 11.5895847,26.4608184 C12.3806305,26.4608184 13.0218999,25.819549 13.0218999,25.0285032" id="Oval-5-Copy-2" stroke="#FF8F5C" stroke-width="1.3" stroke-linecap="round" fill="#F5F6F7"></path>
                                <path d="M9.05835008,7.28407858 C5.61576998,8.41433014 3.12178596,11.6545423 3.12178596,15.4754023 L3.12178596,18.2870354 C3.80230499,18.1371004 6.70596226,17.4979922 10.4951329,16.673135 C14.8397547,15.7273627 16.5544796,14.2824416 16.5544796,14.2824416 C16.5544796,14.2824416 17.3645331,16.3887951 17.9627276,17.455495 C18.475417,18.3697222 19.7438585,19.7201591 19.7438585,19.7201591 L19.7438585,17.0604505 C19.7438585,17.0604505 20.0182074,17.1590064 20.3727541,17.1893385 L20.3727541,15.4754023 C20.3727541,11.8101631 18.0791088,8.67481025 14.8466127,7.42952872 C13.2768546,7.21961093 11.4611707,7.27945197 9.36970174,7.27945197 C9.26476899,7.27945197 9.16098978,7.28100541 9.05835008,7.28407858 Z" id="Combined-Shape" fill="#DAE2E6"></path>
                                <path d="M14.426039,19.994292 C14.426039,20.5444191 14.8743394,20.9903853 15.4273461,20.9903853 C15.9803528,20.9903853 16.4286532,20.5444191 16.4286532,19.994292" id="Oval-5-Copy-7" stroke="#404F54" stroke-width="0.975" stroke-linecap="round" fill="#F5F6F7" transform="translate(15.427346, 20.494292) rotate(-180.000000) translate(-15.427346, -20.494292) "></path>
                                <path d="M7.08347888,19.994292 C7.08347888,20.5444191 7.53177936,20.9903853 8.08478602,20.9903853 C8.63779267,20.9903853 9.08609315,20.5444191 9.08609315,19.994292" id="Oval-5-Copy-8" stroke="#404F54" stroke-width="0.975" stroke-linecap="round" fill="#F5F6F7" transform="translate(8.084786, 20.494292) rotate(-180.000000) translate(-8.084786, -20.494292) "></path>
                                <path d="M6.43740094,16.7711732 C6.43740094,17.6762613 7.17496036,18.4099802 8.08478602,18.4099802 C8.99461167,18.4099802 9.73217109,17.6762613 9.73217109,16.7711732" id="Oval-5-Copy-12" stroke="#404F54" stroke-width="0.975" stroke-linecap="round" transform="translate(8.084786, 17.590577) rotate(-180.000000) translate(-8.084786, -17.590577) "></path>
                                <path d="M13.5442583,16.7711732 C13.5442583,17.6762613 14.2818177,18.4099802 15.1916434,18.4099802 C16.101469,18.4099802 16.8390284,17.6762613 16.8390284,16.7711732" id="Oval-5-Copy-13" stroke="#404F54" stroke-width="0.975" stroke-linecap="round" transform="translate(15.191643, 17.590577) rotate(-180.000000) translate(-15.191643, -17.590577) "></path>
                                <path d="M17.0257884,12.1651009 C17.0257884,12.1651009 14.8907027,13.9399225 10.546081,14.8856948 C6.20145918,15.8314671 3.22628289,16.2999367 3.22628289,16.2999367 L3.02217526,18.3042778 L1.16616901,18.3042778 C1.16616901,18.3042778 0.330288995,12.5203176 1.76535176,9.98648068 C3.20041453,7.45264376 5.50112079,5.34121815 9.36970174,5.34121815 C13.2382827,5.34121815 16.1632996,5.13647958 18.3337177,6.81287518 C20.5041358,8.48927077 21.9350975,11.5288025 21.9350975,13.719095 C21.9350975,15.9093876 21.9350975,18.1078823 21.9350975,18.1078823 L20.35844,18.1078823 C20.35844,18.1078823 18.8464071,16.4699755 18.3337177,15.5557482 C17.7355232,14.4890483 17.0257884,12.1651009 17.0257884,12.1651009 Z" id="Path-54" stroke="#404F54" stroke-width="1.3" fill="#FFA47B"></path>
                                <path d="M3.35296435,16.2795322 C3.9628533,16.1801605 6.7247566,15.7175515 10.546081,14.8856948 C14.8907027,13.9399225 17.0257884,12.1651009 17.0257884,12.1651009 C17.0257884,12.1651009 17.7355232,14.4890483 18.3337177,15.5557482 C18.5839536,16.0019687 19.07226,16.6205891 19.5066268,17.1370161 C19.5066268,15.8982724 19.5066268,14.6295342 19.5066268,13.925897 C19.5066268,12.2419176 18.4064496,9.90501122 16.7377504,8.61613518 C15.0690513,7.32725915 12.8201882,7.48466987 9.84587757,7.48466987 C6.87156692,7.48466987 5.10269734,9.10801335 3.99936707,11.0561226 C3.47476294,11.9823965 3.34488248,14.2039004 3.35296435,16.2795322 Z" id="Combined-Shape" fill="#FF8F5C"></path>
                                <path d="M17.0257884,12.1651009 C17.0257884,12.1651009 14.8907027,13.9399225 10.546081,14.8856948 C6.20145918,15.8314671 3.22628289,16.2999367 3.22628289,16.2999367 L3.07091502,18.3042778 L1.16616901,18.3042778 C1.16616901,18.3042778 0.330288995,12.5203176 1.76535176,9.98648068 C3.20041453,7.45264376 5.50112079,5.34121815 9.36970174,5.34121815 C13.2382827,5.34121815 16.1632996,5.13647958 18.3337177,6.81287518 C20.5041358,8.48927077 21.9350975,11.5288025 21.9350975,13.719095 C21.9350975,15.9093876 21.9350975,18.1078823 21.9350975,18.1078823 L20.35844,18.1078823 C20.35844,18.1078823 18.8464071,16.4699755 18.3337177,15.5557482 C17.7355232,14.4890483 17.0257884,12.1651009 17.0257884,12.1651009 Z" id="Path-54-Copy-3" stroke="#404F54" stroke-width="1.3"></path>
                                <path d="M17.0257884,14.1033347 C17.0257884,14.1033347 14.8907027,15.8781563 10.546081,16.8239286 C6.20145918,17.7697009 3.22628289,18.2381705 3.22628289,18.2381705 L3.07091502,20.2425116 L1.16616901,20.2425116 C1.16616901,20.2425116 0.330288995,14.4585514 1.76535176,11.9247145 C3.20041453,9.39087758 5.50112079,7.27945197 9.36970174,7.27945197 C13.2382827,7.27945197 16.1632996,7.0747134 18.3337177,8.751109 C20.5041358,10.4275046 21.9350975,13.4670363 21.9350975,15.6573289 C21.9350975,17.8476214 21.9350975,20.0461161 21.9350975,20.0461161 L20.35844,20.0461161 C20.35844,20.0461161 18.8464071,18.4082093 18.3337177,17.4939821 C17.7355232,16.4272822 17.0257884,14.1033347 17.0257884,14.1033347 Z" id="Path-54-Copy-6"></path>
                            </g>
                        </g>
                        <path d="M27.4877287,53.601071 L56.6595685,53.601071" id="Path-93" stroke="#1EA69A" stroke-width="1.5" stroke-linecap="round" stroke-linejoin="round" fill="#F5F6F7"></path>
                        <path d="M21.990183,61.297635 L62.1571142,61.297635" id="Path-93-Copy" stroke="#C3D2DA" stroke-width="1.5" stroke-linecap="round" stroke-linejoin="round" fill="#F5F6F7"></path>
                        <rect id="Rectangle-7" fill="#E2FFFD" x="8.79607319" y="73.6671129" width="63.7715306" height="32.9852744"></rect>
                        <path d="M8.79607319,103.923555 C8.79607319,103.923555 13.5829612,103.782829 15.72069,102.768582 C18.5115718,101.444447 24.009579,88.1803029 27.4182224,86.4855346 C33.2105813,83.6055895 41.3474906,94.9558911 47.2813406,93.1584218 C52.6385061,91.5356405 60.7689888,80.5743786 64.7563129,77.3291132 C71.5584664,71.7928707 73.0645515,77.4348138 73.0645515,77.4348138 L72.5676038,106.652387 L8.79607319,106.652387 L8.79607319,103.923555 Z" id="Rectangle-7-Copy" fill="#9BE8E2"></path>
                        <path d="M11.0432123,103.331758 C21.1376691,103.331758 22.4144223,86.4405205 29.5074956,86.4405205 C36.600569,86.4405205 41.8697092,96.031992 49.607239,92.494413 C57.3447687,88.9568341 61.0453265,75.6347611 71.1154641,75.6347611" id="Path-94" stroke="#1EA69A" stroke-width="1.5" stroke-linecap="round" stroke-linejoin="round"></path>
                    </g>
                    <g id="Group-3-Copy-2" transform="translate(85.931373, 73.490856) rotate(5.000000) translate(-85.931373, -73.490856) translate(44.431373, 15.490856)">
                        <rect id="Rectangle-2" stroke="#404F54" stroke-width="1.5" stroke-linecap="round" fill="#FFFFFF" x="-2.55084842e-12" y="19.7911647" width="82.5657363" height="95.4393387" rx="3"></rect>
                        <g id="Group-4" transform="translate(19.079917, 0.402967)">
                            <ellipse id="Oval-10-Copy-5" fill="#E0EAEF" cx="26.7882425" cy="27.0528962" rx="22.2149564" ry="22.2149564"></ellipse>
                            <ellipse id="Oval-10-Copy" fill="#FFFFFF" cx="22.4892105" cy="22.9455212" rx="22.2149564" ry="22.2149564"></ellipse>
                            <ellipse id="Oval-10-Copy-4" stroke="#404F54" stroke-width="1.5" stroke-linecap="round" cx="22.4892105" cy="22.9455212" rx="22.2149564" ry="22.2149564"></ellipse>
                            <g id="Group-6" transform="translate(11.041906, 5.993359)">
                                <ellipse id="Oval-5" stroke="#404F54" stroke-width="1.3" stroke-linecap="round" fill="#F5F6F7" cx="2.41366517" cy="19.9010696" rx="2.14570147" ry="2.13452871"></ellipse>
                                <ellipse id="Oval-5-Copy" stroke="#404F54" stroke-width="1.3" stroke-linecap="round" fill="#F5F6F7" cx="21.1022139" cy="19.9010696" rx="2.14570147" ry="2.13452871"></ellipse>
                                <rect id="Rectangle-31-Copy-8" stroke="#404F54" stroke-width="1.3" stroke-linecap="round" fill="#FF8F5C" x="3.12178596" y="23.7071968" width="17.2509681" height="7.37014343" rx="3.68507172"></rect>
                                <ellipse id="Oval-3" stroke="#404F54" stroke-width="1.3" fill="#FFA47B" cx="11.9524419" cy="4.84558455" rx="4.3222207" ry="4.3222207"></ellipse>
                                <path d="M16.0634486,3.50718682 C16.2005527,3.92859965 16.2746626,4.37843745 16.2746626,4.84558455 C16.2746626,7.23268113 14.3395385,9.16780525 11.9524419,9.16780525 C10.8754063,9.16780525 9.89038008,8.77386627 9.13359105,8.1222161 C8.99648697,7.70080328 8.92237708,7.25096547 8.92237708,6.78381837 C8.92237708,4.3967218 10.8575012,2.46159768 13.2445978,2.46159768 C14.3216334,2.46159768 15.3066596,2.85553666 16.0634486,3.50718682 Z" id="Combined-Shape" fill="#FF8F5C"></path>
                                <ellipse id="Oval-3-Copy" stroke="#404F54" stroke-width="1.3" cx="11.9524419" cy="4.84558455" rx="4.3222207" ry="4.3222207"></ellipse>
                                <rect id="Rectangle-31-Copy-10" stroke="#404F54" stroke-width="1.3" stroke-linecap="round" fill="#F5F6F7" x="9.68136351" y="26.2299594" width="4.13181301" height="7.37014343" rx="2.0659065"></rect>
                                <rect id="Rectangle-31" stroke="#404F54" stroke-width="1.3" stroke-linecap="round" fill="#FFFFFF" x="3.12178596" y="6.85577879" width="17.2509681" height="22.9294056" rx="8.62548405"></rect>
                                <polyline id="Path-35" stroke="#404F54" stroke-width="0.975" stroke-linecap="round" stroke-linejoin="round" points="10.9737014 20.7732693 10.9737014 23.2196982 11.6883823 23.2196982"></polyline>
                                <path d="M10.1572696,25.0285032 C10.1572696,25.819549 10.7985389,26.4608184 11.5895847,26.4608184 C12.3806305,26.4608184 13.0218999,25.819549 13.0218999,25.0285032" id="Oval-5-Copy-2" stroke="#FF8F5C" stroke-width="1.3" stroke-linecap="round" fill="#F5F6F7"></path>
                                <path d="M9.05835008,7.28407858 C5.61576998,8.41433014 3.12178596,11.6545423 3.12178596,15.4754023 L3.12178596,18.2870354 C3.80230499,18.1371004 6.70596226,17.4979922 10.4951329,16.673135 C14.8397547,15.7273627 16.5544796,14.2824416 16.5544796,14.2824416 C16.5544796,14.2824416 17.3645331,16.3887951 17.9627276,17.455495 C18.475417,18.3697222 19.7438585,19.7201591 19.7438585,19.7201591 L19.7438585,17.0604505 C19.7438585,17.0604505 20.0182074,17.1590064 20.3727541,17.1893385 L20.3727541,15.4754023 C20.3727541,11.8101631 18.0791088,8.67481025 14.8466127,7.42952872 C13.2768546,7.21961093 11.4611707,7.27945197 9.36970174,7.27945197 C9.26476899,7.27945197 9.16098978,7.28100541 9.05835008,7.28407858 Z" id="Combined-Shape" fill="#DAE2E6"></path>
                                <path d="M14.426039,19.994292 C14.426039,20.5444191 14.8743394,20.9903853 15.4273461,20.9903853 C15.9803528,20.9903853 16.4286532,20.5444191 16.4286532,19.994292" id="Oval-5-Copy-7" stroke="#404F54" stroke-width="0.975" stroke-linecap="round" fill="#F5F6F7" transform="translate(15.427346, 20.494292) rotate(-180.000000) translate(-15.427346, -20.494292) "></path>
                                <path d="M7.08347888,19.994292 C7.08347888,20.5444191 7.53177936,20.9903853 8.08478602,20.9903853 C8.63779267,20.9903853 9.08609315,20.5444191 9.08609315,19.994292" id="Oval-5-Copy-8" stroke="#404F54" stroke-width="0.975" stroke-linecap="round" fill="#F5F6F7" transform="translate(8.084786, 20.494292) rotate(-180.000000) translate(-8.084786, -20.494292) "></path>
                                <path d="M6.43740094,16.7711732 C6.43740094,17.6762613 7.17496036,18.4099802 8.08478602,18.4099802 C8.99461167,18.4099802 9.73217109,17.6762613 9.73217109,16.7711732" id="Oval-5-Copy-12" stroke="#404F54" stroke-width="0.975" stroke-linecap="round" transform="translate(8.084786, 17.590577) rotate(-180.000000) translate(-8.084786, -17.590577) "></path>
                                <path d="M13.5442583,16.7711732 C13.5442583,17.6762613 14.2818177,18.4099802 15.1916434,18.4099802 C16.101469,18.4099802 16.8390284,17.6762613 16.8390284,16.7711732" id="Oval-5-Copy-13" stroke="#404F54" stroke-width="0.975" stroke-linecap="round" transform="translate(15.191643, 17.590577) rotate(-180.000000) translate(-15.191643, -17.590577) "></path>
                                <path d="M17.0257884,12.1651009 C17.0257884,12.1651009 14.8907027,13.9399225 10.546081,14.8856948 C6.20145918,15.8314671 3.22628289,16.2999367 3.22628289,16.2999367 L3.02217526,18.3042778 L1.16616901,18.3042778 C1.16616901,18.3042778 0.330288995,12.5203176 1.76535176,9.98648068 C3.20041453,7.45264376 5.50112079,5.34121815 9.36970174,5.34121815 C13.2382827,5.34121815 16.1632996,5.13647958 18.3337177,6.81287518 C20.5041358,8.48927077 21.9350975,11.5288025 21.9350975,13.719095 C21.9350975,15.9093876 21.9350975,18.1078823 21.9350975,18.1078823 L20.35844,18.1078823 C20.35844,18.1078823 18.8464071,16.4699755 18.3337177,15.5557482 C17.7355232,14.4890483 17.0257884,12.1651009 17.0257884,12.1651009 Z" id="Path-54" stroke="#404F54" stroke-width="1.3" fill="#FFA47B"></path>
                                <path d="M3.35296435,16.2795322 C3.9628533,16.1801605 6.7247566,15.7175515 10.546081,14.8856948 C14.8907027,13.9399225 17.0257884,12.1651009 17.0257884,12.1651009 C17.0257884,12.1651009 17.7355232,14.4890483 18.3337177,15.5557482 C18.5839536,16.0019687 19.07226,16.6205891 19.5066268,17.1370161 C19.5066268,15.8982724 19.5066268,14.6295342 19.5066268,13.925897 C19.5066268,12.2419176 18.4064496,9.90501122 16.7377504,8.61613518 C15.0690513,7.32725915 12.8201882,7.48466987 9.84587757,7.48466987 C6.87156692,7.48466987 5.10269734,9.10801335 3.99936707,11.0561226 C3.47476294,11.9823965 3.34488248,14.2039004 3.35296435,16.2795322 Z" id="Combined-Shape" fill="#FF8F5C"></path>
                                <path d="M17.0257884,12.1651009 C17.0257884,12.1651009 14.8907027,13.9399225 10.546081,14.8856948 C6.20145918,15.8314671 3.22628289,16.2999367 3.22628289,16.2999367 L3.07091502,18.3042778 L1.16616901,18.3042778 C1.16616901,18.3042778 0.330288995,12.5203176 1.76535176,9.98648068 C3.20041453,7.45264376 5.50112079,5.34121815 9.36970174,5.34121815 C13.2382827,5.34121815 16.1632996,5.13647958 18.3337177,6.81287518 C20.5041358,8.48927077 21.9350975,11.5288025 21.9350975,13.719095 C21.9350975,15.9093876 21.9350975,18.1078823 21.9350975,18.1078823 L20.35844,18.1078823 C20.35844,18.1078823 18.8464071,16.4699755 18.3337177,15.5557482 C17.7355232,14.4890483 17.0257884,12.1651009 17.0257884,12.1651009 Z" id="Path-54-Copy-3" stroke="#404F54" stroke-width="1.3"></path>
                                <path d="M17.0257884,14.1033347 C17.0257884,14.1033347 14.8907027,15.8781563 10.546081,16.8239286 C6.20145918,17.7697009 3.22628289,18.2381705 3.22628289,18.2381705 L3.07091502,20.2425116 L1.16616901,20.2425116 C1.16616901,20.2425116 0.330288995,14.4585514 1.76535176,11.9247145 C3.20041453,9.39087758 5.50112079,7.27945197 9.36970174,7.27945197 C13.2382827,7.27945197 16.1632996,7.0747134 18.3337177,8.751109 C20.5041358,10.4275046 21.9350975,13.4670363 21.9350975,15.6573289 C21.9350975,17.8476214 21.9350975,20.0461161 21.9350975,20.0461161 L20.35844,20.0461161 C20.35844,20.0461161 18.8464071,18.4082093 18.3337177,17.4939821 C17.7355232,16.4272822 17.0257884,14.1033347 17.0257884,14.1033347 Z" id="Path-54-Copy-6"></path>
                            </g>
                        </g>
                        <path d="M27.4877287,53.601071 L56.6595685,53.601071" id="Path-93" stroke="#1EA69A" stroke-width="1.5" stroke-linecap="round" stroke-linejoin="round" fill="#F5F6F7"></path>
                        <path d="M21.990183,61.297635 L62.1571142,61.297635" id="Path-93-Copy" stroke="#C3D2DA" stroke-width="1.5" stroke-linecap="round" stroke-linejoin="round" fill="#F5F6F7"></path>
                        <rect id="Rectangle-7" fill="#E2FFFD" x="8.79607319" y="73.6671129" width="63.7715306" height="32.9852744"></rect>
                        <path d="M8.79607319,103.923555 C8.79607319,103.923555 13.5829612,103.782829 15.72069,102.768582 C18.5115718,101.444447 24.009579,88.1803029 27.4182224,86.4855346 C33.2105813,83.6055895 41.3474906,94.9558911 47.2813406,93.1584218 C52.6385061,91.5356405 60.7689888,80.5743786 64.7563129,77.3291132 C71.5584664,71.7928707 73.0645515,77.4348138 73.0645515,77.4348138 L72.5676038,106.652387 L8.79607319,106.652387 L8.79607319,103.923555 Z" id="Rectangle-7-Copy" fill="#9BE8E2"></path>
                        <path d="M11.0432123,103.331758 C21.1376691,103.331758 22.4144223,86.4405205 29.5074956,86.4405205 C36.600569,86.4405205 41.8697092,96.031992 49.607239,92.494413 C57.3447687,88.9568341 61.0453265,75.6347611 71.1154641,75.6347611" id="Path-94" stroke="#1EA69A" stroke-width="1.5" stroke-linecap="round" stroke-linejoin="round"></path>
                    </g>
                </g>
                <g id="Group-4" transform="translate(34.000000, 85.891864)">
                    <ellipse id="Oval-14" fill="#404F54" opacity="0.177139946" cx="28.6734252" cy="23.2958877" rx="23.2958877" ry="23.2958877"></ellipse>
                    <ellipse id="Oval-14-Copy-3" fill="#FF9768" cx="23.3988846" cy="26.8122482" rx="23.2958877" ry="23.2958877"></ellipse>
                    <circle id="Oval-14-Copy-2" fill="#FF7F45" cx="28.4990022" cy="30.165928" r="17.3049376"></circle>
                    <path d="M3.49968477,14.6929674 C1.34468004,18.2238093 0.102996889,22.3730234 0.102996889,26.8122482 C0.102996889,39.6782117 10.5329211,50.1081359 23.3988846,50.1081359 L23.3988846,50.1081359 C36.2648482,50.1081359 46.6947724,39.6782117 46.6947724,26.8122482 C46.6947724,13.9462846 36.2648482,3.51636041 23.3988846,3.51636041 C18.808983,3.51636041 14.5291133,4.8437649 10.9222207,7.13562864 M6.26899411,11.0239352 C5.85324031,11.4747893 5.45505994,11.9420954 5.07554017,12.4247661" id="Oval-14-Copy" stroke="#404F54" stroke-width="1.5" stroke-linecap="round"></path>
                    <polyline id="Path-2" stroke="#FFFFFF" stroke-width="3" stroke-linecap="round" points="8.91095883 32.9455946 16.8761577 24.1938903 25.6864835 28.6088235 36.2542337 18.3354022"></polyline>
                    <polyline id="Path-3" stroke="#FFFFFF" stroke-width="3" stroke-linecap="round" points="29.5271695 17.6273213 36.6629213 18.4629459 35.8651313 24.8700539"></polyline>
                </g>
            </g>
        </g>
    </g>
</svg>