<svg width="142" height="139" viewBox="0 0 142 139" xmlns="http://www.w3.org/2000/svg"><title>Reports Copy 3</title><g fill="none" fill-rule="evenodd"><path d="M-10-6h160v160H-10z"/><g transform="translate(10.812 5.335)" fill="#DDECEA"><circle opacity=".383" cx="56.192" cy="66.749" r="56.192"/><ellipse opacity=".336" cx="71.779" cy="56.488" rx="56.192" ry="56.192"/></g><g transform="translate(1.38 1.123)" stroke="#C5D7E0" stroke-width="1.2" stroke-linecap="round"><path d="M24.471 5.896l-2.474-2.474m108.633 111.6l-2.475-2.474M2.807 35.668l3.03-1.75M9.39 68.581l3.03-1.75" fill="#DAE2E6"/><path d="M136.24 28.135a1.785 1.785 0 1 0 1.785-1.785M83.579 1.804A1.785 1.785 0 1 0 85.364.02" stroke-linejoin="round"/><ellipse stroke-linejoin="round" cx="134.61" cy="81.557" rx="1.241" ry="1.241"/><circle stroke-linejoin="round" cx="53.903" cy="135.362" r="1.241"/><ellipse stroke-linejoin="round" cx="1.242" cy="89.284" rx="1.241" ry="1.241"/><ellipse stroke-linejoin="round" cx="89.773" cy="126.395" rx="1.241" ry="1.241"/><ellipse stroke-linejoin="round" cx="67.354" cy="45.687" rx="1.241" ry="1.241"/></g><g transform="rotate(15 -87.336 381.01)"><path d="M.229 15.25V9.28A3.21 3.21 0 0 1 3.44 6.066h38.046a3.21 3.21 0 0 1 3.212 3.212v52.824a3.21 3.21 0 0 1-3.212 3.211H3.44a3.21 3.21 0 0 1-3.211-3.21V30.852m0-3.95v-8.359" stroke="#404F54" stroke-width="1.5" stroke-linecap="round" fill="#FFF"/><rect stroke="#404F54" stroke-width="1.5" stroke-linecap="round" fill="#FFF" x="7.829" y=".122" width="29.268" height="9.749" rx="4.874"/><rect fill="#E0EAEF" x="11.766" y="2.381" width="21.394" height="5.944" rx="2.972"/><path d="M21.317 61.606H6.473a3.21 3.21 0 0 1-3.212-3.214V6.097h38.414v52.295a3.214 3.214 0 0 1-3.212 3.214h-4.075m0 0h-13.07" stroke="#404F54" stroke-width="1.5" stroke-linecap="round" fill="#FFF"/><path d="M8.173 32.438H3.26V6.016h38.414v26.422H27.208m6.882 0H7.96" stroke="#404F54" stroke-width="1.5" stroke-linecap="round" fill="#F3FFFD"/><rect fill="#E0EAEF" x="8.176" y="36.119" width="16.077" height="2.164" rx="1.082"/><rect stroke="#E0EAEF" stroke-width="1.5" x="8.362" y="40.846" width="28.108" height="4.742" rx="2.371"/><rect fill="#E0EAEF" x="8.176" y="48.58" width="16.077" height="2.164" rx="1.082"/><rect stroke="#E0EAEF" stroke-width="1.5" x="8.362" y="53.307" width="28.108" height="4.742" rx="2.371"/><rect fill="#FFAF8B" x="15.292" y="27.071" width="14.99" height="2.164" rx="1.082"/></g><g transform="rotate(15 -129.047 431.965)"><ellipse fill="#FFF" cx="7.632" cy="7.421" rx="7.387" ry="7.387"/><ellipse fill="#FFF" cx="8.666" cy="8.454" rx="7.387" ry="7.387"/><ellipse stroke="#404F54" stroke-width="1.5" stroke-linecap="round" cx="7.632" cy="7.421" rx="7.387" ry="7.387"/><g transform="translate(3.825 1.784)"><ellipse stroke="#404F54" stroke-linecap="round" fill="#F5F6F7" cx=".803" cy="6.618" rx=".714" ry=".71"/><ellipse stroke="#404F54" stroke-linecap="round" fill="#F5F6F7" cx="7.017" cy="6.618" rx=".714" ry=".71"/><rect stroke="#404F54" stroke-linecap="round" fill="#FF8F5C" x="1.038" y="7.884" width="5.737" height="2.451" rx="1.225"/><ellipse stroke="#404F54" fill="#FFA47B" cx="3.975" cy="1.611" rx="1.437" ry="1.437"/><path d="M5.342 1.166a1.437 1.437 0 0 1-2.304 1.535 1.437 1.437 0 0 1 2.304-1.535z" fill="#FF8F5C"/><ellipse stroke="#404F54" cx="3.975" cy="1.611" rx="1.437" ry="1.437"/><rect stroke="#404F54" stroke-linecap="round" fill="#F5F6F7" x="3.219" y="8.723" width="1.374" height="2.451" rx=".687"/><rect stroke="#404F54" stroke-linecap="round" fill="#FFF" x="1.038" y="2.28" width="5.737" height="7.625" rx="2.868"/><path stroke="#404F54" stroke-width=".75" stroke-linecap="round" stroke-linejoin="round" d="M3.65 6.908v.814h.237"/><path d="M3.378 8.323a.476.476 0 1 0 .952 0" stroke="#FF8F5C" stroke-linecap="round" fill="#F5F6F7"/><path d="M3.011 2.422a2.865 2.865 0 0 0-1.973 2.719v.94c.226-.05 1.192-.262 2.452-.536 1.445-.315 2.015-.796 2.015-.796s.27.7.468 1.056c.17.304.593.753.593.753v-.885s.09.033.209.043v-.575c0-1.21-.765-2.256-1.842-2.67-.52-.07-1.123-.05-1.817-.05l-.105.001z" fill="#DAE2E6"/><path d="M5.463 6.981a.332.332 0 0 0-.333-.33.332.332 0 0 0-.333.33m-1.775 0a.332.332 0 0 0-.333-.33.332.332 0 0 0-.333.33" stroke="#404F54" stroke-width=".75" stroke-linecap="round" fill="#F5F6F7"/><path d="M3.236 6.122a.546.546 0 0 0-.547-.545.546.546 0 0 0-.548.545m3.459 0a.546.546 0 0 0-.548-.545.546.546 0 0 0-.548.545" stroke="#404F54" stroke-width=".75" stroke-linecap="round"/><path d="M5.662 4.045s-.71.59-2.155.905a46.4 46.4 0 0 1-2.434.47l-.068.667H.388S.11 4.164.588 3.32c.476-.843 1.241-1.545 2.528-1.545 1.286 0 2.259-.068 2.98.49.722.557 1.198 1.568 1.198 2.296v1.46H6.77s-.503-.545-.673-.85c-.2-.354-.435-1.127-.435-1.127z" stroke="#404F54" fill="#FFA47B"/><path d="M1.115 5.414a48.769 48.769 0 0 0 2.392-.464c1.445-.314 2.155-.905 2.155-.905s.236.773.435 1.128c.083.148.245.354.39.526V4.63c0-.56-.366-1.337-.921-1.766-.555-.428-1.303-.376-2.292-.376-.989 0-1.577.54-1.944 1.188-.174.308-.218 1.046-.215 1.737z" fill="#FF8F5C"/><path d="M5.662 4.045s-.71.59-2.155.905a46.4 46.4 0 0 1-2.434.47l-.052.667H.388S.11 4.164.588 3.32c.476-.843 1.241-1.545 2.528-1.545 1.286 0 2.259-.068 2.98.49.722.557 1.198 1.568 1.198 2.296v1.46H6.77s-.503-.545-.673-.85c-.2-.354-.435-1.127-.435-1.127z" stroke="#404F54"/><path d="M5.662 4.69s-.71.59-2.155.905c-1.445.314-2.434.47-2.434.47l-.052.666H.388s-.278-1.923.2-2.766c.476-.842 1.241-1.544 2.528-1.544 1.286 0 2.259-.068 2.98.49.722.557 1.198 1.567 1.198 2.296v1.46H6.77s-.503-.546-.673-.85c-.2-.354-.435-1.127-.435-1.127z"/></g></g><g transform="rotate(-15 168.842 -8.44)"><path d="M.229 15.25V9.28A3.21 3.21 0 0 1 3.44 6.066h38.046a3.21 3.21 0 0 1 3.212 3.212v52.824a3.21 3.21 0 0 1-3.212 3.211H3.44a3.21 3.21 0 0 1-3.211-3.21V30.852m0-3.95v-8.359" stroke="#404F54" stroke-width="1.5" stroke-linecap="round" fill="#FFF"/><rect stroke="#404F54" stroke-width="1.5" stroke-linecap="round" fill="#FFF" x="7.829" y=".122" width="29.268" height="9.749" rx="4.874"/><rect fill="#E0EAEF" x="11.766" y="2.381" width="21.394" height="5.944" rx="2.972"/><path d="M21.317 61.606H6.473a3.21 3.21 0 0 1-3.212-3.214V6.097h38.414v52.295a3.214 3.214 0 0 1-3.212 3.214h-4.075m0 0h-13.07" stroke="#404F54" stroke-width="1.5" stroke-linecap="round" fill="#FFF"/><path d="M8.173 32.438H3.26V6.016h38.414v26.422H27.208m6.882 0H7.96" stroke="#404F54" stroke-width="1.5" stroke-linecap="round" fill="#F3FFFD"/><rect fill="#E0EAEF" x="8.176" y="36.119" width="16.077" height="2.164" rx="1.082"/><rect stroke="#E0EAEF" stroke-width="1.5" x="8.362" y="40.846" width="28.108" height="4.742" rx="2.371"/><rect fill="#E0EAEF" x="8.176" y="48.58" width="16.077" height="2.164" rx="1.082"/><rect stroke="#E0EAEF" stroke-width="1.5" x="8.362" y="53.307" width="28.108" height="4.742" rx="2.371"/><rect fill="#FFAF8B" x="15.292" y="27.071" width="14.99" height="2.164" rx="1.082"/></g><g transform="rotate(-15 195.943 -68.455)"><ellipse fill="#FFF" cx="7.632" cy="7.421" rx="7.387" ry="7.387"/><ellipse fill="#FFF" cx="8.666" cy="8.454" rx="7.387" ry="7.387"/><ellipse stroke="#404F54" stroke-width="1.5" stroke-linecap="round" cx="7.632" cy="7.421" rx="7.387" ry="7.387"/><g transform="translate(3.825 1.784)"><ellipse stroke="#404F54" stroke-linecap="round" fill="#F5F6F7" cx=".803" cy="6.618" rx=".714" ry=".71"/><ellipse stroke="#404F54" stroke-linecap="round" fill="#F5F6F7" cx="7.017" cy="6.618" rx=".714" ry=".71"/><rect stroke="#404F54" stroke-linecap="round" fill="#FF8F5C" x="1.038" y="7.884" width="5.737" height="2.451" rx="1.225"/><ellipse stroke="#404F54" fill="#FFA47B" cx="3.975" cy="1.611" rx="1.437" ry="1.437"/><path d="M5.342 1.166a1.437 1.437 0 0 1-2.304 1.535 1.437 1.437 0 0 1 2.304-1.535z" fill="#FF8F5C"/><ellipse stroke="#404F54" cx="3.975" cy="1.611" rx="1.437" ry="1.437"/><rect stroke="#404F54" stroke-linecap="round" fill="#F5F6F7" x="3.219" y="8.723" width="1.374" height="2.451" rx=".687"/><rect stroke="#404F54" stroke-linecap="round" fill="#FFF" x="1.038" y="2.28" width="5.737" height="7.625" rx="2.868"/><path stroke="#404F54" stroke-width=".75" stroke-linecap="round" stroke-linejoin="round" d="M3.65 6.908v.814h.237"/><path d="M3.378 8.323a.476.476 0 1 0 .952 0" stroke="#FF8F5C" stroke-linecap="round" fill="#F5F6F7"/><path d="M3.011 2.422a2.865 2.865 0 0 0-1.973 2.719v.94c.226-.05 1.192-.262 2.452-.536 1.445-.315 2.015-.796 2.015-.796s.27.7.468 1.056c.17.304.593.753.593.753v-.885s.09.033.209.043v-.575c0-1.21-.765-2.256-1.842-2.67-.52-.07-1.123-.05-1.817-.05l-.105.001z" fill="#DAE2E6"/><path d="M5.463 6.981a.332.332 0 0 0-.333-.33.332.332 0 0 0-.333.33m-1.775 0a.332.332 0 0 0-.333-.33.332.332 0 0 0-.333.33" stroke="#404F54" stroke-width=".75" stroke-linecap="round" fill="#F5F6F7"/><path d="M3.236 6.122a.546.546 0 0 0-.547-.545.546.546 0 0 0-.548.545m3.459 0a.546.546 0 0 0-.548-.545.546.546 0 0 0-.548.545" stroke="#404F54" stroke-width=".75" stroke-linecap="round"/><path d="M5.662 4.045s-.71.59-2.155.905a46.4 46.4 0 0 1-2.434.47l-.068.667H.388S.11 4.164.588 3.32c.476-.843 1.241-1.545 2.528-1.545 1.286 0 2.259-.068 2.98.49.722.557 1.198 1.568 1.198 2.296v1.46H6.77s-.503-.545-.673-.85c-.2-.354-.435-1.127-.435-1.127z" stroke="#404F54" fill="#FFA47B"/><path d="M1.115 5.414a48.769 48.769 0 0 0 2.392-.464c1.445-.314 2.155-.905 2.155-.905s.236.773.435 1.128c.083.148.245.354.39.526V4.63c0-.56-.366-1.337-.921-1.766-.555-.428-1.303-.376-2.292-.376-.989 0-1.577.54-1.944 1.188-.174.308-.218 1.046-.215 1.737z" fill="#FF8F5C"/><path d="M5.662 4.045s-.71.59-2.155.905a46.4 46.4 0 0 1-2.434.47l-.052.667H.388S.11 4.164.588 3.32c.476-.843 1.241-1.545 2.528-1.545 1.286 0 2.259-.068 2.98.49.722.557 1.198 1.568 1.198 2.296v1.46H6.77s-.503-.545-.673-.85c-.2-.354-.435-1.127-.435-1.127z" stroke="#404F54"/><path d="M5.662 4.69s-.71.59-2.155.905c-1.445.314-2.434.47-2.434.47l-.052.666H.388s-.278-1.923.2-2.766c.476-.842 1.241-1.544 2.528-1.544 1.286 0 2.259-.068 2.98.49.722.557 1.198 1.567 1.198 2.296v1.46H6.77s-.503-.546-.673-.85c-.2-.354-.435-1.127-.435-1.127z"/></g></g><g transform="translate(35.696 11.583)"><path d="M.382 25.517v-9.991a5.371 5.371 0 0 1 5.374-5.374h63.657a5.37 5.37 0 0 1 5.374 5.373v88.383a5.37 5.37 0 0 1-5.374 5.374H5.756a5.372 5.372 0 0 1-5.374-5.372V51.62m0-6.61V31.025" stroke="#404F54" stroke-width="1.5" stroke-linecap="round" fill="#FFF"/><rect stroke="#404F54" stroke-width="1.5" stroke-linecap="round" fill="#FFF" x="13.1" y=".205" width="48.97" height="16.311" rx="8.156"/><rect fill="#E0EAEF" x="19.687" y="3.985" width="35.795" height="9.946" rx="4.973"/><path d="M35.667 103.077H10.831a5.372 5.372 0 0 1-5.375-5.378V10.2H69.73v87.498a5.378 5.378 0 0 1-5.375 5.378h-6.819m0 0H35.667" stroke="#404F54" stroke-width="1.5" stroke-linecap="round" fill="#FFF"/><path d="M13.674 54.273H5.456V10.065H69.73v44.208H45.523m11.515 0H13.319" stroke="#404F54" stroke-width="1.5" stroke-linecap="round" fill="#1CC1B6"/><path d="M14.422 33.116h-7.96V11.145h62.262v21.971H45.275m11.155 0H14.079" fill="#4FDCD3"/><rect fill="#E0EAEF" x="13.68" y="60.433" width="26.899" height="3.621" rx="1.811"/><rect stroke="#E0EAEF" stroke-width="1.5" x="13.991" y="68.342" width="47.03" height="7.935" rx="3.967"/><rect fill="#E0EAEF" x="13.68" y="81.283" width="26.899" height="3.621" rx="1.811"/><rect stroke="#E0EAEF" stroke-width="1.5" x="13.991" y="89.191" width="47.03" height="7.935" rx="3.967"/><rect fill="#FFAF8B" x="25.586" y="45.294" width="25.081" height="3.621" rx="1.811"/></g><g transform="translate(60.14 26.74)"><ellipse fill="#FFF" cx="12.77" cy="12.416" rx="12.36" ry="12.36"/><ellipse fill="#FFF" cx="14.499" cy="14.145" rx="12.36" ry="12.36"/><ellipse stroke="#404F54" stroke-width="1.5" stroke-linecap="round" cx="12.77" cy="12.416" rx="12.36" ry="12.36"/><g transform="translate(6.4 2.984)"><ellipse stroke="#404F54" stroke-linecap="round" fill="#F5F6F7" cx="1.343" cy="11.073" rx="1.194" ry="1.188"/><ellipse stroke="#404F54" stroke-linecap="round" fill="#F5F6F7" cx="11.741" cy="11.073" rx="1.194" ry="1.188"/><rect stroke="#404F54" stroke-linecap="round" fill="#FF8F5C" x="1.737" y="13.191" width="9.598" height="4.101" rx="2.05"/><ellipse stroke="#404F54" fill="#FFA47B" cx="6.65" cy="2.696" rx="2.405" ry="2.405"/><path d="M8.938 1.951A2.405 2.405 0 0 1 5.082 4.52a2.405 2.405 0 0 1 3.856-2.568z" fill="#FF8F5C"/><ellipse stroke="#404F54" cx="6.65" cy="2.696" rx="2.405" ry="2.405"/><rect stroke="#404F54" stroke-linecap="round" fill="#F5F6F7" x="5.387" y="14.594" width="2.299" height="4.101" rx="1.149"/><rect stroke="#404F54" stroke-linecap="round" fill="#FFF" x="1.737" y="3.815" width="9.598" height="12.758" rx="4.799"/><path stroke="#404F54" stroke-width=".75" stroke-linecap="round" stroke-linejoin="round" d="M6.106 11.558v1.361h.397"/><path d="M5.651 13.926a.797.797 0 1 0 1.594 0" stroke="#FF8F5C" stroke-linecap="round" fill="#F5F6F7"/><path d="M5.042 4.053A4.81 4.81 0 0 0 1.737 8.62v1.555c.379-.084 1.994-.44 4.102-.898 2.418-.526 3.372-1.33 3.372-1.33s.45 1.172.783 1.765c.286.509.991 1.26.991 1.26v-1.48s.153.055.35.072V8.62A4.805 4.805 0 0 0 8.26 4.134c-.873-.117-1.883-.084-3.047-.084-.058 0-.115.001-.171.003z" fill="#DAE2E6"/><path d="M9.14 11.681a.556.556 0 0 0-.556-.554.556.556 0 0 0-.557.554m-2.972 0a.556.556 0 0 0-.557-.554.556.556 0 0 0-.557.554" stroke="#404F54" stroke-width=".75" stroke-linecap="round" fill="#F5F6F7"/><path d="M5.415 10.243a.914.914 0 0 0-.917-.912.914.914 0 0 0-.916.912m5.788 0a.914.914 0 0 0-.917-.912.914.914 0 0 0-.917.912" stroke="#404F54" stroke-width=".75" stroke-linecap="round"/><path d="M9.473 6.769s-1.188.987-3.605 1.513c-2.418.527-4.073.787-4.073.787l-.113 1.115H.649S.184 6.966.982 5.556c.799-1.41 2.079-2.584 4.231-2.584 2.153 0 3.78-.114 4.988.819 1.207.932 2.004 2.624 2.004 3.842v2.442h-.878s-.841-.911-1.126-1.42c-.333-.593-.728-1.886-.728-1.886z" stroke="#404F54" fill="#FFA47B"/><path d="M1.866 9.058a81.347 81.347 0 0 0 4.002-.776C8.285 7.756 9.473 6.77 9.473 6.77s.395 1.293.728 1.886c.139.248.41.593.652.88V7.748c0-.937-.612-2.237-1.54-2.954-.929-.717-2.18-.63-3.835-.63-1.655 0-2.639.904-3.253 1.988-.292.515-.364 1.751-.36 2.906z" fill="#FF8F5C"/><path d="M9.473 6.769s-1.188.987-3.605 1.513c-2.418.527-4.073.787-4.073.787l-.086 1.115H.649S.184 6.966.982 5.556c.799-1.41 2.079-2.584 4.231-2.584 2.153 0 3.78-.114 4.988.819 1.207.932 2.004 2.624 2.004 3.842v2.442h-.878s-.841-.911-1.126-1.42c-.333-.593-.728-1.886-.728-1.886z" stroke="#404F54"/><path d="M9.473 7.847s-1.188.988-3.605 1.514c-2.418.526-4.073.787-4.073.787l-.086 1.115H.649S.184 8.045.982 6.635c.799-1.41 2.079-2.585 4.231-2.585 2.153 0 3.78-.114 4.988.82 1.207.932 2.004 2.623 2.004 3.842v2.442h-.878s-.841-.912-1.126-1.42c-.333-.594-.728-1.887-.728-1.887z"/></g></g><g transform="translate(77 85)"><ellipse fill="#404F54" opacity=".177" cx="23.673" cy="23.296" rx="23.296" ry="23.296"/><ellipse fill="#FF9768" cx="27.399" cy="27.812" rx="23.296" ry="23.296"/><circle fill="#FF7F45" cx="32.499" cy="31.166" r="17.305"/><path d="M7.5 15.693a23.187 23.187 0 0 0-3.397 12.12c0 12.865 10.43 23.295 23.296 23.295s23.296-10.43 23.296-23.296S40.265 4.516 27.399 4.516c-4.59 0-8.87 1.328-12.477 3.62m-4.653 3.888c-.416.45-.814.918-1.193 1.4" stroke="#404F54" stroke-width="1.5" stroke-linecap="round"/><path stroke="#FFF" stroke-width="3" stroke-linecap="round" stroke-linejoin="round" d="M31.527 17.627l7.136.836-.798 6.407m-14.202 11l-7.136-.836.798-6.407m7.333.919l6.584-5.224"/></g></g></svg>