<?xml version="1.0" encoding="UTF-8"?>
<svg width="100px" height="100px" viewBox="0 0 100 100" version="1.1" xmlns="http://www.w3.org/2000/svg" xmlns:xlink="http://www.w3.org/1999/xlink" style="background: #FFFFFF;">
    <!-- Generator: Sketch 42 (36781) - http://www.bohemiancoding.com/sketch -->
    <title>Ambition</title>
    <desc>Created with Sketch.</desc>
    <defs></defs>
    <g id="Page-1" stroke="none" stroke-width="1" fill="none" fill-rule="evenodd">
        <g id="Ambition">
            <g id="Group" transform="translate(8.555193, 8.523849)">
                <path d="M69.3130787,72.5260135 C63.042037,54.4342118 45.850149,41.444807 25.624423,41.444807 C16.5447738,41.444807 8.07652021,44.0625026 0.933183793,48.5843723 C0.933183793,48.5843723 2.45280337,58.5530428 7.79410234,65.462451 C10.6074577,69.1017569 16.3575339,74.9768125 23.0609001,78.5687036 C29.7642664,82.1605948 35.9857359,82.945463 40.3821196,82.945463 C55.5575623,82.945463 63.042037,76.7779181 69.3130787,72.5260135 Z" id="Oval-Copy" stroke="#404F54" stroke-width="2" stroke-linecap="round" stroke-linejoin="round" fill="#FF8F5C"></path>
                <path d="M40.3821196,81.8060027 C58.5762063,81.8060027 64.8239288,70.2657672 64.8239288,52.0716805 C64.8239288,33.8775939 50.0747074,19.1283724 31.8806207,19.1283724 C13.6865341,19.1283724 0.569456381,26.8571497 0.569456381,45.0512364 C0.569456381,63.2453231 22.1880329,81.8060027 40.3821196,81.8060027 Z" id="Oval-3" fill="#E0EAEF"></path>
                <path d="M69.3130787,72.5260135 C63.042037,54.4342118 45.850149,41.444807 25.624423,41.444807 C16.5447738,41.444807 8.07652021,44.0625026 0.933183793,48.5843723 C0.933183793,48.5843723 2.45280337,58.5530428 7.79410234,65.462451 C10.6074577,69.1017569 16.3575339,74.9768125 23.0609001,78.5687036 C29.7642664,82.1605948 35.9857359,82.945463 40.3821196,82.945463 C55.5575623,82.945463 63.042037,76.7779181 69.3130787,72.5260135 Z" id="Oval" stroke="#404F54" stroke-width="2" stroke-linecap="round" stroke-linejoin="round" fill="#FF8F5C"></path>
                <ellipse id="Oval-2" fill="#DD7749" cx="22.3164345" cy="59.5104921" rx="4.25074943" ry="4.25074943"></ellipse>
                <path d="M68.1812781,72.5861456 C62.0884342,55.0084402 45.5385314,42.4976054 25.8875392,42.4976054 C17.0658972,42.4976054 9.05261297,44.7075215 2.11226145,49.1008978 C2.11226145,49.1008978 11.4072931,46.8268332 16.5509397,46.8268332 C35.8607576,46.8268332 51.7375114,61.5255279 53.6028675,80.3445836 C60.0858657,78.233342 64.2934571,75.222174 68.1812781,72.5861456 Z" id="Combined-Shape" fill="#FFAB85"></path>
                <ellipse id="Oval-2-Copy" fill="#DD7749" cx="46.8143664" cy="56.630313" rx="1.37057036" ry="1.37057036"></ellipse>
                <ellipse id="Oval-2-Copy-2" fill="#DD7749" cx="30.9395924" cy="64.3024319" rx="2.10729691" ry="2.10729691"></ellipse>
                <ellipse id="Oval-2-Copy-3" fill="#DD7749" cx="62.8202132" cy="71.7412434" rx="2.10729691" ry="2.10729691"></ellipse>
                <path d="M68.1831027,9.93061779 C60.9632632,3.79720182 51.6119428,0.0968814224 41.3963663,0.0968814224 C18.5337845,0.0968814224 0,18.6306659 0,41.4932477 C0,64.3558295 18.5337845,82.8896139 41.3963663,82.8896139 L41.3963663,82.8896139 C64.258948,82.8896139 82.7927325,64.3558295 82.7927325,41.4932477 C82.7927325,34.801466 81.2049278,28.480536 78.3855154,22.8866547 M75.6985042,18.3121006 C75.0432243,17.3443488 74.3480668,16.4058024 73.6153914,15.4988207" id="Oval-8" stroke="#404F54" stroke-width="2" stroke-linecap="round" stroke-linejoin="round"></path>
                <path d="M37.6265135,18.3293522 C37.6265135,18.3293522 41.6512696,15.7365986 48.4811742,20.8304945 C55.3110789,25.9243904 56.8566998,24.4550269 56.8566998,24.4550269 C55.7893865,28.2759191 53.4634988,37.8522853 45.0613598,33.0731434 C36.6592209,28.2940014 37.6265135,31.6703132 37.6265135,31.6703132" id="Path-7" stroke="#404F54" stroke-width="2" stroke-linecap="round" stroke-linejoin="round" fill="#2FC3B6"></path>
                <path d="M37.5049511,47.3723124 L37.5049511,18.2605611" id="Path-6" stroke="#404F54" stroke-width="2" stroke-linecap="round" stroke-linejoin="round" fill="#FFFFFF"></path>
                <path d="M41.843905,25.0764757 C41.843905,25.0764757 44.6099208,24.2493306 47.4849814,26.7768661 C50.3600421,29.3044017 51.9810869,27.4023226 51.9810869,27.4023226" id="Path-8" stroke="#FFFFFF" stroke-width="2" stroke-linecap="round" stroke-linejoin="round"></path>
                <ellipse id="Oval-9" fill="#2FC3B6" cx="71.7313967" cy="34.5373391" rx="1.59403104" ry="1.59403104"></ellipse>
                <circle id="Oval-9-Copy" fill="#2FC3B6" cx="18.0656851" cy="23.3791219" r="1.06268736"></circle>
                <circle id="Oval-9-Copy-2" fill="#2FC3B6" cx="28.6925587" cy="12.7522483" r="1.06268736"></circle>
                <circle id="Oval-9-Copy-3" fill="#2FC3B6" cx="49.9463058" cy="44.632869" r="1.06268736"></circle>
                <ellipse id="Oval-9-Copy-4" fill="#2FC3B6" cx="55.7910863" cy="39.8507759" rx="1.59403104" ry="1.59403104"></ellipse>
                <circle id="Oval-9-Copy-5" fill="#2FC3B6" cx="76.5134898" cy="49.9463058" r="1.06268736"></circle>
                <ellipse id="Oval-9-Copy-6" fill="#2FC3B6" cx="23.3791219" cy="28.6925587" rx="1.06268736" ry="1.06268736"></ellipse>
                <ellipse id="Oval-9-Copy-7" fill="#2FC3B6" cx="8.50149886" cy="37.1940575" rx="1.06268736" ry="1.06268736"></ellipse>
                <ellipse id="Oval-9-Copy-8" fill="#2FC3B6" cx="51.0089932" cy="6.37612415" rx="1.06268736" ry="1.06268736"></ellipse>
            </g>
        </g>
    </g>
</svg>