<svg width="278" height="260" viewBox="0 0 278 260" xmlns="http://www.w3.org/2000/svg"><title>illustration</title><g fill="none" fill-rule="evenodd"><g transform="translate(19.622 8.945)" fill="#DDECEA"><ellipse opacity=".39" cx="106.692" cy="125.887" rx="106.692" ry="105.977"/><ellipse opacity=".336" cx="136.286" cy="106.535" rx="106.692" ry="105.977"/></g><g transform="translate(1.712 1)" stroke="#C5D7E0" stroke-width="2" stroke-linecap="round"><path d="M69.247 22.435L64.55 17.77m183.475 199.157l-4.697-4.666M5.33 67.268l5.753-3.3m6.745 65.373l5.754-3.3" fill="#DAE2E6"/><path d="M258.678 53.061c0 1.86 1.517 3.367 3.39 3.367 1.87 0 3.388-1.507 3.388-3.367 0-1.859-1.517-3.366-3.389-3.366M158.69 3.403c0 1.86 1.518 3.366 3.39 3.366s3.389-1.507 3.389-3.366c0-1.86-1.517-3.366-3.39-3.366" stroke-linejoin="round"/><ellipse stroke-linejoin="round" cx="255.583" cy="153.814" rx="2.357" ry="2.341"/><ellipse stroke-linejoin="round" cx="102.345" cy="255.288" rx="2.357" ry="2.341"/><ellipse stroke-linejoin="round" cx="2.357" cy="168.386" rx="2.357" ry="2.341"/><ellipse stroke-linejoin="round" cx="170.451" cy="238.376" rx="2.357" ry="2.341"/><ellipse stroke-linejoin="round" cx="127.884" cy="86.165" rx="2.357" ry="2.341"/></g><g transform="rotate(12 -149.52 285.591)"><rect stroke="#404F54" stroke-width="1.5" stroke-linecap="round" fill="#404F54" opacity=".15" x="5.009" y="86.197" width="117.915" height="77.581" rx="8"/><rect stroke="#404F54" stroke-width="1.5" stroke-linecap="round" fill="#404F54" opacity=".15" x="3.762" y="10.461" width="117.915" height="77.581" rx="8"/><rect stroke="#404F54" stroke-width="1.5" stroke-linecap="round" fill="#FFF" x=".422" y="81.057" width="117.915" height="77.581" rx="8"/><rect fill="#F5F8F9" x="8.558" y="91.289" width="100.798" height="36.891" rx="1"/><g transform="translate(14.264 97.945)" fill="#8A999D"><rect x="20.92" y="22.822" width="40.89" height="3.804" rx="1.902"/><path d="M13.313 24.724c0-1.05.85-1.902 1.907-1.902h1.552a1.902 1.902 0 0 1 0 3.804H15.22a1.9 1.9 0 0 1-1.907-1.902zM0 24.724c0-1.05.85-1.902 1.907-1.902h1.552a1.902 1.902 0 0 1 0 3.804H1.907A1.9 1.9 0 0 1 0 24.724zM0 1.902C0 .852.85 0 1.907 0h1.552a1.902 1.902 0 0 1 0 3.804H1.907A1.9 1.9 0 0 1 0 1.902zm0 17.116c0-1.05.845-1.901 1.905-1.901h8.212c1.052 0 1.905.844 1.905 1.901 0 1.05-.845 1.902-1.905 1.902H1.905A1.899 1.899 0 0 1 0 19.018zM83.681 7.607c0-1.05.85-1.901 1.907-1.901h1.552a1.902 1.902 0 0 1 0 3.804h-1.552a1.9 1.9 0 0 1-1.907-1.903zm-6.656 11.411c0-1.05.845-1.901 1.905-1.901h8.212c1.052 0 1.905.844 1.905 1.901 0 1.05-.845 1.902-1.905 1.902H78.93a1.899 1.899 0 0 1-1.905-1.902zm-13.313 5.706c0-1.05.85-1.902 1.907-1.902h1.552a1.902 1.902 0 0 1 0 3.804h-1.552a1.9 1.9 0 0 1-1.907-1.902zm-50.399-5.706c0-1.05.85-1.901 1.907-1.901h1.552a1.902 1.902 0 0 1 0 3.804H15.22a1.9 1.9 0 0 1-1.907-1.903zm53.252 0c0-1.05.85-1.901 1.906-1.901h1.552a1.902 1.902 0 0 1 0 3.804h-1.552a1.9 1.9 0 0 1-1.906-1.903zm-13.313 0c0-1.05.85-1.901 1.907-1.901h1.552a1.902 1.902 0 0 1 0 3.804h-1.552a1.9 1.9 0 0 1-1.907-1.903zm4.754-5.705c0-1.05.85-1.902 1.907-1.902h1.552a1.902 1.902 0 0 1 0 3.804h-1.552a1.9 1.9 0 0 1-1.907-1.902zM15.215 7.607c0-1.05.85-1.901 1.907-1.901h1.552a1.902 1.902 0 0 1 0 3.804h-1.552a1.9 1.9 0 0 1-1.907-1.903zm19.969 0c0-1.05.85-1.901 1.907-1.901h1.552a1.902 1.902 0 0 1 0 3.804h-1.552a1.9 1.9 0 0 1-1.907-1.903zM19.97 1.902C19.97.852 20.82 0 21.875 0h1.552a1.902 1.902 0 0 1 0 3.804h-1.552a1.9 1.9 0 0 1-1.907-1.902zm39.938 0c0-1.05.85-1.902 1.907-1.902h1.552a1.902 1.902 0 0 1 0 3.804h-1.552a1.9 1.9 0 0 1-1.907-1.902zm13.313 0c0-1.05.85-1.902 1.907-1.902h1.552a1.902 1.902 0 0 1 0 3.804h-1.552a1.9 1.9 0 0 1-1.907-1.902z"/></g><path d="M20.92 122.67c0-1.051.85-1.903 1.907-1.903h1.552a1.902 1.902 0 0 1 0 3.804h-1.552a1.9 1.9 0 0 1-1.907-1.902zm-6.656-11.412c0-1.05.845-1.902 1.903-1.902h6.314c1.05 0 1.903.844 1.903 1.902 0 1.05-.845 1.902-1.903 1.902h-6.314a1.898 1.898 0 0 1-1.903-1.902zm0-5.705c0-1.05.848-1.902 1.91-1.902h3.448a1.901 1.901 0 1 1 0 3.804h-3.449a1.901 1.901 0 0 1-1.91-1.902zm78.926 5.705a1.9 1.9 0 0 1 1.904-1.902h6.313c1.052 0 1.904.844 1.904 1.902a1.9 1.9 0 0 1-1.904 1.902h-6.313a1.898 1.898 0 0 1-1.903-1.902zm2.853-11.411c0-1.05.848-1.902 1.91-1.902h3.448a1.901 1.901 0 1 1 0 3.804h-3.448a1.901 1.901 0 0 1-1.91-1.902zM84.632 122.67c0-1.051.85-1.903 1.907-1.903h1.552a1.902 1.902 0 0 1 0 3.804h-1.552a1.9 1.9 0 0 1-1.907-1.902zm13.313 0c0-1.051.85-1.903 1.907-1.903h1.552a1.902 1.902 0 0 1 0 3.804h-1.552a1.9 1.9 0 0 1-1.907-1.902zm-6.656 0c0-1.051.85-1.903 1.907-1.903h1.551a1.902 1.902 0 0 1 0 3.804h-1.551a1.9 1.9 0 0 1-1.907-1.902zm-57.056-5.706c0-1.05.85-1.902 1.907-1.902h1.552a1.902 1.902 0 0 1 0 3.804H36.14a1.9 1.9 0 0 1-1.907-1.902zm13.313 0c0-1.05.85-1.902 1.907-1.902h1.552a1.902 1.902 0 0 1 0 3.804h-1.552a1.9 1.9 0 0 1-1.907-1.902zm-6.656 0c0-1.05.85-1.902 1.907-1.902h1.552a1.902 1.902 0 0 1 0 3.804h-1.552a1.9 1.9 0 0 1-1.907-1.902zm19.97 0c0-1.05.85-1.902 1.906-1.902h1.552a1.902 1.902 0 0 1 0 3.804h-1.552a1.9 1.9 0 0 1-1.907-1.902zm-6.657 0c0-1.05.85-1.902 1.906-1.902h1.552a1.902 1.902 0 0 1 0 3.804H56.11a1.9 1.9 0 0 1-1.906-1.902zm19.969 0c0-1.05.85-1.902 1.907-1.902h1.552a1.902 1.902 0 0 1 0 3.804h-1.552a1.9 1.9 0 0 1-1.907-1.902zm-41.841-5.706c0-1.05.85-1.902 1.907-1.902h1.552a1.902 1.902 0 0 1 0 3.804h-1.552a1.9 1.9 0 0 1-1.907-1.902zm-6.656 0c0-1.05.85-1.902 1.907-1.902h1.552a1.902 1.902 0 0 1 0 3.804h-1.552a1.9 1.9 0 0 1-1.907-1.902zm19.969 0c0-1.05.85-1.902 1.907-1.902h1.552a1.902 1.902 0 0 1 0 3.804h-1.552a1.9 1.9 0 0 1-1.907-1.902zm-6.656 0c0-1.05.85-1.902 1.907-1.902h1.552a1.902 1.902 0 0 1 0 3.804h-1.552a1.9 1.9 0 0 1-1.907-1.902zm19.969 0c0-1.05.85-1.902 1.907-1.902h1.552a1.902 1.902 0 0 1 0 3.804h-1.552a1.9 1.9 0 0 1-1.907-1.902zm-6.657 0c0-1.05.851-1.902 1.908-1.902h1.552a1.902 1.902 0 0 1 0 3.804h-1.552a1.9 1.9 0 0 1-1.907-1.902zm26.627 0c0-1.05.85-1.902 1.907-1.902h1.551a1.902 1.902 0 0 1 0 3.804h-1.551a1.9 1.9 0 0 1-1.907-1.902zm6.656 0c0-1.05.85-1.902 1.907-1.902h1.552a1.902 1.902 0 0 1 0 3.804H87.49a1.9 1.9 0 0 1-1.907-1.902zm-19.969 0c0-1.05.85-1.902 1.907-1.902h1.552a1.902 1.902 0 0 1 0 3.804H67.52a1.9 1.9 0 0 1-1.907-1.902zm-42.792-5.705c0-1.05.85-1.902 1.907-1.902h1.552a1.902 1.902 0 0 1 0 3.804h-1.552a1.9 1.9 0 0 1-1.907-1.902zm19.97 0c0-1.05.85-1.902 1.906-1.902h1.552a1.902 1.902 0 0 1 0 3.804h-1.552a1.9 1.9 0 0 1-1.906-1.902zm-6.657 0c0-1.05.85-1.902 1.907-1.902h1.552a1.902 1.902 0 0 1 0 3.804h-1.552a1.9 1.9 0 0 1-1.907-1.902zm19.97 0c0-1.05.85-1.902 1.906-1.902h1.552a1.902 1.902 0 0 1 0 3.804h-1.552a1.9 1.9 0 0 1-1.906-1.902zm13.312 0c0-1.05.85-1.902 1.907-1.902h1.552a1.902 1.902 0 0 1 0 3.804h-1.552a1.9 1.9 0 0 1-1.907-1.902zm6.657 0c0-1.05.85-1.902 1.907-1.902h1.552a1.902 1.902 0 0 1 0 3.804H77.98a1.9 1.9 0 0 1-1.907-1.902zm6.656 0c0-1.05.85-1.902 1.907-1.902h1.552a1.902 1.902 0 0 1 0 3.804h-1.552a1.9 1.9 0 0 1-1.907-1.902zm6.657 0c0-1.05.85-1.902 1.907-1.902h1.552a1.902 1.902 0 0 1 0 3.804h-1.552a1.9 1.9 0 0 1-1.907-1.902zm-26.626 0c0-1.05.85-1.902 1.907-1.902h1.552a1.902 1.902 0 0 1 0 3.804h-1.552a1.9 1.9 0 0 1-1.907-1.902zm-35.184-5.706c0-1.05.85-1.902 1.907-1.902h1.552a1.902 1.902 0 0 1 0 3.804h-1.552a1.9 1.9 0 0 1-1.907-1.902zm-6.657 0c0-1.05.85-1.902 1.907-1.902h1.552a1.902 1.902 0 0 1 0 3.804h-1.552a1.9 1.9 0 0 1-1.907-1.902zm19.97 0c0-1.05.85-1.902 1.907-1.902h1.552a1.902 1.902 0 0 1 0 3.804h-1.552a1.9 1.9 0 0 1-1.907-1.902zm13.313 0c0-1.05.85-1.902 1.906-1.902h1.552a1.902 1.902 0 0 1 0 3.804H56.11a1.9 1.9 0 0 1-1.906-1.902zm-6.657 0c0-1.05.85-1.902 1.907-1.902h1.552a1.902 1.902 0 0 1 0 3.804h-1.552a1.9 1.9 0 0 1-1.907-1.902zm19.97 0c0-1.05.85-1.902 1.906-1.902h1.552a1.902 1.902 0 0 1 0 3.804h-1.552a1.9 1.9 0 0 1-1.906-1.902zm13.313 0c0-1.05.85-1.902 1.906-1.902h1.552a1.902 1.902 0 0 1 0 3.804h-1.552a1.9 1.9 0 0 1-1.906-1.902zm-19.969 0c0-1.05.85-1.902 1.906-1.902h1.552a1.902 1.902 0 0 1 0 3.804h-1.552a1.9 1.9 0 0 1-1.907-1.902z" fill="#E0EAEF"/><rect fill="#E9F2F6" x="41.763" y="131.042" width="34.389" height="21.298" rx="1"/><path d="M99.847 80.145h10.067c4.423 0 8-3.582 8-8.002V8.306a8.003 8.003 0 0 0-8-8.002H8c-4.423 0-8 3.583-8 8.002v63.837a8.003 8.003 0 0 0 8 8.002h11.018v6.39h80.829v-6.39z" fill="#C8DDE7"/><path d="M0 21.2v5.302m0 6.816V73.31a6.828 6.828 0 0 0 6.828 6.834h12.19v6.39h80.829v-6.39h11.24c3.764 0 6.828-3.063 6.828-6.841V7.145a6.83 6.83 0 0 0-6.828-6.841H6.827A6.834 6.834 0 0 0 0 7.134v9.444" stroke="#404F54" stroke-width="1.5" stroke-linecap="round"/><path stroke="#404F54" stroke-width="1.5" stroke-linecap="round" fill="#F1F4F7" d="M5.706 8.143h106.503v64.953H5.706z"/><path d="M37.82 20.251h21.82m6.696 0h21.48" stroke="#C8DDE7" stroke-width="2" stroke-linecap="round" stroke-linejoin="round"/><path d="M37.82 26.251h11.23m3.01 0h22.294m4.218 0h9.244m-49.996 6h29.995" stroke="#DEEBF1" stroke-width="2" stroke-linecap="round" stroke-linejoin="round"/><path fill="#FFF" d="M6.165 8.879h21.323v63.605H6.165z"/><path fill="#23C4B7" d="M6.165 8.879h21.323v27.344H6.165z"/><g transform="translate(5.706 8.143)"><rect fill="#E0EAEF" x="3.097" y="32.669" width="15.858" height="2.29" rx="1.145"/><rect fill="#E0EAEF" x="3.097" y="36.472" width="11.104" height="2.29" rx="1.145"/><g transform="translate(3.515 7.71)"><ellipse fill="#FFF" cx="7.728" cy="7.514" rx="7.48" ry="7.48"/><ellipse fill="#FFF" cx="8.774" cy="8.56" rx="7.48" ry="7.48"/><ellipse stroke="#404F54" stroke-width=".825" stroke-linecap="round" cx="7.728" cy="7.514" rx="7.48" ry="7.48"/><g transform="translate(3.873 1.806)"><ellipse stroke="#404F54" stroke-width=".55" stroke-linecap="round" fill="#F5F6F7" cx=".813" cy="6.701" rx=".722" ry=".719"/><ellipse stroke="#404F54" stroke-width=".55" stroke-linecap="round" fill="#F5F6F7" cx="7.105" cy="6.701" rx=".722" ry=".719"/><rect stroke="#404F54" stroke-width=".55" stroke-linecap="round" fill="#FF8F5C" x="1.051" y="7.982" width="5.808" height="2.482" rx="1.241"/><ellipse stroke="#404F54" stroke-width=".55" fill="#FFA47B" cx="4.024" cy="1.632" rx="1.455" ry="1.455"/><path d="M5.409 1.18a1.455 1.455 0 0 1-2.333 1.554A1.455 1.455 0 0 1 5.408 1.18z" fill="#FF8F5C"/><ellipse stroke="#404F54" stroke-width=".55" cx="4.024" cy="1.632" rx="1.455" ry="1.455"/><rect stroke="#404F54" stroke-width=".55" stroke-linecap="round" fill="#F5F6F7" x="3.26" y="8.832" width="1.391" height="2.482" rx=".696"/><rect stroke="#404F54" stroke-width=".55" stroke-linecap="round" fill="#FFF" x="1.051" y="2.308" width="5.808" height="7.72" rx="2.904"/><path stroke="#404F54" stroke-width=".5" stroke-linecap="round" stroke-linejoin="round" d="M3.695 6.994v.824h.24"/><path d="M3.42 8.427a.482.482 0 1 0 .965 0" stroke="#FF8F5C" stroke-width=".55" stroke-linecap="round" fill="#F5F6F7"/><path d="M3.05 2.453a2.901 2.901 0 0 0-2 2.752v.952c.23-.05 1.207-.265 2.483-.543 1.463-.319 2.04-.805 2.04-.805s.273.71.474 1.068c.173.308.6.763.6.763v-.896s.092.033.212.044v-.583a2.909 2.909 0 0 0-1.865-2.704c-.528-.07-1.138-.05-1.84-.05-.036 0-.071 0-.106.002z" fill="#DAE2E6"/><path d="M5.532 7.069a.336.336 0 0 0-.338-.336.336.336 0 0 0-.337.336m-1.797 0a.336.336 0 0 0-.338-.336.336.336 0 0 0-.337.336" stroke="#404F54" stroke-width=".5" stroke-linecap="round" fill="#F5F6F7"/><path d="M3.277 6.199a.553.553 0 0 0-.555-.552.553.553 0 0 0-.555.552m3.503 0a.553.553 0 0 0-.555-.552.553.553 0 0 0-.555.552" stroke="#404F54" stroke-width=".5" stroke-linecap="round"/><path d="M5.733 4.096s-.72.598-2.182.916c-1.463.319-2.465.476-2.465.476l-.068.675H.393s-.282-1.947.201-2.8c.484-.854 1.258-1.565 2.56-1.565 1.303 0 2.288-.069 3.019.496.73.564 1.213 1.588 1.213 2.325v1.478h-.531s-.51-.552-.682-.86c-.201-.358-.44-1.141-.44-1.141z" stroke="#404F54" stroke-width=".55" fill="#FFA47B"/><path d="M1.129 5.481a48.872 48.872 0 0 0 2.422-.469c1.463-.318 2.182-.916 2.182-.916s.239.783.44 1.142c.084.15.249.358.395.532V4.69c0-.567-.37-1.354-.932-1.788-.562-.434-1.32-.38-2.32-.38-1.002 0-1.598.546-1.97 1.202-.176.312-.22 1.06-.217 1.758z" fill="#FF8F5C"/><path d="M5.733 4.096s-.72.598-2.182.916c-1.463.319-2.465.476-2.465.476l-.052.675H.393s-.282-1.947.201-2.8c.484-.854 1.258-1.565 2.56-1.565 1.303 0 2.288-.069 3.019.496.73.564 1.213 1.588 1.213 2.325v1.478h-.531s-.51-.552-.682-.86c-.201-.358-.44-1.141-.44-1.141z" stroke="#404F54" stroke-width=".55"/><path d="M5.733 4.749s-.72.597-2.182.916a47.8 47.8 0 0 1-2.465.476l-.052.675H.393s-.282-1.948.201-2.8c.484-.854 1.258-1.565 2.56-1.565 1.303 0 2.288-.069 3.019.496.73.564 1.213 1.587 1.213 2.325V6.75h-.531s-.51-.552-.682-.86c-.201-.359-.44-1.141-.44-1.141z"/></g></g></g></g><g transform="rotate(-20 308.043 -440.546)"><rect stroke="#ADBCC1" stroke-width="1.5" stroke-linecap="round" fill="#FFF" x=".844" y=".41" width="67.119" height="87.626" rx="3"/><path d="M9.895 20l2.965-8.52h2.132L17.945 20h-2.373l-.515-1.67h-2.274L12.28 20H9.895zm3.24-3.229h1.547l-.756-2.636-.791 2.636z" fill="#23C4B7"/><path fill="#C8DDE7" d="M10 46h21v13H10zm25 0h21v13H35z"/><path d="M25.191 12h23.994" stroke="#C8DDE7" stroke-width="2" stroke-linecap="round" stroke-linejoin="round"/><path d="M25.191 18h13.994" stroke="#E9F1F4" stroke-width="2" stroke-linecap="round" stroke-linejoin="round"/><path d="M10.191 27h21.818m6.697 0h21.479" stroke="#C8DDE7" stroke-width="2" stroke-linecap="round" stroke-linejoin="round"/><path d="M10.191 33h11.228m3.01 0h22.295m4.218 0h9.243m-49.994 6h29.994" stroke="#E9F1F4" stroke-width="2" stroke-linecap="round" stroke-linejoin="round"/><path d="M10.191 66h21.818m6.697 0h12.092" stroke="#C8DDE7" stroke-width="2" stroke-linecap="round" stroke-linejoin="round"/><path d="M10.191 72h29.994" stroke="#E9F1F4" stroke-width="2" stroke-linecap="round" stroke-linejoin="round"/></g><path d="M248.409 92.1l10.972 47.527a3 3 0 0 1-2.24 3.604l-59.566 13.752a2.993 2.993 0 0 1-3.589-2.241L175.62 75.19a2.992 2.992 0 0 1 2.243-3.587L237.43 57.85a2.994 2.994 0 0 1 3.59 2.246l5.406 23.417m.69 2.987l.353 1.53" stroke="#404F54" stroke-width="1.5" stroke-linecap="round" fill="#FFF"/><path d="M188.173 89.327l.972-8.968 2.079-.48 4.794 7.637-2.313.534-.878-1.51-2.215.51-.115 1.741-2.324.536zm2.431-3.874l1.507-.348-1.33-2.4-.177 2.748z" fill="#23C4B7"/><path fill="#C8DDE7" d="M194.124 114.637l20.462-4.724 2.925 12.667-20.462 4.724zm24.36-5.623l20.461-4.724 2.925 12.666-20.462 4.724z"/><path d="M201.278 78.092l23.38-5.398" stroke="#C8DDE7" stroke-width="2" stroke-linecap="round" stroke-linejoin="round"/><path d="M202.627 83.938l13.636-3.148" stroke="#E9F1F4" stroke-width="2" stroke-linecap="round" stroke-linejoin="round"/><path d="M190.036 96.081l21.26-4.908" stroke="#FF8F5C" stroke-width="2" stroke-linecap="round" stroke-linejoin="round"/><path stroke="#C8DDE7" stroke-width="2" stroke-linecap="round" stroke-linejoin="round" d="M217.82 89.667l7.63-1.762 4.153-.958 9.146-2.112"/><path d="M191.386 101.928l10.94-2.526m2.934-.677l21.723-5.015m4.11-.95l9.006-2.079m-47.363 17.093l29.225-6.747" stroke="#E9F1F4" stroke-width="2" stroke-linecap="round" stroke-linejoin="round"/><path d="M198.81 134.082l21.258-4.908m6.526-1.507l7.63-1.761 4.152-.959" stroke="#C8DDE7" stroke-width="2" stroke-linecap="round" stroke-linejoin="round"/><path d="M200.16 139.928l29.225-6.747" stroke="#23C4B7" stroke-width="2" stroke-linecap="round" stroke-linejoin="round"/><g transform="rotate(75 1.99 217.63)"><path d="M34.858 59.606c16.403 0 29.7-13.297 29.7-29.7S51.262.206 34.859.206s-29.7 13.297-29.7 29.7 13.297 29.7 29.7 29.7z" fill="#404F54" opacity=".135"/><circle stroke="#404F54" stroke-width="1.5" stroke-linecap="round" fill="#F3F8F8" cx="29.7" cy="33.7" r="29.7"/><circle fill="#C8DDE7" cx="33.427" cy="31.79" r="16.787"/><path d="M32.283 16.856C40.468 18.1 46.74 25.168 46.74 33.7c0 9.411-7.629 17.04-17.04 17.04-9.41 0-17.039-7.629-17.039-17.04 0-8.532 6.272-15.6 14.457-16.844V13.96a2.576 2.576 0 0 1 2.582-2.58 2.582 2.582 0 0 1 2.583 2.581v2.896z" stroke="#404F54" stroke-width="1.5" stroke-linecap="round" fill="#FFF"/><circle fill="#FF8F5C" cx="29.7" cy="33.7" r="13.129"/><path d="M39.09 33.7a9.364 9.364 0 0 0-2.966-6.849m-6.424-2.54a9.43 9.43 0 0 0-1.935.199" stroke="#FFF" stroke-width="4" stroke-linecap="round" stroke-linejoin="round" opacity=".504"/></g><g transform="rotate(54 23.259 322.203)" stroke-width="1.5" stroke-linecap="round"><path d="M7.328 31.698a2.495 2.495 0 0 1 3.527 0l3.995 3.995c.974.974 1.11 2.67.296 3.796l-4.586 6.35c-.811 1.123-2.123 1.127-2.937 0l-4.586-6.35c-.81-1.123-.677-2.824.296-3.796l3.995-3.995z" stroke="#404F54" fill="#FFF"/><rect stroke="#404F54" fill="#FF8F5C" x="2.635" y=".418" width="13.501" height="37.944" rx="6.751"/><path d="M5.526 7.576a3.857 3.857 0 0 1 3.86-3.856m2.2 33.705V7.502M6.15 37.425V11.913" stroke="#FFF"/></g><path stroke="#404F54" stroke-width="1.5" stroke-linecap="round" stroke-linejoin="round" fill="#404F54" opacity=".135" d="M136.164 114l-3.042 28.906 9.58-4.97 6.696 16.019 10.382-5.838-8.728-14.46 10.455-4.443z"/><path stroke="#404F54" stroke-width="1.5" stroke-linecap="round" stroke-linejoin="round" fill="#FFF" d="M144.164 111l-3.042 28.906 9.58-4.97 6.696 16.019 10.382-5.838-8.728-14.46 10.455-4.443z"/><path fill="#FF8F5C" d="M143.752 111.56l-2.63 28.346 9.58-4.97 6.696 16.019 10.382-5.838-8.728-14.46 6.39-2.39z"/><path stroke="#404F54" stroke-width="1.5" stroke-linecap="round" stroke-linejoin="round" d="M144.164 111l-3.042 28.906 9.58-4.97 6.696 16.019 10.382-5.838-8.728-14.46 10.455-4.443z"/></g></svg>