<svg width="236" height="231" viewBox="0 0 236 231" xmlns="http://www.w3.org/2000/svg" xmlns:xlink="http://www.w3.org/1999/xlink"><title>illustration</title><defs><rect id="a" x="22.228" y="11.597" width="13.53" height="25.127" rx="6"/><mask id="b" x="0" y="0" width="13.53" height="25.127" fill="#fff"><use xlink:href="#a"/></mask></defs><g fill="none" fill-rule="evenodd"><g transform="translate(17.353 8.56)" fill="#DDECEA"><circle opacity=".619" cx="93.654" cy="111.249" r="93.654"/><ellipse opacity=".336" cx="119.631" cy="94.147" rx="93.654" ry="93.654"/></g><g transform="translate(1.632 1.538)" stroke="#D3DFE5" stroke-width="2" stroke-linecap="round"><path d="M60.785 19.827l-4.124-4.124m161.055 176l-4.124-4.123M4.678 59.446l5.05-2.916m5.922 57.772l5.05-2.916" fill="#DAE2E6"/><path d="M227.067 46.892a2.975 2.975 0 1 0 2.975-2.975m-90.744-40.91a2.975 2.975 0 1 0 2.975-2.975" stroke-linejoin="round"/><ellipse stroke-linejoin="round" cx="224.35" cy="135.929" rx="2.069" ry="2.069"/><circle stroke-linejoin="round" cx="89.838" cy="225.604" r="2.069"/><ellipse stroke-linejoin="round" cx="2.069" cy="148.806" rx="2.069" ry="2.069"/><ellipse stroke-linejoin="round" cx="149.621" cy="210.658" rx="2.069" ry="2.069"/><ellipse stroke-linejoin="round" cx="112.257" cy="76.146" rx="2.069" ry="2.069"/></g><g transform="rotate(15 -161.914 640.451)"><path d="M.402 26.8V16.305a5.641 5.641 0 0 1 5.643-5.644h66.858a5.64 5.64 0 0 1 5.643 5.644v92.825a5.64 5.64 0 0 1-5.643 5.644H6.045a5.642 5.642 0 0 1-5.643-5.642V54.216m0-6.943V32.585" stroke="#404F54" stroke-width="1.5" stroke-linecap="round" fill="#FFF"/><rect stroke="#404F54" stroke-width="1.5" stroke-linecap="round" fill="#FFF" x="13.758" y=".215" width="51.431" height="17.131" rx="8.566"/><rect fill="#E0EAEF" x="20.677" y="4.185" width="37.594" height="10.446" rx="5.223"/><path d="M37.46 108.258H11.375a5.642 5.642 0 0 1-5.645-5.648V10.714h67.505v91.896c0 3.12-2.53 5.648-5.645 5.648h-7.162m0 0H37.46" stroke="#404F54" stroke-width="1.5" stroke-linecap="round" fill="#FFF"/><path d="M14.361 57.002h-8.63v-46.43h67.504v46.43H47.812m12.093 0H13.989" stroke="#404F54" stroke-width="1.5" stroke-linecap="round" fill="#F3FFFD"/><rect fill="#E0EAEF" x="14.368" y="63.471" width="28.252" height="3.803" rx="1.902"/><rect stroke="#E0EAEF" stroke-width="1.5" x="14.694" y="71.777" width="49.394" height="8.334" rx="4.167"/><rect fill="#E0EAEF" x="14.368" y="85.369" width="28.252" height="3.803" rx="1.902"/><rect stroke="#E0EAEF" stroke-width="1.5" x="14.694" y="93.675" width="49.394" height="8.334" rx="4.167"/><rect fill="#FFAF8B" x="26.873" y="47.571" width="26.342" height="3.803" rx="1.902"/></g><g transform="rotate(15 -235.21 729.994)"><ellipse fill="#FFF" cx="13.412" cy="13.04" rx="12.982" ry="12.982"/><ellipse fill="#FFF" cx="15.228" cy="14.857" rx="12.982" ry="12.982"/><ellipse stroke="#404F54" stroke-width="1.5" stroke-linecap="round" cx="13.412" cy="13.04" rx="12.982" ry="12.982"/><g transform="translate(6.722 3.134)"><ellipse stroke="#404F54" stroke-linecap="round" fill="#F5F6F7" cx="1.41" cy="11.629" rx="1.254" ry="1.247"/><ellipse stroke="#404F54" stroke-linecap="round" fill="#F5F6F7" cx="12.331" cy="11.629" rx="1.254" ry="1.247"/><rect stroke="#404F54" stroke-linecap="round" fill="#FF8F5C" x="1.824" y="13.854" width="10.081" height="4.307" rx="2.153"/><ellipse stroke="#404F54" fill="#FFA47B" cx="6.985" cy="2.832" rx="2.526" ry="2.526"/><path d="M9.387 2.05a2.526 2.526 0 0 1-4.05 2.697 2.526 2.526 0 0 1 4.05-2.697z" fill="#FF8F5C"/><ellipse stroke="#404F54" cx="6.985" cy="2.832" rx="2.526" ry="2.526"/><rect stroke="#404F54" stroke-linecap="round" fill="#F5F6F7" x="5.657" y="15.328" width="2.414" height="4.307" rx="1.207"/><rect stroke="#404F54" stroke-linecap="round" fill="#FFF" x="1.824" y="4.006" width="10.081" height="13.399" rx="5.04"/><path stroke="#404F54" stroke-width=".75" stroke-linecap="round" stroke-linejoin="round" d="M6.413 12.14v1.429h.417"/><path d="M5.936 14.626a.837.837 0 0 0 1.674 0" stroke="#FF8F5C" stroke-linecap="round" fill="#F5F6F7"/><path d="M5.295 4.257a5.052 5.052 0 0 0-3.47 4.796v1.633c.397-.087 2.094-.46 4.308-.943 2.539-.553 3.54-1.397 3.54-1.397s.474 1.231.824 1.854c.3.535 1.04 1.324 1.04 1.324V9.97s.16.057.368.075v-.992c0-2.15-1.34-3.984-3.23-4.712-.917-.122-1.978-.087-3.2-.087-.06 0-.12 0-.18.003z" fill="#DAE2E6"/><path d="M9.6 12.268a.584.584 0 0 0-.585-.582.584.584 0 0 0-.585.582m-3.12 0a.584.584 0 0 0-.586-.582.584.584 0 0 0-.585.582" stroke="#404F54" stroke-width=".75" stroke-linecap="round" fill="#F5F6F7"/><path d="M5.687 10.758a.96.96 0 0 0-.963-.958.96.96 0 0 0-.962.958m6.078 0a.96.96 0 0 0-.963-.958.96.96 0 0 0-.962.958" stroke="#404F54" stroke-width=".75" stroke-linecap="round"/><path d="M9.95 7.109s-1.248 1.037-3.787 1.59a83.74 83.74 0 0 1-4.278.826l-.119 1.171H.681s-.488-3.38.35-4.86c.84-1.48 2.184-2.715 4.444-2.715 2.261 0 3.97-.12 5.239.86 1.268.98 2.104 2.756 2.104 4.036v2.565h-.921s-.884-.958-1.183-1.492c-.35-.623-.765-1.981-.765-1.981z" stroke="#404F54" fill="#FFA47B"/><path d="M1.96 9.513A85.7 85.7 0 0 0 6.162 8.7c2.539-.553 3.786-1.59 3.786-1.59s.415 1.358.765 1.981c.146.261.431.622.685.924V8.138c0-.984-.643-2.35-1.618-3.103-.975-.753-2.29-.661-4.027-.661-1.739 0-2.772.948-3.417 2.087-.306.541-.382 1.84-.378 3.052z" fill="#FF8F5C"/><path d="M9.95 7.109s-1.248 1.037-3.787 1.59a83.74 83.74 0 0 1-4.278.826l-.09 1.171H.68s-.488-3.38.35-4.86c.84-1.48 2.184-2.715 4.444-2.715 2.261 0 3.97-.12 5.239.86 1.268.98 2.104 2.756 2.104 4.036v2.565h-.921s-.884-.958-1.183-1.492c-.35-.623-.765-1.981-.765-1.981z" stroke="#404F54"/><path d="M9.95 8.241S8.701 9.28 6.162 9.831c-2.54.553-4.278.827-4.278.827l-.09 1.171H.68s-.488-3.38.35-4.86c.84-1.481 2.184-2.715 4.444-2.715 2.261 0 3.97-.12 5.239.86 1.268.98 2.104 2.756 2.104 4.036v2.564h-.921s-.884-.957-1.183-1.491c-.35-.623-.765-1.982-.765-1.982z"/></g></g><g transform="rotate(-15 297.325 15.447)"><path d="M.402 26.8V16.305a5.641 5.641 0 0 1 5.643-5.644h66.858a5.64 5.64 0 0 1 5.643 5.644v92.825a5.64 5.64 0 0 1-5.643 5.644H6.045a5.642 5.642 0 0 1-5.643-5.642V54.216m0-6.943V32.585" stroke="#404F54" stroke-width="1.5" stroke-linecap="round" fill="#FFF"/><rect stroke="#404F54" stroke-width="1.5" stroke-linecap="round" fill="#FFF" x="13.758" y=".215" width="51.431" height="17.131" rx="8.566"/><rect fill="#E0EAEF" x="20.677" y="4.185" width="37.594" height="10.446" rx="5.223"/><path d="M37.46 108.258H11.375a5.642 5.642 0 0 1-5.645-5.648V10.714h67.505v91.896c0 3.12-2.53 5.648-5.645 5.648h-7.162m0 0H37.46" stroke="#404F54" stroke-width="1.5" stroke-linecap="round" fill="#FFF"/><path d="M14.361 57.002h-8.63v-46.43h67.504v46.43H47.812m12.093 0H13.989" stroke="#404F54" stroke-width="1.5" stroke-linecap="round" fill="#F3FFFD"/><rect fill="#E0EAEF" x="14.368" y="63.471" width="28.252" height="3.803" rx="1.902"/><rect stroke="#E0EAEF" stroke-width="1.5" x="14.694" y="71.777" width="49.394" height="8.334" rx="4.167"/><rect fill="#E0EAEF" x="14.368" y="85.369" width="28.252" height="3.803" rx="1.902"/><rect stroke="#E0EAEF" stroke-width="1.5" x="14.694" y="93.675" width="49.394" height="8.334" rx="4.167"/><rect fill="#FFAF8B" x="26.873" y="47.571" width="26.342" height="3.803" rx="1.902"/></g><g transform="rotate(-15 344.949 -90.015)"><ellipse fill="#FFF" cx="13.412" cy="13.04" rx="12.982" ry="12.982"/><ellipse fill="#FFF" cx="15.228" cy="14.857" rx="12.982" ry="12.982"/><ellipse stroke="#404F54" stroke-width="1.5" stroke-linecap="round" cx="13.412" cy="13.04" rx="12.982" ry="12.982"/><g transform="translate(6.722 3.134)"><ellipse stroke="#404F54" stroke-linecap="round" fill="#F5F6F7" cx="1.41" cy="11.629" rx="1.254" ry="1.247"/><ellipse stroke="#404F54" stroke-linecap="round" fill="#F5F6F7" cx="12.331" cy="11.629" rx="1.254" ry="1.247"/><rect stroke="#404F54" stroke-linecap="round" fill="#FF8F5C" x="1.824" y="13.854" width="10.081" height="4.307" rx="2.153"/><ellipse stroke="#404F54" fill="#FFA47B" cx="6.985" cy="2.832" rx="2.526" ry="2.526"/><path d="M9.387 2.05a2.526 2.526 0 0 1-4.05 2.697 2.526 2.526 0 0 1 4.05-2.697z" fill="#FF8F5C"/><ellipse stroke="#404F54" cx="6.985" cy="2.832" rx="2.526" ry="2.526"/><rect stroke="#404F54" stroke-linecap="round" fill="#F5F6F7" x="5.657" y="15.328" width="2.414" height="4.307" rx="1.207"/><rect stroke="#404F54" stroke-linecap="round" fill="#FFF" x="1.824" y="4.006" width="10.081" height="13.399" rx="5.04"/><path stroke="#404F54" stroke-width=".75" stroke-linecap="round" stroke-linejoin="round" d="M6.413 12.14v1.429h.417"/><path d="M5.936 14.626a.837.837 0 0 0 1.674 0" stroke="#FF8F5C" stroke-linecap="round" fill="#F5F6F7"/><path d="M5.295 4.257a5.052 5.052 0 0 0-3.47 4.796v1.633c.397-.087 2.094-.46 4.308-.943 2.539-.553 3.54-1.397 3.54-1.397s.474 1.231.824 1.854c.3.535 1.04 1.324 1.04 1.324V9.97s.16.057.368.075v-.992c0-2.15-1.34-3.984-3.23-4.712-.917-.122-1.978-.087-3.2-.087-.06 0-.12 0-.18.003z" fill="#DAE2E6"/><path d="M9.6 12.268a.584.584 0 0 0-.585-.582.584.584 0 0 0-.585.582m-3.12 0a.584.584 0 0 0-.586-.582.584.584 0 0 0-.585.582" stroke="#404F54" stroke-width=".75" stroke-linecap="round" fill="#F5F6F7"/><path d="M5.687 10.758a.96.96 0 0 0-.963-.958.96.96 0 0 0-.962.958m6.078 0a.96.96 0 0 0-.963-.958.96.96 0 0 0-.962.958" stroke="#404F54" stroke-width=".75" stroke-linecap="round"/><path d="M9.95 7.109s-1.248 1.037-3.787 1.59a83.74 83.74 0 0 1-4.278.826l-.119 1.171H.681s-.488-3.38.35-4.86c.84-1.48 2.184-2.715 4.444-2.715 2.261 0 3.97-.12 5.239.86 1.268.98 2.104 2.756 2.104 4.036v2.565h-.921s-.884-.958-1.183-1.492c-.35-.623-.765-1.981-.765-1.981z" stroke="#404F54" fill="#FFA47B"/><path d="M1.96 9.513A85.7 85.7 0 0 0 6.162 8.7c2.539-.553 3.786-1.59 3.786-1.59s.415 1.358.765 1.981c.146.261.431.622.685.924V8.138c0-.984-.643-2.35-1.618-3.103-.975-.753-2.29-.661-4.027-.661-1.739 0-2.772.948-3.417 2.087-.306.541-.382 1.84-.378 3.052z" fill="#FF8F5C"/><path d="M9.95 7.109s-1.248 1.037-3.787 1.59a83.74 83.74 0 0 1-4.278.826l-.09 1.171H.68s-.488-3.38.35-4.86c.84-1.48 2.184-2.715 4.444-2.715 2.261 0 3.97-.12 5.239.86 1.268.98 2.104 2.756 2.104 4.036v2.565h-.921s-.884-.958-1.183-1.492c-.35-.623-.765-1.981-.765-1.981z" stroke="#404F54"/><path d="M9.95 8.241S8.701 9.28 6.162 9.831c-2.54.553-4.278.827-4.278.827l-.09 1.171H.68s-.488-3.38.35-4.86c.84-1.481 2.184-2.715 4.444-2.715 2.261 0 3.97-.12 5.239.86 1.268.98 2.104 2.756 2.104 4.036v2.564h-.921s-.884-.957-1.183-1.491c-.35-.623-.765-1.982-.765-1.982z"/></g></g><g transform="translate(74.132 49.254)"><path d="M.48 32.085V19.522a6.754 6.754 0 0 1 6.757-6.757h80.044a6.753 6.753 0 0 1 6.756 6.757v111.132a6.753 6.753 0 0 1-6.756 6.757H7.237a6.755 6.755 0 0 1-6.756-6.754V64.909m0-8.313V39.012" stroke="#404F54" stroke-width="1.5" stroke-linecap="round" fill="#FFF"/><rect stroke="#404F54" stroke-width="1.5" stroke-linecap="round" fill="#FFF" x="16.472" y=".257" width="61.575" height="20.51" rx="9"/><rect fill="#E0EAEF" x="24.755" y="5.01" width="45.009" height="12.506" rx="6.253"/><path d="M44.848 129.609h-31.23a6.755 6.755 0 0 1-6.758-6.762V12.827h80.82v110.02a6.762 6.762 0 0 1-6.759 6.762h-8.574m0 0H44.848" stroke="#404F54" stroke-width="1.5" stroke-linecap="round" fill="#FFF"/><path d="M17.194 68.243H6.86V12.656h80.82v55.587H57.24m14.479 0H16.748" stroke="#404F54" stroke-width="1.5" stroke-linecap="round" fill="#F4FFFE"/><rect fill="#E0EAEF" x="17.201" y="75.989" width="33.823" height="4.553" rx="2.277"/><rect stroke="#E0EAEF" stroke-width="1.5" x="17.592" y="85.933" width="59.136" height="9.977" rx="4.989"/><rect fill="#E0EAEF" x="17.201" y="102.205" width="33.823" height="4.553" rx="2.277"/><rect stroke="#E0EAEF" stroke-width="1.5" x="17.592" y="112.149" width="59.136" height="9.977" rx="4.989"/><rect fill="#FFAF8B" x="32.173" y="56.953" width="31.537" height="4.553" rx="2.277"/></g><g transform="translate(104.868 68.313)"><ellipse fill="#FFF" cx="16.057" cy="15.612" rx="15.542" ry="15.542"/><ellipse fill="#FFF" cx="18.231" cy="17.787" rx="15.542" ry="15.542"/><ellipse stroke="#404F54" stroke-width="1.5" stroke-linecap="round" cx="16.057" cy="15.612" rx="15.542" ry="15.542"/><g transform="translate(8.048 3.752)"><ellipse stroke="#404F54" stroke-linecap="round" fill="#F5F6F7" cx="1.689" cy="13.923" rx="1.501" ry="1.493"/><ellipse stroke="#404F54" stroke-linecap="round" fill="#F5F6F7" cx="14.763" cy="13.923" rx="1.501" ry="1.493"/><rect stroke="#404F54" stroke-linecap="round" fill="#FF8F5C" x="2.184" y="16.586" width="12.069" height="5.156" rx="2.578"/><ellipse stroke="#404F54" fill="#FFA47B" cx="8.362" cy="3.39" rx="3.024" ry="3.024"/><path d="M11.238 2.454A3.024 3.024 0 0 1 6.39 5.683a3.024 3.024 0 0 1 4.848-3.229z" fill="#FF8F5C"/><ellipse stroke="#404F54" cx="8.362" cy="3.39" rx="3.024" ry="3.024"/><rect stroke="#404F54" stroke-linecap="round" fill="#F5F6F7" x="6.773" y="18.351" width="2.891" height="5.156" rx="1.445"/><rect stroke="#404F54" stroke-linecap="round" fill="#FFF" x="2.184" y="4.796" width="12.069" height="16.042" rx="6.034"/><path stroke="#404F54" stroke-width=".75" stroke-linecap="round" stroke-linejoin="round" d="M7.677 14.533v1.712h.5"/><path d="M7.106 17.51a1.002 1.002 0 0 0 2.004 0" stroke="#FF8F5C" stroke-linecap="round" fill="#F5F6F7"/><path d="M6.34 5.096a6.048 6.048 0 0 0-4.156 5.742v1.956c.476-.105 2.508-.552 5.159-1.13 3.04-.66 4.239-1.672 4.239-1.672s.566 1.474.985 2.22c.359.64 1.246 1.584 1.246 1.584v-1.86s.192.069.44.09v-1.188a6.042 6.042 0 0 0-3.867-5.64c-1.098-.147-2.368-.105-3.83-.105a7.28 7.28 0 0 0-.217.003z" fill="#DAE2E6"/><path d="M11.494 14.688a.699.699 0 0 0-.7-.697.698.698 0 0 0-.701.697m-3.736 0a.699.699 0 0 0-.7-.697.698.698 0 0 0-.701.697" stroke="#404F54" stroke-width=".75" stroke-linecap="round" fill="#F5F6F7"/><path d="M6.809 12.88a1.15 1.15 0 0 0-1.153-1.147 1.15 1.15 0 0 0-1.152 1.147m7.276 0a1.15 1.15 0 0 0-1.152-1.147 1.15 1.15 0 0 0-1.152 1.147" stroke="#404F54" stroke-width=".75" stroke-linecap="round"/><path d="M11.911 8.51s-1.493 1.243-4.533 1.904a99.32 99.32 0 0 1-5.12.99l-.144 1.402H.816s-.585-4.047.42-5.82c1.003-1.772 2.613-3.25 5.32-3.25 2.706 0 4.752-.142 6.27 1.03 1.519 1.173 2.52 3.3 2.52 4.832v3.07h-1.103s-1.058-1.145-1.416-1.785c-.419-.746-.916-2.372-.916-2.372z" stroke="#404F54" fill="#FFA47B"/><path d="M2.346 11.39c.426-.07 2.359-.394 5.032-.976 3.04-.661 4.533-1.903 4.533-1.903s.497 1.626.916 2.372c.175.312.516.745.82 1.106V9.743c0-1.178-.77-2.813-1.937-3.715-1.167-.902-2.74-.792-4.822-.792-2.08 0-3.318 1.136-4.09 2.499-.367.648-.458 2.202-.452 3.654z" fill="#FF8F5C"/><path d="M11.911 8.51s-1.493 1.243-4.533 1.904a99.32 99.32 0 0 1-5.12.99l-.11 1.402H.816s-.585-4.047.42-5.82c1.003-1.772 2.613-3.25 5.32-3.25 2.706 0 4.752-.142 6.27 1.03 1.519 1.173 2.52 3.3 2.52 4.832v3.07h-1.103s-1.058-1.145-1.416-1.785c-.419-.746-.916-2.372-.916-2.372z" stroke="#404F54"/><path d="M11.911 9.867s-1.493 1.242-4.533 1.903a99.32 99.32 0 0 1-5.12.99l-.11 1.402H.816s-.585-4.047.42-5.82c1.003-1.772 2.613-3.25 5.32-3.25 2.706 0 4.752-.142 6.27 1.03 1.519 1.173 2.52 3.3 2.52 4.832v3.07h-1.103s-1.058-1.145-1.416-1.785c-.419-.746-.916-2.372-.916-2.372z"/></g></g><g transform="translate(143.677 149.673)"><ellipse fill="#FFF" cx="28.548" cy="27.757" rx="27.632" ry="27.632"/><ellipse fill="#71D5CA" cx="32.413" cy="31.623" rx="27.632" ry="27.632"/><ellipse fill="#1CC1B6" cx="34.358" cy="34.568" rx="23.688" ry="23.688"/><use stroke="#FFF" mask="url(#b)" stroke-width="4" xlink:href="#a"/><rect fill="#FFF" x="15.463" y="21.262" width="26.094" height="21.262" rx="6"/><path d="M30.859 33.004a3.502 3.502 0 1 0-3.753.05l-.89 3.276c-.157.483.402.885 1.256.885h3.034c.867 0 1.415-.396 1.256-.885l-.903-3.326z" fill="#1CC1B6"/><ellipse stroke="#404F54" stroke-width="1.5" stroke-linecap="round" cx="28.548" cy="27.757" rx="27.632" ry="27.632"/></g></g></svg>