<?xml version="1.0" encoding="UTF-8" standalone="no"?>
<svg width="144px" height="139px" viewBox="0 0 144 139" version="1.1" xmlns="http://www.w3.org/2000/svg" xmlns:xlink="http://www.w3.org/1999/xlink">
    <!-- Generator: Sketch 41.2 (35397) - http://www.bohemiancoding.com/sketch -->
    <title>Content</title>
    <desc>Created with Sketch.</desc>
    <defs></defs>
    <g id="Page-1" stroke="none" stroke-width="1" fill="none" fill-rule="evenodd">
        <g id="teachable-brandguide-illustrations--marketing-site" transform="translate(-401.000000, -1635.000000)">
            <g id="Content" transform="translate(393.000000, 1622.000000)">
                <rect id="Rectangle" x="0" y="0" width="160" height="160"></rect>
                <g id="bg" transform="translate(11.000000, 13.800000)">
                    <g transform="translate(9.811873, 4.535471)" fill="#DDECEA">
                        <circle id="Oval-2" opacity="0.382925725" cx="56.192448" cy="66.7493349" r="56.192448"></circle>
                        <ellipse id="Oval-2-Copy" opacity="0.3359375" cx="71.7786744" cy="56.4881047" rx="56.192448" ry="56.192448"></ellipse>
                    </g>
                    <g id="spread" transform="translate(0.379139, 0.323002)" stroke="#C5D7E0" stroke-width="1.2" stroke-linecap="round">
                        <path d="M24.47101,5.89591118 L21.9967849,3.42168605" id="Path-67" fill="#DAE2E6"></path>
                        <path d="M130.629566,115.021948 L128.155341,112.547723" id="Path-67-Copy" fill="#DAE2E6"></path>
                        <path d="M2.80700135,35.6678352 L5.83729589,33.9182939" id="Path-67-Copy-2" fill="#DAE2E6"></path>
                        <path d="M9.38964896,68.5810733 L12.4199435,66.8315319" id="Path-67-Copy-3" fill="#DAE2E6"></path>
                        <path d="M136.240121,28.134933 C136.240121,29.1207355 137.039271,29.9198862 138.025074,29.9198862 L138.025074,29.9198862 C139.010876,29.9198862 139.810027,29.1207355 139.810027,28.134933 C139.810027,27.1491306 139.010876,26.3499798 138.025074,26.3499798" id="Oval-22-Copy-4" stroke-linejoin="round"></path>
                        <path d="M83.5789396,1.80434257 C83.5789396,2.79014501 84.3780904,3.58929579 85.3638929,3.58929579 L85.3638929,3.58929579 C86.3496953,3.58929579 87.1488461,2.79014501 87.1488461,1.80434257 C87.1488461,0.818540124 86.3496953,0.0193893453 85.3638929,0.0193893453" id="Oval-22-Copy-5" stroke-linejoin="round"></path>
                        <ellipse id="Oval-22-Copy-7" stroke-linejoin="round" cx="134.61006" cy="81.5573796" rx="1.24123473" ry="1.24123473"></ellipse>
                        <circle id="Oval-22-Copy-9" stroke-linejoin="round" cx="53.9027269" cy="135.362269" r="1.24123473"></circle>
                        <ellipse id="Oval-22-Copy-11" stroke-linejoin="round" cx="1.24154601" cy="89.2837353" rx="1.24123473" ry="1.24123473"></ellipse>
                        <ellipse id="Oval-22-Copy-10" stroke-linejoin="round" cx="89.7726529" cy="126.394787" rx="1.24123473" ry="1.24123473"></ellipse>
                        <ellipse id="Oval-22-Copy-8" stroke-linejoin="round" cx="67.3539492" cy="45.6874536" rx="1.24123473" ry="1.24123473"></ellipse>
                    </g>
                </g>
                <g transform="translate(6.000000, 16.000000)">
                    <g id="video" transform="translate(35.195577, 30.051757) rotate(-19.000000) translate(-35.195577, -30.051757) translate(6.195577, 8.551757)">
                        <path d="M35.2811784,41.8465717 L17.3336305,41.8465717 C14.2818816,41.8465717 11.8079503,39.3770174 11.8079503,36.3217233 L11.8079503,18.4062487 L11.8079503,18.4062487 C11.8079503,15.3549592 14.2826349,12.8814003 17.3375394,12.8814003 L51.5585645,12.8814003 C54.6124723,12.8814003 57.0881537,15.3509546 57.0881537,18.4062487 L57.0881537,36.3217233 C57.0881537,39.3730128 54.6128016,41.8465717 51.5640154,41.8465717 L45.808572,41.8465717 M41.8053566,41.8465717 L39.5239716,41.8465717" id="Rectangle-2" fill="#FFFFFF"></path>
                        <rect id="Rectangle-19" fill="#BFF0EA" x="17.3333481" y="12.8814003" width="11.0507956" height="4.97285803"></rect>
                        <path d="M35.2811784,41.8465717 L17.3336305,41.8465717 C14.2818816,41.8465717 11.8079503,39.3770174 11.8079503,36.3217233 L11.8079503,18.4062487 L11.8079503,18.4062487 C11.8079503,15.3549592 14.2826349,12.8814003 17.3375394,12.8814003 L51.5585645,12.8814003 C54.6124723,12.8814003 57.0881537,15.3509546 57.0881537,18.4062487 L57.0881537,36.3217233 C57.0881537,39.3730128 54.6128016,41.8465717 51.5640154,41.8465717 L45.808572,41.8465717 M41.8053566,41.8465717 L39.5239716,41.8465717" id="Rectangle-2-Copy" stroke="#404F54" stroke-width="1.5" stroke-linecap="round"></path>
                        <ellipse id="Oval" fill="#FF854F" cx="34.2556883" cy="28.6986609" rx="6.97662411" ry="6.97662411"></ellipse>
                        <path d="M37.2337615,29.3986789 L33.7315823,31.3686547 C32.982636,31.789937 32.3754951,31.4355566 32.3754951,30.5798915 L32.3754951,26.6918683 C32.3754951,25.8349641 32.9826683,25.481841 33.7315823,25.9031051 L37.2337615,27.8730809 C37.9827077,28.2943631 37.9826755,28.9774148 37.2337615,29.3986789 Z" id="Triangle" fill="#FFFFFF"></path>
                        <path d="M17.3333481,13.2904093 L17.3333481,34.148786 M17.3333481,37.5627696 L17.3333481,41.6150136" id="Path-18" stroke="#404F54" stroke-width="1.5" stroke-linecap="round"></path>
                        <path d="M50.2621966,13.2904093 L50.2621966,41.6150136" id="Path-18-Copy" stroke="#404F54" stroke-width="1.5" stroke-linecap="round"></path>
                        <path d="M17.9166445,18.0242291 L45.865229,18.0242291 M47.9302385,18.0242291 L50.0441506,18.0242291" id="Path-19" stroke="#404F54" stroke-width="1.5" stroke-linecap="round"></path>
                        <path d="M39.7203127,13.0589253 L39.7203127,17.5578686" id="Path-20" stroke="#404F54" stroke-width="1.5" stroke-linecap="round"></path>
                        <path d="M27.6724453,13.0589253 L27.6724453,17.5578686" id="Path-20-Copy" stroke="#404F54" stroke-width="1.5" stroke-linecap="round"></path>
                        <path d="M11.3673625,10.3500805 L1.73589296,2.6441459" id="Path-62" stroke="#FF854F" stroke-width="2" stroke-linecap="round"></path>
                        <path d="M19.4415515,5.91516535 L17.047331,0.0800455817" id="Path-63" stroke="#FF854F" stroke-width="2" stroke-linecap="round"></path>
                        <path d="M6.03300273,17.1643237 L0.259091854,15.9458777" id="Path-64" stroke="#FF854F" stroke-width="2" stroke-linecap="round"></path>
                    </g>
                    <g id="Group-4" transform="translate(74.340975, 78.716220) rotate(19.000000) translate(-74.340975, -78.716220) translate(30.340975, 45.216220)">
                        <path d="M15.7903391,35.1142364 L12.5477081,58.136916 C11.8755982,62.9088966 15.2425863,66.7933817 20.0708718,66.7933817 L71.89089,66.7933817 C76.7211195,66.7933817 81.1797099,62.913688 81.8537725,58.1278434 L82.0000404,57.089341 L83.1187402,49.1465728 L86.141713,27.6834658 C86.3593851,26.1379942 86.1556398,24.687356 85.6173923,23.4314325 L86.8084038,16.2853634 C87.1144391,14.4491517 85.856488,12.9644213 83.9994752,12.9644213 L68.183436,12.9644213 C66.326205,12.9644213 64.573211,14.4512577 64.2675267,16.2853634 L63.811724,19.0201793 L63.811724,19.0201793 L26.7994918,19.0201793 C21.9692624,19.0201793 17.511205,22.8960883 16.8377999,27.6772644 L16.4974547,30.0937153" id="Combined-Shape" stroke="#404F54" stroke-width="1.5" stroke-linecap="round" fill="#FFFFFF"></path>
                        <g id="pdf" transform="translate(56.237076, 26.691675) rotate(9.000000) translate(-56.237076, -26.691675) translate(33.737076, 3.691675)">
                            <path d="M29.4103967,4.79032962 L17.1610506,4.79032962 C9.99223899,4.79032962 4.16496025,10.6088774 4.16496025,17.7864199 L4.16496025,32.1659596 C4.16496025,39.3347712 9.98350808,45.1620499 17.1610506,45.1620499 L31.5405902,45.1620499 C38.7094018,45.1620499 44.5366806,39.3435021 44.5366806,32.1659596 L44.5366806,20.4540551 L29.4103967,4.79032962 Z" id="Combined-Shape" fill="#E0EAEF"></path>
                            <path d="M25.2454364,1.14663834e-12 L2.00203989,1.14663834e-12 C0.899824913,1.14663834e-12 -2.08189022e-12,0.896343789 -2.08189022e-12,2.00203989 L-2.08189022e-12,38.3696804 C-2.08189022e-12,39.4718954 0.896343789,40.3717203 2.00203989,40.3717203 L38.3696804,40.3717203 C39.4718954,40.3717203 40.3717203,39.4753765 40.3717203,38.3696804 L40.3717203,15.6637255 L25.2454364,1.14712406e-12 Z" id="Combined-Shape-Copy-4" stroke="#404F54" stroke-width="1.5" stroke-linecap="round" fill="#FFFFFF"></path>
                            <path d="M24.8958942,-5.32907052e-13 L25.2454364,-5.32907052e-13 L40.3717203,15.6637255 L40.3717203,16.1486881 L30.8963553,16.1486881 C27.5823921,16.1486881 24.8958942,13.4685213 24.8958942,10.148227 L24.8958942,-5.32685007e-13 Z" id="Combined-Shape" stroke="#404F54" stroke-width="1.5" stroke-linecap="round" fill="#FFB28F"></path>
                            <path d="M9.33322753,27.2446721 L9.42325882,27.4810042 L9.65959095,27.5710355 L9.88466917,27.5935433 L10.5486499,27.5822894 L10.796236,27.6047972 L11.0325681,27.6047972 L11.2576463,27.4810042 L11.3589315,27.2446721 L11.3701854,26.7945157 L11.3476776,26.5806914 L11.3814393,26.378121 L11.3589315,26.1305349 L11.3589315,25.8942028 L11.4377089,25.7028863 L11.7415645,25.5903472 L11.9891505,25.5565855 L12.3267679,25.5903472 L12.9119712,25.5790933 L13.3733816,25.489062 L14.0261084,25.2977455 L14.4087414,25.0614134 L14.588804,24.9263664 L14.9264213,24.600003 L15.2865464,24.0598153 L15.3878316,23.8572449 L15.466609,23.6546745 L15.5678942,23.1932641 L15.590402,22.9906938 L15.6016559,22.326713 L15.3990855,21.448908 L15.1740073,21.0437672 L15.0277065,20.8524507 L14.8814056,20.6948959 L14.7576126,20.5260873 L14.5662961,20.3572786 L14.2286788,20.1322004 L13.823538,19.9183761 L13.5872059,19.8733604 L13.3621277,19.7833291 L13.1595573,19.7383135 L9.79463788,19.7270596 L9.49078229,19.8283448 L9.37824318,20.0421691 L9.35573536,20.2785012 L9.35573536,20.7399116 L9.32197362,20.942482 L9.32197362,21.1563063 L9.35573536,21.3926384 L9.35573536,22.5405373 L9.33322753,22.7656155 L9.35573536,22.9681859 L9.33322753,23.215772 L9.36698927,23.6771823 L9.32197362,23.9810379 L9.35573536,24.3186552 L9.33322753,24.5324796 L9.33322753,25.0051438 L9.36698927,25.2189681 L9.33322753,25.6691246 L9.36698927,26.378121 L9.31071971,26.6031992 L9.35573536,26.8170235 L9.32197362,27.0308478 L9.33322753,27.2446721 Z M11.7190567,23.7559597 L11.5052324,23.6546745 L11.3701854,23.4295963 L11.3476776,21.8653027 L11.4827245,21.6177166 L11.7078027,21.5276853 L11.9891505,21.5051775 L12.8894634,21.5501931 L13.0807799,21.6514783 L13.2495885,21.7752714 L13.4296511,21.94408 L13.5421902,22.1353965 L13.6434754,22.6643303 L13.5196824,23.1820102 L13.2608425,23.4971197 L13.0807799,23.6209128 L12.9007173,23.722198 L11.9778966,23.7784675 L11.7190567,23.7559597 Z M17.3122503,27.2446721 L17.4472972,27.4922581 L17.6273598,27.5935433 L17.8861998,27.5935433 L18.1225319,27.6273051 L18.3476101,27.6273051 L18.5839422,27.5935433 L20.6096462,27.5822894 L21.3298965,27.4810042 L21.9826234,27.2784338 L22.9392058,26.6369609 L23.3893622,26.119281 L23.7382335,25.5565855 L23.794503,25.3427611 L23.9070421,25.1289368 L23.9520578,24.9038586 L24.0308352,24.7012882 L24.0645969,24.4649561 L24.1208664,24.228624 L24.1096125,24.0373075 L24.1546282,23.3170572 L23.9858195,22.6755842 L23.9633117,22.4392521 L23.9070421,22.2366817 L23.7382335,21.7865253 L23.4793935,21.4038923 L23.3893622,21.2125758 L23.0967605,20.8637046 L22.9054441,20.7174037 L22.5903346,20.4135481 L22.1739398,20.1547082 L21.9488616,20.0421691 L21.3298965,19.8395987 L20.8684862,19.7495674 L19.2704308,19.7383135 L19.0453526,19.7158057 L18.3251023,19.7383135 L18.1000241,19.7158057 L17.8974537,19.7270596 L17.6611215,19.7158057 L17.4585512,19.8395987 L17.2897425,20.053423 L17.2897425,20.5148333 L17.3122503,20.7399116 L17.3009964,20.9649898 L17.3235042,21.3926384 L17.2897425,21.6402244 L17.3235042,21.8653027 L17.2897425,22.0903809 L17.3347581,22.9906938 L17.3009964,23.4183424 L17.3347581,23.9022605 L17.3009964,24.1160848 L17.3347581,24.352417 L17.3009964,24.7913195 L17.3235042,25.6916324 L17.3009964,25.9167106 L17.3347581,26.8170235 L17.3122503,27.2446721 Z M19.6980794,25.7816637 L19.4279856,25.6803785 L19.3267004,25.4327924 L19.3492082,25.2077142 L19.3041925,25.0051438 L19.3379543,24.7800656 L19.3379543,21.8878105 L19.4730012,21.6852401 L19.7993646,21.5614471 L20.0356968,21.572701 L20.2720289,21.5614471 L20.6096462,21.5839549 L21.0598027,21.7190018 L21.4424356,21.9665879 L21.7237834,22.2816974 L21.8475764,22.4955217 L21.9938773,22.6755842 L22.1289242,23.339565 L22.1626859,23.6884362 L22.1064164,24.2398779 L22.0388929,24.4537022 L21.8700842,24.858843 L21.7237834,25.0614134 L21.5774826,25.2189681 L21.4424356,25.3990307 L21.2623731,25.5115698 L21.0372948,25.6241089 L20.632154,25.736648 L19.6980794,25.7816637 Z M26.0340312,27.2784338 L26.1465703,27.4922581 L26.4954416,27.6160512 L27.7333718,27.6047972 L27.95845,27.4922581 L28.1047508,27.1433869 L28.0934969,26.7945157 L28.1160047,26.5581835 L28.082243,26.0742654 L28.0934969,25.860441 L28.082243,25.6466167 L28.1047508,25.4102846 L28.206036,25.1739525 L28.5436534,25.0614134 L30.2992635,25.0501595 L30.5130878,24.9488743 L30.6368808,24.723796 L30.6256269,24.47621 L30.6481347,23.8009753 L30.614373,23.587151 L30.5018339,23.3508189 L30.1642165,23.2382798 L28.4536221,23.2382798 L28.1947821,23.1482485 L28.0709891,22.9456781 L28.0709891,22.2816974 L28.1047508,22.0453652 L28.0934969,21.8540487 L28.206036,21.6289705 L28.5323994,21.5164314 L28.8587629,21.5276853 L29.1851263,21.5051775 L29.7365679,21.5389392 L29.9616461,21.5164314 L30.4230565,21.5389392 L30.6481347,21.5051775 L30.861959,21.4038923 L30.9407364,21.1788141 L30.9407364,20.9649898 L30.9632442,20.7399116 L30.9407364,20.5260873 L30.9632442,20.2897551 L30.9407364,20.053423 L30.8281973,19.8395987 L30.6256269,19.7383135 L30.355533,19.7045518 L29.9503922,19.7383135 L29.7140601,19.7270596 L29.477728,19.7383135 L29.2639037,19.7158057 L29.0500793,19.7383135 L26.3603946,19.7383135 L26.1465703,19.8508526 L26.0227773,20.0646769 L26.0677929,21.4151462 L26.0452851,21.6289705 L26.0340312,23.2270259 L26.0677929,23.4295963 L26.0452851,23.6434206 L26.0452851,23.8684988 L26.0227773,24.1160848 L26.0677929,24.4649561 L26.0340312,26.7945157 L26.056539,27.0533556 L26.0340312,27.2784338 Z" fill="#FF854F"></path>
                        </g>
                        <ellipse id="Oval-7" fill="#E0EAEF" cx="42.9530019" cy="8.07434406" rx="2.69144802" ry="2.69144802"></ellipse>
                        <path d="M3.17297748,47.034644 C0.24491288,40.4813565 3.69063606,35.1688674 10.8662754,35.1688674 L54.1810061,35.1688674 C61.3579619,35.1688674 69.5490604,40.4799264 72.477764,47.034644 L76.0044062,54.9276051 C78.9324708,61.4808925 75.4867476,66.7933817 68.3111082,66.7933817 L24.9963776,66.7933817 C17.8194218,66.7933817 9.6283233,61.4823227 6.69961968,54.9276051 L3.17297748,47.034644 Z" id="Rectangle-21-Copy-3" fill="#FFFFFF"></path>
                        <path d="M2.44206616,44.9523475 C2.61304616,45.6284068 2.85556056,46.3242347 3.17297748,47.034644 L6.69961968,54.9276051 C9.6283233,61.4823227 17.8194218,66.7933817 24.9963776,66.7933817 L68.3111082,66.7933817 C69.416638,66.7933817 70.433632,66.6672809 71.3524215,66.4299697 C71.1814415,65.7539103 70.9389271,65.0580825 70.6215102,64.3476732 L67.094868,56.4547121 C64.1661643,49.8999944 55.9750658,44.5889355 48.7981101,44.5889355 L5.48337941,44.5889355 C4.37784965,44.5889355 3.36085565,44.7150363 2.44206616,44.9523475 Z" id="Combined-Shape" fill="#F5F6F7"></path>
                        <path d="M2.13889662,44.7202725 L1.43895998,43.1537477 L1.43895998,43.1537477 C-0.531433201,38.7438201 1.7834022,35.1688674 6.61363166,35.1688674 L58.4336499,35.1688674 C63.2619354,35.1688674 68.7763185,38.7504564 70.7416554,43.1490677 L77.7405148,58.8131814 C79.7097531,63.2205243 77.3939815,66.7933817 72.563752,66.7933817 L20.7437338,66.7933817 C15.9154483,66.7933817 10.4042986,63.2190293 8.43222954,58.805351 L4.90469123,50.9103843" id="Rectangle-21-Copy-6" stroke="#404F54" stroke-width="1.5" stroke-linecap="round"></path>
                    </g>
                    <g id="Group-3-Copy" transform="translate(102.000000, 14.000000)">
                        <ellipse id="Oval-10" fill="#FFFFFF" cx="18.1990351" cy="17.6951659" rx="17.6154242" ry="17.6154242"></ellipse>
                        <ellipse id="Oval-10-Copy-2" fill="#71D5CA" cx="20.6634377" cy="20.1595684" rx="17.6154242" ry="17.6154242"></ellipse>
                        <ellipse id="Oval-10-Copy-5" fill="#1CC1B6" cx="22.2896955" cy="22.9659018" rx="14.8090908" ry="14.8090908"></ellipse>
                        <rect id="Rectangle-3" fill="#FFFFFF" x="17" y="8" width="4" height="16" rx="2"></rect>
                        <rect id="Rectangle-3-Copy" fill="#FFFFFF" transform="translate(19.000000, 16.000000) rotate(-270.000000) translate(-19.000000, -16.000000) " x="17" y="8" width="4" height="16" rx="2"></rect>
                        <path d="M2.60650573,9.49141819 C1.31478674,11.9414705 0.583610952,14.7329305 0.583610952,17.6951659 C0.583610952,27.423896 8.470305,35.3105901 18.1990351,35.3105901 L18.1990351,35.3105901 C27.9277653,35.3105901 35.8144593,27.423896 35.8144593,17.6951659 C35.8144593,7.96643576 27.9277653,0.0797417125 18.1990351,0.0797417125 C13.7127165,0.0797417125 9.61810914,1.75685696 6.50796581,4.51833468" id="Oval-10-Copy-3" stroke="#404F54" stroke-width="1.5" stroke-linecap="round"></path>
                    </g>
                </g>
            </g>
        </g>
    </g>
</svg>