<svg width="159" height="155" viewBox="0 0 159 155" xmlns="http://www.w3.org/2000/svg"><title>coaches</title><g fill="none" fill-rule="evenodd"><path d="M-2-5h160v160H-2z"/><g transform="translate(11.415 5.478)" fill="#DDECEA"><ellipse opacity=".383" cx="63.042" cy="74.885" rx="63.042" ry="63.042"/><ellipse opacity=".336" cx="80.528" cy="63.373" rx="63.042" ry="63.042"/></g><g transform="translate(.832 .752)" stroke="#C5D7E0" stroke-width="1.2" stroke-linecap="round"><path d="M27.454 6.615l-2.776-2.776m121.874 125.203l-2.776-2.776M3.15 40.015l3.399-1.963m3.985 38.888l3.4-1.963" fill="#DAE2E6"/><path d="M152.846 31.564a2.003 2.003 0 1 0 2.003-2.003M93.766 2.024A2.003 2.003 0 1 0 95.77.021" stroke-linejoin="round"/><ellipse stroke-linejoin="round" cx="151.017" cy="91.498" rx="1.393" ry="1.393"/><ellipse stroke-linejoin="round" cx="60.473" cy="151.861" rx="1.393" ry="1.393"/><ellipse stroke-linejoin="round" cx="1.393" cy="100.166" rx="1.393" ry="1.393"/><ellipse stroke-linejoin="round" cx="100.715" cy="141.801" rx="1.393" ry="1.393"/><ellipse stroke-linejoin="round" cx="75.564" cy="51.256" rx="1.393" ry="1.393"/></g><g transform="rotate(15 -92.476 411.016)"><path d="M.242 16.156V9.83a3.4 3.4 0 0 1 3.402-3.402H43.95a3.4 3.4 0 0 1 3.4 3.402v55.959a3.4 3.4 0 0 1-3.402 3.402H3.644A3.401 3.401 0 0 1 .242 65.79V32.684m0-4.186v-8.854" stroke="#404F54" stroke-width="1.5" stroke-linecap="round" fill="#FFF"/><rect stroke="#404F54" stroke-width="1.5" stroke-linecap="round" fill="#FFF" x="8.294" y=".13" width="31.005" height="10.327" rx="5.164"/><rect fill="#E0EAEF" x="12.465" y="2.523" width="22.663" height="6.297" rx="3.149"/><path d="M22.583 65.262H6.858a3.401 3.401 0 0 1-3.404-3.404v-55.4H44.15v55.4a3.405 3.405 0 0 1-3.403 3.404H36.43m0 0H22.583" stroke="#404F54" stroke-width="1.5" stroke-linecap="round" fill="#FFF"/><path d="M8.658 34.363H3.454V6.373H44.15v27.99H28.823m7.29 0H8.433" stroke="#404F54" stroke-width="1.5" stroke-linecap="round" fill="#F3FFFD"/><rect fill="#E0EAEF" x="8.661" y="38.263" width="17.031" height="2.293" rx="1.146"/><rect stroke="#E0EAEF" stroke-width="1.5" x="8.858" y="43.27" width="29.777" height="5.024" rx="2.512"/><rect fill="#E0EAEF" x="8.661" y="51.464" width="17.031" height="2.293" rx="1.146"/><rect stroke="#E0EAEF" stroke-width="1.5" x="8.858" y="56.471" width="29.777" height="5.024" rx="2.512"/><rect fill="#FFAF8B" x="16.2" y="28.678" width="15.88" height="2.293" rx="1.146"/></g><g transform="rotate(15 -136.662 464.996)"><ellipse fill="#FFF" cx="8.085" cy="7.861" rx="7.826" ry="7.826"/><ellipse fill="#FFF" cx="9.18" cy="8.956" rx="7.826" ry="7.826"/><ellipse stroke="#404F54" stroke-width="1.5" stroke-linecap="round" cx="8.085" cy="7.861" rx="7.826" ry="7.826"/><g transform="translate(4.052 1.89)"><ellipse stroke="#404F54" stroke-linecap="round" fill="#F5F6F7" cx=".85" cy="7.011" rx=".756" ry=".752"/><ellipse stroke="#404F54" stroke-linecap="round" fill="#F5F6F7" cx="7.434" cy="7.011" rx=".756" ry=".752"/><rect stroke="#404F54" stroke-linecap="round" fill="#FF8F5C" x="1.1" y="8.352" width="6.077" height="2.596" rx="1.298"/><ellipse stroke="#404F54" fill="#FFA47B" cx="4.211" cy="1.707" rx="1.523" ry="1.523"/><path d="M5.659 1.236a1.523 1.523 0 0 1-2.441 1.626 1.523 1.523 0 0 1 2.441-1.626z" fill="#FF8F5C"/><ellipse stroke="#404F54" cx="4.211" cy="1.707" rx="1.523" ry="1.523"/><rect stroke="#404F54" stroke-linecap="round" fill="#F5F6F7" x="3.411" y="9.24" width="1.456" height="2.596" rx=".728"/><rect stroke="#404F54" stroke-linecap="round" fill="#FFF" x="1.1" y="2.415" width="6.077" height="8.078" rx="3.039"/><path stroke="#404F54" stroke-width=".75" stroke-linecap="round" stroke-linejoin="round" d="M3.866 7.318v.862h.252"/><path d="M3.578 8.817a.505.505 0 1 0 1.01 0" stroke="#FF8F5C" stroke-linecap="round" fill="#F5F6F7"/><path d="M3.19 2.566a3.035 3.035 0 0 0-2.09 2.88v.996c.24-.053 1.262-.278 2.597-.568 1.53-.334 2.135-.843 2.135-.843s.285.742.496 1.118c.18.322.627.798.627.798V6.01s.097.035.222.045v-.61c0-1.28-.81-2.389-1.951-2.828-.552-.074-1.19-.053-1.925-.053l-.11.002z" fill="#DAE2E6"/><path d="M5.787 7.396a.352.352 0 0 0-.352-.351.352.352 0 0 0-.353.35M3.2 7.396a.352.352 0 0 0-.352-.351.352.352 0 0 0-.353.35" stroke="#404F54" stroke-width=".75" stroke-linecap="round" fill="#F5F6F7"/><path d="M3.428 6.485a.579.579 0 0 0-.58-.577.58.58 0 0 0-.58.577m3.664 0a.579.579 0 0 0-.58-.577.58.58 0 0 0-.58.577" stroke="#404F54" stroke-width=".75" stroke-linecap="round"/><path d="M5.998 4.286s-.752.625-2.283.958c-1.53.333-2.578.498-2.578.498l-.072.706H.41s-.295-2.037.21-2.93c.506-.893 1.317-1.636 2.68-1.636 1.363 0 2.393-.073 3.158.518.764.59 1.268 1.661 1.268 2.433v1.546h-.555s-.533-.577-.713-.899c-.211-.376-.461-1.194-.461-1.194z" stroke="#404F54" fill="#FFA47B"/><path d="M1.181 5.735a51.663 51.663 0 0 0 2.534-.491c1.53-.333 2.283-.958 2.283-.958s.25.818.46 1.194a4.3 4.3 0 0 0 .414.557V4.906c0-.593-.388-1.417-.976-1.87-.587-.455-1.38-.4-2.428-.4-1.047 0-1.67.573-2.06 1.259-.184.326-.23 1.109-.227 1.84z" fill="#FF8F5C"/><path d="M5.998 4.286s-.752.625-2.283.958c-1.53.333-2.578.498-2.578.498l-.055.706H.41s-.295-2.037.21-2.93c.506-.893 1.317-1.636 2.68-1.636 1.363 0 2.393-.073 3.158.518.764.59 1.268 1.661 1.268 2.433v1.546h-.555s-.533-.577-.713-.899c-.211-.376-.461-1.194-.461-1.194z" stroke="#404F54"/><path d="M5.998 4.968s-.752.626-2.283.959c-1.53.333-2.578.498-2.578.498l-.055.706H.41s-.295-2.038.21-2.93c.506-.893 1.317-1.637 2.68-1.637 1.363 0 2.393-.072 3.158.519.764.59 1.268 1.661 1.268 2.433v1.546h-.555s-.533-.577-.713-.9c-.211-.375-.461-1.194-.461-1.194z"/></g></g><g transform="rotate(-15 180.733 -16.092)"><path d="M.242 16.156V9.83a3.4 3.4 0 0 1 3.402-3.402H43.95a3.4 3.4 0 0 1 3.4 3.402v55.959a3.4 3.4 0 0 1-3.402 3.402H3.644A3.401 3.401 0 0 1 .242 65.79V32.684m0-4.186v-8.854" stroke="#404F54" stroke-width="1.5" stroke-linecap="round" fill="#FFF"/><rect stroke="#404F54" stroke-width="1.5" stroke-linecap="round" fill="#FFF" x="8.294" y=".13" width="31.005" height="10.327" rx="5.164"/><rect fill="#E0EAEF" x="12.465" y="2.523" width="22.663" height="6.297" rx="3.149"/><path d="M22.583 65.262H6.858a3.401 3.401 0 0 1-3.404-3.404v-55.4H44.15v55.4a3.405 3.405 0 0 1-3.403 3.404H36.43m0 0H22.583" stroke="#404F54" stroke-width="1.5" stroke-linecap="round" fill="#FFF"/><path d="M8.658 34.363H3.454V6.373H44.15v27.99H28.823m7.29 0H8.433" stroke="#404F54" stroke-width="1.5" stroke-linecap="round" fill="#F3FFFD"/><rect fill="#E0EAEF" x="8.661" y="38.263" width="17.031" height="2.293" rx="1.146"/><rect stroke="#E0EAEF" stroke-width="1.5" x="8.858" y="43.27" width="29.777" height="5.024" rx="2.512"/><rect fill="#E0EAEF" x="8.661" y="51.464" width="17.031" height="2.293" rx="1.146"/><rect stroke="#E0EAEF" stroke-width="1.5" x="8.858" y="56.471" width="29.777" height="5.024" rx="2.512"/><rect fill="#FFAF8B" x="16.2" y="28.678" width="15.88" height="2.293" rx="1.146"/></g><g transform="rotate(-15 209.443 -79.67)"><ellipse fill="#FFF" cx="8.085" cy="7.861" rx="7.826" ry="7.826"/><ellipse fill="#FFF" cx="9.18" cy="8.956" rx="7.826" ry="7.826"/><ellipse stroke="#404F54" stroke-width="1.5" stroke-linecap="round" cx="8.085" cy="7.861" rx="7.826" ry="7.826"/><g transform="translate(4.052 1.89)"><ellipse stroke="#404F54" stroke-linecap="round" fill="#F5F6F7" cx=".85" cy="7.011" rx=".756" ry=".752"/><ellipse stroke="#404F54" stroke-linecap="round" fill="#F5F6F7" cx="7.434" cy="7.011" rx=".756" ry=".752"/><rect stroke="#404F54" stroke-linecap="round" fill="#FF8F5C" x="1.1" y="8.352" width="6.077" height="2.596" rx="1.298"/><ellipse stroke="#404F54" fill="#FFA47B" cx="4.211" cy="1.707" rx="1.523" ry="1.523"/><path d="M5.659 1.236a1.523 1.523 0 0 1-2.441 1.626 1.523 1.523 0 0 1 2.441-1.626z" fill="#FF8F5C"/><ellipse stroke="#404F54" cx="4.211" cy="1.707" rx="1.523" ry="1.523"/><rect stroke="#404F54" stroke-linecap="round" fill="#F5F6F7" x="3.411" y="9.24" width="1.456" height="2.596" rx=".728"/><rect stroke="#404F54" stroke-linecap="round" fill="#FFF" x="1.1" y="2.415" width="6.077" height="8.078" rx="3.039"/><path stroke="#404F54" stroke-width=".75" stroke-linecap="round" stroke-linejoin="round" d="M3.866 7.318v.862h.252"/><path d="M3.578 8.817a.505.505 0 1 0 1.01 0" stroke="#FF8F5C" stroke-linecap="round" fill="#F5F6F7"/><path d="M3.19 2.566a3.035 3.035 0 0 0-2.09 2.88v.996c.24-.053 1.262-.278 2.597-.568 1.53-.334 2.135-.843 2.135-.843s.285.742.496 1.118c.18.322.627.798.627.798V6.01s.097.035.222.045v-.61c0-1.28-.81-2.389-1.951-2.828-.552-.074-1.19-.053-1.925-.053l-.11.002z" fill="#DAE2E6"/><path d="M5.787 7.396a.352.352 0 0 0-.352-.351.352.352 0 0 0-.353.35M3.2 7.396a.352.352 0 0 0-.352-.351.352.352 0 0 0-.353.35" stroke="#404F54" stroke-width=".75" stroke-linecap="round" fill="#F5F6F7"/><path d="M3.428 6.485a.579.579 0 0 0-.58-.577.58.58 0 0 0-.58.577m3.664 0a.579.579 0 0 0-.58-.577.58.58 0 0 0-.58.577" stroke="#404F54" stroke-width=".75" stroke-linecap="round"/><path d="M5.998 4.286s-.752.625-2.283.958c-1.53.333-2.578.498-2.578.498l-.072.706H.41s-.295-2.037.21-2.93c.506-.893 1.317-1.636 2.68-1.636 1.363 0 2.393-.073 3.158.518.764.59 1.268 1.661 1.268 2.433v1.546h-.555s-.533-.577-.713-.899c-.211-.376-.461-1.194-.461-1.194z" stroke="#404F54" fill="#FFA47B"/><path d="M1.181 5.735a51.663 51.663 0 0 0 2.534-.491c1.53-.333 2.283-.958 2.283-.958s.25.818.46 1.194a4.3 4.3 0 0 0 .414.557V4.906c0-.593-.388-1.417-.976-1.87-.587-.455-1.38-.4-2.428-.4-1.047 0-1.67.573-2.06 1.259-.184.326-.23 1.109-.227 1.84z" fill="#FF8F5C"/><path d="M5.998 4.286s-.752.625-2.283.958c-1.53.333-2.578.498-2.578.498l-.055.706H.41s-.295-2.037.21-2.93c.506-.893 1.317-1.636 2.68-1.636 1.363 0 2.393-.073 3.158.518.764.59 1.268 1.661 1.268 2.433v1.546h-.555s-.533-.577-.713-.899c-.211-.376-.461-1.194-.461-1.194z" stroke="#404F54"/><path d="M5.998 4.968s-.752.626-2.283.959c-1.53.333-2.578.498-2.578.498l-.055.706H.41s-.295-2.038.21-2.93c.506-.893 1.317-1.637 2.68-1.637 1.363 0 2.393-.072 3.158.519.764.59 1.268 1.661 1.268 2.433v1.546h-.555s-.533-.577-.713-.9c-.211-.375-.461-1.194-.461-1.194z"/></g></g><g transform="translate(39.73 12.51)"><path d="M.405 27.031V16.447a5.69 5.69 0 0 1 5.692-5.693h67.436a5.69 5.69 0 0 1 5.693 5.693v93.628a5.69 5.69 0 0 1-5.693 5.693H6.097a5.691 5.691 0 0 1-5.692-5.69V54.684m0-7.003V32.867" stroke="#404F54" stroke-width="1.5" stroke-linecap="round" fill="#FFF"/><rect stroke="#404F54" stroke-width="1.5" stroke-linecap="round" fill="#FFF" x="13.877" y=".217" width="51.876" height="17.279" rx="8.64"/><rect fill="#E0EAEF" x="20.856" y="4.221" width="37.919" height="10.536" rx="5.268"/><path d="M37.784 109.194h-26.31a5.691 5.691 0 0 1-5.694-5.697v-92.69h68.088v92.69a5.697 5.697 0 0 1-5.693 5.697H60.95m0 0H37.784" stroke="#404F54" stroke-width="1.5" stroke-linecap="round" fill="#FFF"/><path d="M14.486 57.495H5.78V10.663h68.088v46.832H48.225m12.198 0H14.11" stroke="#404F54" stroke-width="1.5" stroke-linecap="round" fill="#1CC1B6"/><path d="M15.278 35.082H6.845V11.806h65.958v23.276h-24.84m11.816 0H14.914" fill="#4FDCD3"/><rect fill="#E0EAEF" x="14.492" y="64.02" width="28.496" height="3.836" rx="1.918"/><rect stroke="#E0EAEF" stroke-width="1.5" x="14.821" y="72.398" width="49.821" height="8.406" rx="4.203"/><rect fill="#E0EAEF" x="14.492" y="86.107" width="28.496" height="3.836" rx="1.918"/><rect stroke="#E0EAEF" stroke-width="1.5" x="14.821" y="94.485" width="49.821" height="8.406" rx="4.203"/><rect fill="#FFAF8B" x="27.105" y="47.982" width="26.57" height="3.836" rx="1.918"/></g><g transform="translate(65.624 28.568)"><ellipse fill="#FFF" cx="13.528" cy="13.153" rx="13.094" ry="13.094"/><ellipse fill="#FFF" cx="15.36" cy="14.985" rx="13.094" ry="13.094"/><ellipse stroke="#404F54" stroke-width="1.5" stroke-linecap="round" cx="13.528" cy="13.153" rx="13.094" ry="13.094"/><g transform="translate(6.78 3.161)"><ellipse stroke="#404F54" stroke-linecap="round" fill="#F5F6F7" cx="1.423" cy="11.73" rx="1.265" ry="1.258"/><ellipse stroke="#404F54" stroke-linecap="round" fill="#F5F6F7" cx="12.438" cy="11.73" rx="1.265" ry="1.258"/><rect stroke="#404F54" stroke-linecap="round" fill="#FF8F5C" x="1.84" y="13.973" width="10.168" height="4.344" rx="2.172"/><ellipse stroke="#404F54" fill="#FFA47B" cx="7.045" cy="2.856" rx="2.548" ry="2.548"/><path d="M9.468 2.067a2.548 2.548 0 0 1-4.085 2.72 2.548 2.548 0 0 1 4.085-2.72z" fill="#FF8F5C"/><ellipse stroke="#404F54" cx="7.045" cy="2.856" rx="2.548" ry="2.548"/><rect stroke="#404F54" stroke-linecap="round" fill="#F5F6F7" x="5.706" y="15.46" width="2.435" height="4.344" rx="1.218"/><rect stroke="#404F54" stroke-linecap="round" fill="#FFF" x="1.84" y="4.041" width="10.168" height="13.515" rx="5.084"/><path stroke="#404F54" stroke-width=".75" stroke-linecap="round" stroke-linejoin="round" d="M6.468 12.244v1.442h.421"/><path d="M5.987 14.752a.844.844 0 1 0 1.688 0" stroke="#FF8F5C" stroke-linecap="round" fill="#F5F6F7"/><path d="M5.34 4.293a5.096 5.096 0 0 0-3.5 4.838v1.648c.401-.089 2.113-.465 4.346-.952 2.56-.557 3.572-1.409 3.572-1.409s.477 1.242.83 1.87c.302.54 1.05 1.335 1.05 1.335v-1.567s.161.058.37.076v-1A5.09 5.09 0 0 0 8.75 4.378c-.925-.124-1.995-.088-3.227-.088-.062 0-.122 0-.182.002z" fill="#DAE2E6"/><path d="M9.683 12.374a.589.589 0 0 0-.59-.587.589.589 0 0 0-.59.587m-3.147 0a.589.589 0 0 0-.59-.587.589.589 0 0 0-.59.587" stroke="#404F54" stroke-width=".75" stroke-linecap="round" fill="#F5F6F7"/><path d="M5.736 10.851a.968.968 0 0 0-.97-.966.968.968 0 0 0-.972.966m6.131 0a.968.968 0 0 0-.97-.966.968.968 0 0 0-.972.966" stroke="#404F54" stroke-width=".75" stroke-linecap="round"/><path d="M10.035 7.17S8.777 8.216 6.216 8.774c-2.56.557-4.314.833-4.314.833l-.12 1.182H.686s-.492-3.41.354-4.903c.845-1.493 2.201-2.738 4.482-2.738 2.28 0 4.004-.12 5.283.868 1.28.988 2.123 2.78 2.123 4.07v2.587h-.93s-.89-.965-1.193-1.504c-.352-.629-.77-1.999-.77-1.999z" stroke="#404F54" fill="#FFA47B"/><path d="M1.976 9.595a86.44 86.44 0 0 0 4.24-.821c2.56-.558 3.82-1.604 3.82-1.604s.418 1.37.77 1.999c.148.263.436.627.692.932V8.208c0-.992-.649-2.37-1.632-3.13-.984-.76-2.31-.666-4.063-.666-1.753 0-2.795.956-3.446 2.105-.309.546-.385 1.855-.38 3.078z" fill="#FF8F5C"/><path d="M10.035 7.17S8.777 8.216 6.216 8.774c-2.56.557-4.314.833-4.314.833L1.81 10.79H.687s-.492-3.41.354-4.903c.845-1.493 2.201-2.738 4.482-2.738 2.28 0 4.004-.12 5.283.868 1.28.988 2.123 2.78 2.123 4.07v2.587h-.93s-.89-.965-1.193-1.504c-.352-.629-.77-1.999-.77-1.999z" stroke="#404F54"/><path d="M10.035 8.313S8.777 9.359 6.216 9.916c-2.56.558-4.314.834-4.314.834l-.092 1.18H.687s-.492-3.409.354-4.902C1.886 5.535 3.242 4.29 5.523 4.29c2.28 0 4.004-.121 5.283.867 1.28.988 2.123 2.78 2.123 4.07v2.588h-.93s-.89-.966-1.193-1.505c-.352-.628-.77-1.998-.77-1.998z"/></g></g><g transform="scale(-1 1) rotate(-45 42.596 206.441)" stroke-width="1.5" stroke-linecap="round"><path d="M6.34 28.437a2.497 2.497 0 0 1 3.523 0l3.18 3.18c.974.973 1.107 2.669.3 3.787l-3.778 5.231c-.808 1.119-2.118 1.119-2.926 0l-3.778-5.23c-.808-1.12-.667-2.822.299-3.788l3.18-3.18z" stroke="#404F54" fill="#FFF"/><rect stroke="#404F54" fill="#FF8F5C" x="2.348" y=".372" width="12.032" height="33.814" rx="6.016"/><path d="M4.924 6.752a3.437 3.437 0 0 1 3.44-3.437m1.961 30.035V6.686M5.48 33.35V10.617" stroke="#FFF"/></g></g></svg>