<svg width="116" height="73" viewBox="0 0 116 73" xmlns="http://www.w3.org/2000/svg" xmlns:xlink="http://www.w3.org/1999/xlink"><title>preview-as-enrolled-student</title><defs><path id="a" d="M.268.652h33.395v66.495H.268z"/><path d="M5.277.652A5.005 5.005 0 0 0 .267 5.65v56.5a5 5 0 0 0 5.01 4.998h26.386V.652H5.277z" id="c"/><path d="M5.277.652A5.005 5.005 0 0 0 .267 5.65v56.5a5 5 0 0 0 5.01 4.998h26.386V.652H5.277z" id="e"/></defs><g transform="translate(0 1)" fill="none" fill-rule="evenodd"><rect stroke="#404F54" stroke-width="1.5" fill="#404F54" opacity=".124" x="4.831" y="4.652" width="110.199" height="66.495" rx="5"/><rect stroke="#404F54" fill="#FFF" x=".831" y=".652" width="110.199" height="66.495" rx="5"/><path d="M45 35.5c0-.806.644-1.46 1.458-1.46h51.084c.805 0 1.458.648 1.458 1.46 0 .806-.644 1.46-1.458 1.46H46.458A1.455 1.455 0 0 1 45 35.5z" fill="#DCEDEB"/><path d="M46 22h51" stroke="#FFC8AF" stroke-width="4"/><path d="M46 22h21" stroke="#FF7F45" stroke-width="4"/><path d="M45 45.5c0-.806.644-1.46 1.458-1.46h51.084c.805 0 1.458.648 1.458 1.46 0 .806-.644 1.46-1.458 1.46H46.458A1.455 1.455 0 0 1 45 45.5zm0 10c0-.806.644-1.46 1.458-1.46h51.084c.805 0 1.458.648 1.458 1.46 0 .806-.644 1.46-1.458 1.46H46.458A1.455 1.455 0 0 1 45 55.5z" fill="#DCEDEB"/><path d="M5.277.652A5.005 5.005 0 0 0 .267 5.65v56.5a5 5 0 0 0 5.01 4.998h26.386V.652H5.277z" fill="#71D5CA"/><g transform="translate(2)"><mask id="b" fill="#fff"><use xlink:href="#a"/></mask><path d="M5.277.652A5.005 5.005 0 0 0 .267 5.65v56.5a5 5 0 0 0 5.01 4.998h26.386V.652H5.277z" stroke="#E0EAEF" stroke-width="2" transform="translate(-2 1)" mask="url(#b)"/></g><mask id="d" fill="#fff"><use xlink:href="#c"/></mask><path d="M-1.617 23.846c8.51 0 7.446-8.197 12.023-8.33 4.577-.133 4.651 6.36 11.755 6.174 7.105-.185 11.915-9.445 11.915-9.445" stroke="#FFF" stroke-width="1.5" mask="url(#d)"/><mask id="f" fill="#fff"><use xlink:href="#e"/></mask><path d="M31.484 25.65H.268v56.5a5 5 0 0 0 5.009 4.998h26.386V20.652l-.18 4.998z" fill="#E3F4F1" mask="url(#f)"/><path d="M8 32h17" stroke="#FF7F45" stroke-width="2"/><path d="M8 40h17M8 47h17M8 54h9" stroke="#BED8D5" stroke-width="2"/><path d="M111.03 7.902V5.65a5 5 0 0 0-5.009-4.998H6.114A5.005 5.005 0 0 0 1.105 5.65v2.252H111.03z" stroke="#E0EAEF" fill="#F3FFFD"/><rect stroke="#404F54" stroke-width="1.5" x=".831" y=".652" width="110.199" height="66.495" rx="5"/></g></svg>