<?xml version="1.0"?>
<svg xmlns="http://www.w3.org/2000/svg" xmlns:xlink="http://www.w3.org/1999/xlink" version="1.1" id="Capa_1" x="0px" y="0px" viewBox="0 0 456.62 456.62" style="enable-background:new 0 0 456.62 456.62;" xml:space="preserve" width="512px" height="512px" class=""><g><path style="fill:#D4E1F4;" d="M456.62,79.224v280.033c0,5.224-3.657,9.404-8.359,10.449L228.31,410.456L8.359,369.705  C3.657,368.66,0,364.481,0,359.256V79.224c0-6.269,5.747-11.494,12.539-10.449L51.2,76.089h0.522v248.686l176.588,32.914h0.522  l176.065-32.914V76.089h1.045l38.139-7.314C450.873,67.73,456.62,72.954,456.62,79.224z" data-original="#D4E1F4" class=""/><path style="fill:#1EA69A" d="M404.898,79.746v248.686l-176.065,32.914l-0.522-2.612V76.611l164.049-30.302  c6.269-1.045,12.539,3.657,12.539,10.449V79.746z" data-original="#4DCFE0" class="active-path" data-old_color="#1ea69a"/><path style="fill:#1B958A" d="M228.31,358.734l0.522,2.612h-0.522L51.722,328.432V79.746V56.758  c0-6.269,5.747-11.494,12.539-10.449L228.31,76.611V358.734z" data-original="#00BBD3" class="" data-old_color="#1b958a"/></g> </svg>
