<?xml version="1.0" encoding="UTF-8"?>
<svg width="353px" height="220px" viewBox="0 0 353 220" version="1.1" xmlns="http://www.w3.org/2000/svg" xmlns:xlink="http://www.w3.org/1999/xlink">
    <!-- Generator: Sketch 41.2 (35397) - http://www.bohemiancoding.com/sketch -->
    <title>thanks illustration</title>
    <desc>Created with Sketch.</desc>
    <defs></defs>
    <g id="Page-1" stroke="none" stroke-width="1" fill="none" fill-rule="evenodd">
        <g id="Search-result" transform="translate(-338.000000, -1207.000000)">
            <g id="thanks-illustration" transform="translate(338.000000, 1207.000000)">
                <g id="Group-11">
                    <g id="bg-ilustrasi" transform="translate(0.637695, 0.227269)">
                        <path d="M3.81958716,99.0166042 C3.81958716,99.0166042 4.56769825,100.194162 5.04118871,100.667652 C5.52925401,101.155717 6.70425444,101.901271 6.70425444,101.901271 C6.70425444,101.901271 5.50862763,102.689953 5.04118871,103.157392 C4.54707187,103.651509 3.81958716,104.785939 3.81958716,104.785939 C3.81958716,104.785939 3.08690323,103.61537 2.62892517,103.157392 C2.12534747,102.653815 0.934919869,101.901271 0.934919869,101.901271 C0.934919869,101.901271 2.13306105,101.163516 2.62892517,100.667652 C3.09461681,100.20196 3.81958716,99.0166042 3.81958716,99.0166042 Z" id="Polygon" fill="#DAE2E6"></path>
                        <path d="M334.224173,161.804065 C334.224173,161.804065 335.007643,163.037279 335.503513,163.533148 C336.014646,164.044282 337.245182,164.825074 337.245182,164.825074 C337.245182,164.825074 335.993045,165.651033 335.503513,166.140565 C334.986042,166.658036 334.224173,167.846084 334.224173,167.846084 C334.224173,167.846084 333.456859,166.620189 332.977235,166.140565 C332.449856,165.613186 331.203163,164.825074 331.203163,164.825074 C331.203163,164.825074 332.457934,164.052449 332.977235,163.533148 C333.464937,163.045446 334.224173,161.804065 334.224173,161.804065 Z" id="Polygon-Copy-9" fill="#DAE2E6"></path>
                        <path d="M295.032152,128.34572 C295.032152,128.34572 296.032258,129.919928 296.66524,130.55291 C297.317707,131.205376 298.888497,132.202064 298.888497,132.202064 C298.888497,132.202064 297.290132,133.256408 296.66524,133.8813 C296.004684,134.541856 295.032152,136.058409 295.032152,136.058409 C295.032152,136.058409 294.052669,134.493544 293.440425,133.8813 C292.767221,133.208096 291.175807,132.202064 291.175807,132.202064 C291.175807,132.202064 292.777533,131.215802 293.440425,130.55291 C294.062981,129.930354 295.032152,128.34572 295.032152,128.34572 Z" id="Polygon-Copy-4" fill="#DAE2E6"></path>
                        <path d="M279.167281,49.5617403 C279.167281,49.5617403 280.167387,51.1359487 280.800369,51.7689307 C281.452836,52.4213969 283.023626,53.418085 283.023626,53.418085 C283.023626,53.418085 281.425261,54.4724283 280.800369,55.0973204 C280.139813,55.7578766 279.167281,57.2744297 279.167281,57.2744297 C279.167281,57.2744297 278.187798,55.7095647 277.575554,55.0973204 C276.90235,54.4241165 275.310936,53.418085 275.310936,53.418085 C275.310936,53.418085 276.912662,52.4318227 277.575554,51.7689307 C278.19811,51.1463745 279.167281,49.5617403 279.167281,49.5617403 Z" id="Polygon-Copy-8" fill="#DAE2E6"></path>
                        <path d="M16.9906703,164.795608 C16.9906703,164.795608 17.6242075,165.792822 18.0251824,166.193797 C18.4385001,166.607114 19.433548,167.238486 19.433548,167.238486 C19.433548,167.238486 18.4210326,167.906381 18.0251824,168.302231 C17.6067401,168.720673 16.9906703,169.681364 16.9906703,169.681364 C16.9906703,169.681364 16.3701977,168.690069 15.9823594,168.302231 C15.5559051,167.875777 14.5477926,167.238486 14.5477926,167.238486 C14.5477926,167.238486 15.5624373,166.613719 15.9823594,166.193797 C16.3767299,165.799426 16.9906703,164.795608 16.9906703,164.795608 Z" id="Polygon-Copy-7" fill="#DAE2E6"></path>
                        <path d="M53.0027649,150.627977 C53.0027649,150.627977 53.750876,151.805534 54.2243664,152.279024 C54.7124317,152.76709 55.8874321,153.512644 55.8874321,153.512644 C55.8874321,153.512644 54.6918053,154.301326 54.2243664,154.768765 C53.7302496,155.262882 53.0027649,156.397311 53.0027649,156.397311 C53.0027649,156.397311 52.2700809,155.226743 51.8121029,154.768765 C51.3085252,154.265187 50.1180976,153.512644 50.1180976,153.512644 C50.1180976,153.512644 51.3162388,152.774889 51.8121029,152.279024 C52.2777945,151.813333 53.0027649,150.627977 53.0027649,150.627977 Z" id="Polygon-Copy" fill="#DAE2E6"></path>
                        <path d="M180.177306,26.1058394 C180.177306,26.1058394 180.925417,27.2833968 181.398907,27.7568873 C181.886972,28.2449526 183.061973,28.9905067 183.061973,28.9905067 C183.061973,28.9905067 181.866346,29.7791887 181.398907,30.2466276 C180.90479,30.7407444 180.177306,31.875174 180.177306,31.875174 C180.177306,31.875174 179.444622,30.7046057 178.986644,30.2466276 C178.483066,29.7430499 177.292638,28.9905067 177.292638,28.9905067 C177.292638,28.9905067 178.49078,28.2527514 178.986644,27.7568873 C179.452335,27.2911956 180.177306,26.1058394 180.177306,26.1058394 Z" id="Polygon-Copy-3" fill="#DAE2E6"></path>
                        <path d="M231.054866,44.218913 C231.054866,44.218913 231.802977,45.3964704 232.276468,45.8699609 C232.764533,46.3580262 233.939533,47.1035803 233.939533,47.1035803 C233.939533,47.1035803 232.743907,47.8922623 232.276468,48.3597012 C231.782351,48.8538181 231.054866,49.9882476 231.054866,49.9882476 C231.054866,49.9882476 230.322182,48.8176793 229.864204,48.3597012 C229.360627,47.8561235 228.170199,47.1035803 228.170199,47.1035803 C228.170199,47.1035803 229.36834,46.365825 229.864204,45.8699609 C230.329896,45.4042693 231.054866,44.218913 231.054866,44.218913 Z" id="Polygon-Copy-6" fill="#DAE2E6"></path>
                        <path d="M58.2651531,39.9168832 C58.2651531,39.9168832 58.8591347,40.8518345 59.2350743,41.2277741 C59.622586,41.6152858 60.5555071,42.2072371 60.5555071,42.2072371 C60.5555071,42.2072371 59.6062092,42.833431 59.2350743,43.2045658 C58.8427579,43.5968823 58.2651531,44.4975911 58.2651531,44.4975911 C58.2651531,44.4975911 57.6834204,43.568189 57.3197972,43.2045658 C56.9199691,42.8047377 55.9747992,42.2072371 55.9747992,42.2072371 C55.9747992,42.2072371 56.9260935,41.6214778 57.3197972,41.2277741 C57.6895448,40.8580265 58.2651531,39.9168832 58.2651531,39.9168832 Z" id="Polygon-Copy-2" fill="#DAE2E6"></path>
                        <path d="M175.002284,106.994387 C175.002284,106.994387 175.596266,107.929339 175.972206,108.305278 C176.359717,108.69279 177.292638,109.284741 177.292638,109.284741 C177.292638,109.284741 176.34334,109.910935 175.972206,110.28207 C175.579889,110.674386 175.002284,111.575095 175.002284,111.575095 C175.002284,111.575095 174.420552,110.645693 174.056929,110.28207 C173.6571,109.882242 172.711931,109.284741 172.711931,109.284741 C172.711931,109.284741 173.663225,108.698982 174.056929,108.305278 C174.426676,107.935531 175.002284,106.994387 175.002284,106.994387 Z" id="Polygon-Copy-5" fill="#DAE2E6"></path>
                        <path d="M214.981188,29.5276627 L214.981188,19.3909266" id="Path-63" stroke="#2FC3B6" stroke-width="2" stroke-linecap="round" fill="#DAE2E6"></path>
                        <path d="M224.496195,35.1421761 L230.800243,28.8381279" id="Path-64" stroke="#2FC3B6" stroke-width="2" stroke-linecap="round" fill="#DAE2E6"></path>
                        <path d="M203.895995,33.9835148 L198.699734,28.7872543" id="Path-65" stroke="#2FC3B6" stroke-width="2" stroke-linecap="round" fill="#DAE2E6"></path>
                        <path d="M308.789058,101.259013 L313.706391,97.3145566" id="Path-66" stroke="#DAE2E6" stroke-width="2" stroke-linecap="round" fill="#DAE2E6"></path>
                        <path d="M96.8555689,58.3625726 L91.3373526,52.8443563" id="Path-67" stroke="#DAE2E6" stroke-width="2" stroke-linecap="round" fill="#DAE2E6"></path>
                        <path d="M25.9745827,131.312292 L20.4563664,125.794076" id="Path-67-Copy" stroke="#DAE2E6" stroke-width="2" stroke-linecap="round" fill="#DAE2E6"></path>
                        <path d="M33.0151973,182.144565 L25.7475937,186.414631" id="Path-68" stroke="#DAE2E6" stroke-width="2" stroke-linecap="round" fill="#DAE2E6"></path>
                        <path d="M320.328386,185.066189 L325.114815,185.066189" id="Path-69" stroke="#DAE2E6" stroke-width="2" stroke-linecap="round" fill="#DAE2E6"></path>
                        <path d="M64.7100772,167.798073 C66.0210272,165.601749 66.7742544,163.033994 66.7742544,160.290313 C66.7742544,152.188544 60.2064723,145.620761 52.1047024,145.620761 C45.8155201,145.620761 40.4507176,149.578502 38.3650097,155.139268" id="Oval-22" stroke="#DAE2E6" stroke-width="2" stroke-linecap="round" stroke-linejoin="round"></path>
                        <path d="M348.362809,181.015803 C349.673759,178.819478 350.426986,176.251723 350.426986,173.508043 C350.426986,165.406273 343.859204,158.838491 335.757434,158.838491 C329.468252,158.838491 324.10345,162.796231 322.017742,168.356997" id="Oval-22-Copy-10" stroke="#DAE2E6" stroke-width="2" stroke-linecap="round" stroke-linejoin="round"></path>
                        <path d="M79.3686802,24.5801479 C79.3686802,26.7787639 81.1510107,28.5610944 83.3496268,28.5610944 L83.3496268,28.5610944 C85.5482428,28.5610944 87.3305733,26.7787639 87.3305733,24.5801479 C87.3305733,22.3815318 85.5482428,20.5992013 83.3496268,20.5992013" id="Oval-22-Copy-3" stroke="#DAE2E6" stroke-width="2" stroke-linecap="round" stroke-linejoin="round"></path>
                        <ellipse id="Oval-22-Copy-8" stroke="#DAE2E6" stroke-width="2" stroke-linecap="round" stroke-linejoin="round" cx="299.013099" cy="168.565798" rx="3.98094654" ry="3.98094654"></ellipse>
                        <ellipse id="Oval-22-Copy-7" stroke="#DAE2E6" stroke-width="2" stroke-linecap="round" stroke-linejoin="round" cx="135.733189" cy="3.7271939" rx="2.76830173" ry="2.76830173"></ellipse>
                        <path d="M312.836382,124.355376 C312.836382,120.757506 309.919733,117.840856 306.321863,117.840856 C302.723993,117.840856 299.807343,120.757506 299.807343,124.355376" id="Oval-22-Copy-4" stroke="#DAE2E6" stroke-width="2" stroke-linecap="round" stroke-linejoin="round"></path>
                        <path d="M53.0027649,175.863322 C53.0027649,171.915095 51.9656779,168.209093 50.1490567,165.002868 M46.393676,160.116798 C42.4132096,156.20984 36.9578699,153.800311 30.9397547,153.800311 C19.4952809,153.800311 10.0860012,162.514013 8.98451302,173.668818" id="Oval-22-Copy" stroke="#DAE2E6" stroke-width="2" stroke-linecap="round" stroke-linejoin="round"></path>
                        <path d="M290.040234,64.3092951 C290.22982,63.1456931 290.328386,61.9515235 290.328386,60.7343324 C290.328386,48.5492684 280.45044,38.6713223 268.265376,38.6713223 C258.300813,38.6713223 249.879125,45.2771546 247.140639,54.3484914" id="Oval-22-Copy-6" stroke="#DAE2E6" stroke-width="2" stroke-linecap="round" stroke-linejoin="round"></path>
                        <path d="M294.380705,70.0375842 C294.380705,66.9662872 291.890926,64.476509 288.819629,64.476509 C285.748332,64.476509 283.258554,66.9662872 283.258554,70.0375842" id="Oval-22-Copy-9" stroke="#DAE2E6" stroke-width="2" stroke-linecap="round" stroke-linejoin="round"></path>
                        <path d="M17.9938435,178.376218 C16.3526362,175.796443 13.4683139,174.084876 10.184234,174.084876 C5.07597884,174.084876 0.934919869,178.225935 0.934919869,183.33419" id="Oval-22-Copy-2" stroke="#DAE2E6" stroke-width="2" stroke-linecap="round" stroke-linejoin="round"></path>
                        <path d="M322.847485,138.59321 C324.08337,137.020702 324.820491,135.037672 324.820491,132.882478 C324.820491,127.774223 320.679432,123.633164 315.571177,123.633164 C312.174047,123.633164 309.204671,125.464595 307.596532,128.193973" id="Oval-22-Copy-5" stroke="#DAE2E6" stroke-width="2" stroke-linecap="round" stroke-linejoin="round"></path>
                        <path d="M10.7035276,218.182036 L343.90315,218.182036" id="Path-70" stroke="#404F54" stroke-width="2" stroke-linecap="round" fill="#404F54"></path>
                    </g>
                    <g id="Group-10" transform="translate(84.843225, 51.890681)">
                        <g id="Group-9" transform="translate(4.307240, 90.696843)">
                            <rect id="Rectangle-12-Copy" stroke="#404F54" stroke-width="2" stroke-linecap="round" fill="#F5F6F7" x="0.312397868" y="0.424389838" width="20.386425" height="64.9991152" rx="3"></rect>
                            <path d="M54.5185392,11.8067527 C54.5185392,7.38993792 58.0664924,3.30263153 62.4428525,2.67753583 L71.2830228,1.41485351 C75.1127526,0.867835529 78.217362,3.55794774 78.217362,7.42573609 L78.217362,58.7075886 L57.5200115,58.7075886 C55.8623441,58.7075886 54.5185392,57.36418 54.5185392,55.7170373 L54.5185392,11.8067527 Z" id="Rectangle-12-Copy-3" stroke="#404F54" stroke-width="2" stroke-linecap="round" fill="#F5F6F7"></path>
                            <rect id="Rectangle-12" fill="#F5F6F7" x="7.97430136" y="0.424389838" width="59.6166331" height="74.8981865" rx="3"></rect>
                            <path d="M7.97430136,69.9769641 L7.97430136,55.5973293 L42.8306594,55.5973293 C44.4871451,55.5973293 45.8299921,56.9501304 45.8299921,58.5942685 L45.8299921,66.9800249 C45.8299921,68.6351887 44.4858369,69.9769641 42.8306594,69.9769641 L7.97430136,69.9769641 Z" id="Combined-Shape" fill="#DAE2E6"></path>
                            <path d="M17.1025999,1.03087264 C17.2903721,1.00394045 17.4824011,0.990002758 17.67775,0.990002758 L59.0589008,0.990002758 C59.3693184,0.990002758 59.6714755,1.02521306 59.9615621,1.09187398 C57.3343301,9.36696717 48.7393313,15.4344761 38.5417042,15.4344761 C28.3190357,15.4344761 19.7068759,9.33713159 17.1025999,1.03087264 Z" id="Combined-Shape" fill="#C5D3DA"></path>
                            <path d="M9.25237734,4.33357692 C9.25237734,2.17459251 11.0043035,0.424389838 13.1639911,0.424389838 L64.9573966,0.424389838 C67.1177213,0.424389838 68.8690104,2.18469767 68.8690104,4.33840888 M68.8690104,21.4959676 L68.8690104,71.4081415 C68.8690104,73.5700242 67.1170842,75.3225764 64.9573966,75.3225764 L13.1639911,75.3225764 C11.0036665,75.3225764 9.25237734,73.575113 9.25237734,71.4122966 L9.25237734,20.9508589" id="Rectangle-12-Copy-4" stroke="#404F54" stroke-width="2" stroke-linecap="round"></path>
                            <path d="M23.1447905,69.9769641 L23.1447905,55.5973293 L64.5963,55.5973293 C66.2501909,55.5973293 67.5909344,56.9501304 67.5909344,58.5942685 L67.5909344,69.9769641 L23.1447905,69.9769641 Z" id="Combined-Shape" fill="#DAE2E6"></path>
                            <polygon id="Path-85" fill="#DAE2E6" points="21.0137874 54.5295373 35.6732657 30.0326448 46.464504 30.7360376 59.5474414 55.9094309"></polygon>
                            <polyline id="Path-47" stroke="#404F54" stroke-width="2" stroke-linecap="round" stroke-linejoin="round" fill="#F5F6F7" points="19.8987416 62.6331614 32.1004949 64.3552963 40.2809548 63.0582696 40.2851665 25.711351 34.9532371 25.711351 30.0919541 50.2205405 23.1679245 51.4732994"></polyline>
                            <polyline id="Path-47-Copy" stroke="#404F54" stroke-width="2" stroke-linecap="round" stroke-linejoin="round" fill="#F5F6F7" transform="translate(50.541170, 45.033324) scale(-1, 1) translate(-50.541170, -45.033324) " points="40.3479573 62.6331614 52.5497106 64.3552963 60.7301705 63.0582696 60.7343823 25.711351 55.4024528 25.711351 50.5411698 50.2205405 43.6171402 51.4732994"></polyline>
                            <rect id="Rectangle-13" stroke="#404F54" stroke-width="2" stroke-linecap="round" fill="#F5F6F7" x="0.312397868" y="50.4850254" width="26.8287924" height="14.3796348" rx="3"></rect>
                            <rect id="Rectangle-13-Copy-2" stroke="#404F54" stroke-width="2" stroke-linecap="round" fill="#F5F6F7" x="54.4122676" y="50.4850254" width="23.6988228" height="14.3796348" rx="3"></rect>
                            <rect id="Rectangle-13-Copy" stroke="#404F54" stroke-width="2" stroke-linecap="round" fill="#F5F6F7" x="15.875415" y="50.4850254" width="5.6910877" height="14.3796348" rx="2.84554385"></rect>
                            <ellipse id="Oval-7" stroke="#404F54" stroke-width="2" stroke-linecap="round" fill="#FF8F5C" cx="18.2902656" cy="59.4360736" rx="5.02932961" ry="5.02932961"></ellipse>
                            <path d="M22.1602562,59.3808916 C22.1602562,57.3889741 20.5454881,55.7742059 18.5535706,55.7742059 C16.5616531,55.7742059 14.9468849,57.3889741 14.9468849,59.3808916 C14.9468849,61.3728091 22.1602562,61.3728091 22.1602562,59.3808916 Z" id="Oval-11" fill="#FFBC9E"></path>
                            <path d="M27.1411903,0.959285699 L27.1411903,19.2986539 C27.1411903,20.4068267 28.0266323,21.3051782 29.1374827,21.3051782 L34.0402581,21.3051782 C35.1427799,21.3051782 36.0365505,20.4060395 36.0365505,19.3050055 L36.0365505,11.9278388" id="Path-48" stroke="#404F54" stroke-width="2" stroke-linecap="round" fill="#FF8F5C"></path>
                        </g>
                        <g id="Group-6-Copy">
                            <path d="M17.340711,89.875909 C17.340711,89.875909 26.6203244,81.9252373 44.1027382,81.9252373 C61.585152,81.9252373 71.5962578,89.5376097 71.5962578,89.5376097 L76.5411722,68.6198623 L73.8852036,51.0059587 L51.7170255,44.3855054 L15.815811,46.8474306 L12.0370718,69.9960383 L17.340711,89.875909 Z" id="Path-45" stroke="#404F54" stroke-width="2" stroke-linecap="round" fill="#2FC3B6"></path>
                            <path d="M80.4309757,38.1856921 L80.4309757,84.2430785 C80.4309757,84.2430785 80.4309757,94.7550784 72.9724338,97.7257291 C65.5138919,100.69638 60.5734456,98.9161596 60.5734456,98.9161596 C60.5734456,98.9161596 65.2266566,95.2772082 67.4983683,92.3748556 C69.7700799,89.472503 69.5530577,84.0846081 69.5530577,84.0846081 L69.5530577,41.6319305 L80.4309757,38.1856921 Z" id="Path-44" stroke="#404F54" stroke-width="2" stroke-linecap="round" fill="#2FC3B6"></path>
                            <ellipse id="Oval-5" stroke="#1F5F59" stroke-width="2" stroke-linecap="round" fill="#F5F6F7" cx="11.0171273" cy="54.3105196" rx="7.46979113" ry="7.46979113"></ellipse>
                            <ellipse id="Oval-5-Copy" stroke="#404F54" stroke-width="2" stroke-linecap="round" fill="#F5F6F7" cx="72.1555105" cy="54.3105196" rx="7.46979113" ry="7.46979113"></ellipse>
                            <ellipse id="Oval-5-Copy-3" stroke="#404F54" stroke-width="2" stroke-linecap="round" fill="#404F54" cx="70.1468962" cy="53.3191339" rx="5.46117679" ry="5.46117679"></ellipse>
                            <rect id="Rectangle-31-Copy-3" stroke="#404F54" stroke-width="2" stroke-linecap="round" fill="#FF8F5C" x="32.6992826" y="80.820892" width="21.6215037" height="21.5548566" rx="10.7774283"></rect>
                            <rect id="Rectangle-31-Copy-6" stroke="#404F54" stroke-width="2" stroke-linecap="round" fill="#F5F6F7" x="36.3180321" y="69.5687681" width="14.3840048" height="25.7918443" rx="7.19200239"></rect>
                            <rect id="Rectangle-31" stroke="#404F54" stroke-width="2" stroke-linecap="round" fill="#F5F6F7" x="16.4365722" y="15.0239253" width="54.1469247" height="69.7186853" rx="27.0734623"></rect>
                            <path d="M69.318961,49.5606866 L69.318961,32.3364654 L54.3734386,27.6429636 C53.3323999,24.7276611 51.1789381,22.3800939 51.1789381,22.3800939 L36.2095136,24.9064875 L14.394954,43.5308209 L13.142958,60.5477451 C13.142958,60.5477451 24.7025465,57.0791896 32.0021516,54.3766251 C37.8905887,52.1965234 47.9232468,40.9547751 51.9520588,36.4108585 C52.8623203,38.7255647 69.318961,49.5606866 69.318961,49.5606866 Z" id="Combined-Shape" fill="#DAE2E6"></path>
                            <path d="M52.4029642,29.6947441 C49.7258757,33.5458445 46.0457456,37.4521786 41.0650659,40.3271905 C26.9573471,48.4706289 18.7966746,50.2291469 18.7966746,50.2291469 L19.1949741,84.1663105 C19.1949741,84.1663105 19.1949741,90.7184657 21.7086017,93.6693291 C24.2222293,96.6201926 28.1637352,99.564673 28.1637352,99.564673 C28.1637352,99.564673 20.3081703,101.779576 11.4638779,99.564673 C2.61958546,97.3497701 0.366384516,86.3161068 0.366384516,86.3161068 L0.587025058,38.8737801 C0.587025058,38.8737801 2.28862464,3.89149861 29.6062944,0.920429393 C46.4661869,-1.97675007 53.605221,3.51111162 56.6277434,8.61437031 C56.7682423,8.54230373 56.9115124,8.47496834 57.0576058,8.41262005 C63.521164,5.65416825 70.8835286,6.20733915 76.8309606,15.0938931 C82.7783926,23.9804471 80.3428902,52.8621367 80.3428902,52.8621367 L70.1312976,45.8531794 C70.1312976,45.8531794 63.0526049,42.6295405 57.8242851,37.3099438 C55.5770229,35.0234484 53.7527219,32.1865093 52.4029642,29.6947441 Z" id="Combined-Shape" stroke="#404F54" stroke-width="2" stroke-linecap="round" fill="#85DAD2"></path>
                            <path d="M52.6120373,27.1051224 C50.3669753,31.0956622 44.8930156,36.6347262 40.6015064,39.1119263 C28.4458552,46.1285672 17.4424307,49.2034646 17.4424307,49.2034646 L17.9176567,82.6147353 C17.9176567,82.6147353 17.4424307,89.3434004 19.6601263,92.7525458 C19.6601263,92.7525458 20.6245061,93.9562434 15.4956154,92.7525458 C7.87509679,90.8441162 5.93366847,81.3371672 5.93366847,81.3371672 L6.12377926,40.4593765 C6.12377926,40.4593765 7.58993062,10.31755 31.1276883,7.75758391 C45.654697,5.2612838 51.805912,9.9897958 54.4102122,14.3869226 C54.5312711,14.3248289 54.654717,14.2668107 54.7805957,14.2130894 C60.3497994,11.8363212 66.6934427,12.3129505 71.8179359,19.969883 C76.9424291,27.6268155 75.7680144,48.0323308 75.7680144,48.0323308 C75.7680144,48.0323308 62.8939636,40.7925514 58.3890799,36.2090206 C56.4527685,34.2389048 52.6120373,27.1051224 52.6120373,27.1051224 Z" id="Combined-Shape-Copy" fill="#2FC3B6"></path>
                            <polyline id="Path-35" stroke="#404F54" stroke-width="2" stroke-linecap="round" stroke-linejoin="round" fill="#F5F6F7" points="42.4597526 55.2436436 42.4597526 65.5705457 45.5395092 65.5705457"></polyline>
                            <path d="M38.7996991,70.4752317 C38.7996991,73.3325619 41.1160229,75.6488857 43.9733532,75.6488857 C46.8306834,75.6488857 49.1470072,73.3325619 49.1470072,70.4752317 L38.7996991,70.4752317 Z" id="Oval-5-Copy-2" fill="#FF8F5C"></path>
                            <path d="M53.7936237,53.0062033 C53.7936237,55.1716781 55.5490879,56.9271423 57.7145628,56.9271423 C59.8800376,56.9271423 61.6355018,55.1716781 61.6355018,53.0062033" id="Oval-5-Copy-5" stroke="#404F54" stroke-width="2" stroke-linecap="round" fill="#F5F6F7" transform="translate(57.714563, 54.966673) rotate(-180.000000) translate(-57.714563, -54.966673) "></path>
                            <path d="M25.0343542,53.0062033 C25.0343542,55.1716781 26.7898183,56.9271423 28.9552932,56.9271423 C31.120768,56.9271423 32.8762322,55.1716781 32.8762322,53.0062033" id="Oval-5-Copy-6" stroke="#404F54" stroke-width="2" stroke-linecap="round" fill="#F5F6F7" transform="translate(28.955293, 54.966673) rotate(-180.000000) translate(-28.955293, -54.966673) "></path>
                        </g>
                    </g>
                    <g id="pc" transform="translate(162.000000, 133.000000)">
                        <path d="M114.319621,77.438152 C110.163131,77.438152 106.782806,80.7613116 106.690611,84.8956662 L121.948632,84.8956662 C121.856437,80.7613116 118.476112,77.438152 114.319621,77.438152 Z" id="Combined-Shape" fill="#FF8F5C"></path>
                        <path d="M121.948632,84.8956662 C121.827814,79.4777839 117.398054,75.1229356 111.951163,75.1229356 C106.504273,75.1229356 102.074512,79.4777839 101.953695,84.8956662 L121.948632,84.8956662 L121.948632,84.8956662 Z" id="Combined-Shape-Copy-2" stroke="#404F54" stroke-width="2" stroke-linecap="round"></path>
                        <rect id="Rectangle-10" stroke="#404F54" stroke-width="2" stroke-linecap="round" fill="#E0EAEF" x="17.6376953" y="79.2272694" width="77" height="6" rx="2"></rect>
                        <path d="M111,43.6181371 L111,64.7117508 C111,68.0227234 108.311164,70.706797 104.992801,70.706797 L6.00719887,70.706797 C2.68951454,70.706797 0,68.0269369 0,64.7083758 L0,6.70521821 L0,6.70521821 C0,3.39238167 2.68883589,0.706797029 6.00719887,0.706797029 L104.992801,0.706797029 C108.310485,0.706797029 111,3.40165106 111,6.70068523 L111,26.340954 L111,36.2430574" id="Rectangle-3" stroke="#404F54" stroke-width="2" stroke-linecap="round" fill="#F5F6F7"></path>
                        <circle id="Oval-9" stroke="#2FC3B6" stroke-width="2" stroke-linecap="round" cx="55.5430582" cy="32.1046477" r="7.5"></circle>
                        <path d="M1,49.3575061 L110.006656,49.3575061 L110.006656,64.6907277 C110.006656,67.4522302 107.76738,69.6908704 105.003692,69.6908704 L6.00296327,69.6908704 C3.23990295,69.6908704 1,67.4566801 1,64.6907277 L1,49.3575061 Z" id="Rectangle-9" fill="#E1EBF0"></path>
                        <circle id="Oval" fill="#E6EDF1" cx="8.5" cy="9.5" r="1.5"></circle>
                        <circle id="Oval-Copy" fill="#E6EDF1" cx="101.5" cy="9.5" r="1.5"></circle>
                        <circle id="Oval-Copy-3" fill="#C4D3DA" cx="8.5" cy="62.5" r="1.5"></circle>
                        <rect id="Rectangle-7" fill="#A4B5BB" x="41.5" y="55" width="28" height="2" rx="1"></rect>
                        <path d="M68.0943231,67.2136818 L70,85 L41.0861165,85 L44.0861165,57 L67,57 L67.4611483,61.3040512 L68.0943231,67.2136818 Z M55.5,74 C57.9852814,74 60,71.9852814 60,69.5 C60,67.0147186 57.9852814,65 55.5,65 C53.0147186,65 51,67.0147186 51,69.5 C51,71.9852814 53.0147186,74 55.5,74 Z" id="Combined-Shape" stroke="#404F54" stroke-width="2" stroke-linecap="round" stroke-linejoin="round" fill="#F5F6F7"></path>
                        <circle id="Oval-Copy-2" fill="#C4D3DA" cx="101.5" cy="62.5" r="1.5"></circle>
                    </g>
                </g>
                <g id="headphone" transform="translate(104.000000, 60.000000)">
                    <path d="M53.0304916,41.159998 L53.0304916,20.7586725 C53.0304916,20.7586725 54.0182353,0.32995724 38.1614572,0.628161121" id="Path-83" stroke="#404F54" stroke-width="2.5" stroke-linecap="round" stroke-linejoin="round"></path>
                    <path d="M0.457819522,42.361543 L0.307666167,54.8239753 C0.457819522,63.1872507 10.860085,67.6706668 15.4834955,67.6706668" id="Path-84" stroke="#404F54" stroke-width="2.5" stroke-linecap="round" stroke-linejoin="round"></path>
                    <rect id="Rectangle-2" fill="#404F54" x="12.4834955" y="65.8404145" width="6" height="4" rx="2"></rect>
                </g>
                <g id="Group-3" transform="translate(226.000000, 79.000000) rotate(20.000000) translate(-226.000000, -79.000000) translate(189.000000, 49.000000)">
                    <path d="M14.5408036,20.6286841 C14.7944108,18.4297675 16.7909874,16.6471934 19.0063099,16.6471934 L70.2970122,16.6471934 C72.5096361,16.6471934 74.0979946,18.4274983 73.8441257,20.6286841 L69.7625185,56.0185093 C69.5089114,58.2174259 67.5123347,60 65.2970122,60 L14.0063099,60 C11.7936861,60 10.2053275,58.2196951 10.4591964,56.0185093 L14.5408036,20.6286841 Z" id="Rectangle-23-Copy" stroke="#404F54" stroke-width="2" stroke-linecap="round" fill="#E0EAEF"></path>
                    <path d="M18.0369198,4.30389185 L72.0369198,4.30389185 C72.0369198,4.30389185 65.2737784,19.1103792 65.2737784,30.8796511 C65.2737784,42.648923 68.0369198,57.4554103 68.0369198,57.4554103 L14.0369198,57.4554103 C14.0369198,57.4554103 14.2463401,39.7317341 14.2463401,27.2058878 C14.2463401,14.6800414 18.0369198,4.30389185 18.0369198,4.30389185 Z" id="Rectangle-11" stroke="#404F54" stroke-width="2" stroke-linecap="round" stroke-linejoin="round" fill="#F0F5F8"></path>
                    <polygon id="Path-88" stroke="#404F54" stroke-width="2" stroke-linecap="round" stroke-linejoin="round" fill="#FF7F45" points="62.6255288 7.53368205 70.9248201 15.0649684 66.7157087 15.9994691 66.7157087 20.6160258 60.7498751 14.6293569"></polygon>
                    <path d="M14.0369198,0.303891852 L68.0369198,0.303891852 C68.0369198,0.303891852 62.6362321,15.2603431 62.6362321,27.0296149 C62.6362321,38.7988868 68.0369198,57.4554103 68.0369198,57.4554103 L14.0369198,57.4554103 C14.0369198,57.4554103 10.2463401,35.7317341 10.2463401,23.2058878 C10.2463401,10.6800414 14.0369198,0.303891852 14.0369198,0.303891852 Z" id="Rectangle-11-Copy" stroke="#404F54" stroke-width="2" stroke-linecap="round" stroke-linejoin="round" fill="#F5F6F7"></path>
                    <path d="M11.5034237,16.6471934 L62.6160531,16.6471934 C60.9595127,25.0590139 62.0732099,32.978011 62.0732099,32.978011 L57.6119679,56.3906916 L10.3413418,60 L11.1778381,23.7355361 L11.5034237,16.6471934 Z" id="Rectangle-23-Copy" fill="#E0EAEF"></path>
                    <ellipse id="Oval-10" stroke="#2FC3B6" stroke-width="2" stroke-linecap="round" fill="#F5F6F7" transform="translate(23.224701, 10.424887) rotate(32.000000) translate(-23.224701, -10.424887) " cx="23.2247014" cy="10.4248865" rx="3.55284161" ry="4.01638035"></ellipse>
                    <path d="M2.52511339,35.9765254 L0.188528152,28.466994 L0.188528152,28.466994 C-0.467877821,26.3573764 0.790987372,24.6471934 3.00630992,24.6471934 L54.2970122,24.6471934 C56.5096361,24.6471934 58.833875,26.3523328 59.4909662,28.4641526 L68.115678,56.1830408 C68.7715957,58.2910892 67.5123347,60 65.2970122,60 L14.0063099,60 C11.7936861,60 9.46918578,58.2940207 8.81004834,56.1756245 L4.51597542,42.37494" id="Rectangle-23-Copy-2" stroke="#404F54" stroke-width="2" stroke-linecap="round" fill="#F5F6F7"></path>
                    <path d="M33.968397,7.76383827 L56.0676322,7.76383827" id="Path-86" stroke="#404F54" stroke-width="2" stroke-linecap="round" stroke-linejoin="round" fill="#F5F6F7"></path>
                    <path d="M16.968397,19.7638383 L39.0676322,19.7638383" id="Path-86-Copy-3" stroke="#B2C5CE" stroke-width="2" stroke-linecap="round" stroke-linejoin="round" fill="#F5F6F7"></path>
                    <path d="M32.968397,12.7638383 L36.0676322,12.7638383" id="Path-86-Copy" stroke="#FF8F5C" stroke-width="2" stroke-linecap="round" stroke-linejoin="round" fill="#F5F6F7"></path>
                    <path d="M40.968397,12.7638383 L50.0676322,12.7638383" id="Path-86-Copy-2" stroke="#404F54" stroke-width="2" stroke-linecap="round" stroke-linejoin="round" fill="#F5F6F7"></path>
                    <polygon id="Path-87" stroke="#404F54" stroke-width="2" stroke-linecap="round" stroke-linejoin="round" fill="#FF7F45" points="52.2102706 0.279616346 58.7338058 0.0432853449 65.7042377 7.87774688 64.2520459 14.0174664"></polygon>
                </g>
            </g>
        </g>
    </g>
</svg>